$MeshFormat
4.1 0 8
$EndMeshFormat
$PhysicalNames
2
1 1 "My curves"
2 2 "My surface"
$EndPhysicalNames
$Entities
4 4 1 0
1 0 0 0 0 
2 0.1 0 0 0 
3 0.1 0.3 0 0 
4 0 0.3 0 0 
1 0 0 0 0.1 0 0 1 1 2 1 -2 
2 0.1 0 0 0.1 0.3 0 1 1 2 2 -3 
3 0 0.3 0 0.1 0.3 0 0 2 3 -4 
4 0 0 0 0 0.3 0 1 1 2 4 -1 
1 0 0 0 0.1 0.3 0 1 2 4 4 1 2 3 
$EndEntities
$Nodes
9 61 1 61
0 1 0 1
1
0 0 0
0 2 0 1
2
0.1 0 0
0 3 0 1
3
0.1 0.3 0
0 4 0 1
4
0 0.3 0
1 1 0 3
5
6
7
0.02499999999994168 0 0
0.04999999999986855 0 0
0.07499999999993361 0 0
1 2 0 9
8
9
10
11
12
13
14
15
16
0.1 0.02999999999994495 0
0.1 0.05999999999987042 0
0.1 0.089999999999783 0
0.1 0.119999999999701 0
0.1 0.149999999999619 0
0.1 0.1799999999996921 0
0.1 0.2099999999997737 0
0.1 0.2399999999998511 0
0.1 0.2699999999999185 0
1 3 0 3
17
18
19
0.07500000000006909 0.3 0
0.05000000000013682 0.3 0
0.02500000000006909 0.3 0
1 4 0 9
20
21
22
23
24
25
26
27
28
0 0.2700000000000324 0
0 0.2400000000001408 0
0 0.2100000000002275 0
0 0.1800000000003034 0
0 0.1500000000003846 0
0 0.1200000000003109 0
0 0.09000000000022845 0
0 0.06000000000015038 0
0 0.03000000000008224 0
2 1 0 33
29
30
31
32
33
34
35
36
37
38
39
40
41
42
43
44
45
46
47
48
49
50
51
52
53
54
55
56
57
58
59
60
61
0.02567732630053339 0.2248879716839112 0
0.07432267369946038 0.07511202831609924 0
0.07401923788653786 0.13499999999966 0
0.02598076211346277 0.165000000000344 0
0.07418581290546435 0.2565203759967838 0
0.02581418709453814 0.04347962400321662 0
0.07401923788640172 0.1949999999997329 0
0.02598076211359891 0.1050000000002697 0
0.0617289015179014 0.02103580651780166 0
0.03827109848210115 0.278964193482198 0
0.07470016333797466 0.2252544824065459 0
0.02529983666202421 0.07474551759345888 0
0.02598076211357837 0.1350000000003068 0
0.07401923788642234 0.1649999999996964 0
0.0259807621134613 0.1950000000002654 0
0.07401923788654101 0.104999999999742 0
0.06170707243388897 0.2796285530180934 0
0.03829292756611619 0.02037144698190697 0
0.02587983297195667 0.256592204605529 0
0.07412016702804274 0.04340779539447088 0
0.05007385591931318 0.2390784189960748 0
0.04992614408068569 0.06092158100393095 0
0.04999999999980649 0.2100000000002349 0
0.05000000000018658 0.08999999999978316 0
0.04999999999982507 0.1800000000002086 0
0.05000000000003051 0.1200000000000299 0
0.04999999999990879 0.1500000000001487 0
0.04998318961242976 0.03811218504777729 0
0.05001681038757307 0.2618878149522239 0
0.0178214229321192 0.01877021419704116 0
0.08217857706788448 0.2812297858029591 0
0.01783018629082539 0.2811112796175518 0
0.08216981370917553 0.01888872038244349 0
$EndNodes
$Elements
4 116 1 116
1 1 1 4
1 1 5 
2 5 6 
3 6 7 
4 7 2 
1 2 1 10
5 2 8 
6 8 9 
7 9 10 
8 10 11 
9 11 12 
10 12 13 
11 13 14 
12 14 15 
13 15 16 
14 16 3 
1 4 1 10
15 4 20 
16 20 21 
17 21 22 
18 22 23 
19 23 24 
20 24 25 
21 25 26 
22 26 27 
23 27 28 
24 28 1 
2 1 2 92
25 15 33 39 
26 27 34 40 
27 15 16 33 
28 27 28 34 
29 35 14 39 
30 36 26 40 
31 14 15 39 
32 26 27 40 
33 24 25 41 
34 12 13 42 
35 32 24 41 
36 31 12 42 
37 13 14 35 
38 25 36 41 
39 13 35 42 
40 25 26 36 
41 22 23 43 
42 23 24 32 
43 21 22 29 
44 23 32 43 
45 10 11 44 
46 11 12 31 
47 9 10 30 
48 29 22 43 
49 30 10 44 
50 11 31 44 
51 20 21 47 
52 8 9 48 
53 21 29 47 
54 9 30 48 
55 17 18 45 
56 5 6 46 
57 39 33 49 
58 40 34 50 
59 18 19 38 
60 6 7 37 
61 39 49 51 
62 40 50 52 
63 49 29 51 
64 50 30 52 
65 35 39 51 
66 36 40 52 
67 35 51 53 
68 36 52 54 
69 29 43 51 
70 30 44 52 
71 51 43 53 
72 52 44 54 
73 54 31 55 
74 41 54 55 
75 31 42 55 
76 42 35 53 
77 41 36 54 
78 42 53 55 
79 32 41 55 
80 43 32 53 
81 44 31 54 
82 53 32 55 
83 16 3 59 
84 28 1 58 
85 47 29 49 
86 48 30 50 
87 4 20 60 
88 2 8 61 
89 20 47 60 
90 8 48 61 
91 47 38 60 
92 48 37 61 
93 18 38 45 
94 6 37 46 
95 1 5 58 
96 3 17 59 
97 19 4 60 
98 7 2 61 
99 34 28 58 
100 33 16 59 
101 38 47 57 
102 37 48 56 
103 46 34 58 
104 45 33 59 
105 47 49 57 
106 48 50 56 
107 49 33 57 
108 50 34 56 
109 34 46 56 
110 33 45 57 
111 17 45 59 
112 5 46 58 
113 38 19 60 
114 37 7 61 
115 45 38 57 
116 46 37 56 
$EndElements
