$MeshFormat
4.1 0 8
$EndMeshFormat
$PhysicalNames
2
2 6 "My surface"
3 1 "The volume"
$EndPhysicalNames
$Entities
20 30 14 2
1 0 0 0 0 
2 0.1 0 0 0 
3 0.1 0.3 0 0 
4 0 0.3 0 0 
5 0.05656854249492381 0.3848528137423857 0 0 
6 0.1 0.35 0 0 
7 0.12 0.3 0 0 
8 0.12 0 0 0 
12 0.22 0 0 0 
16 0.22 0.3 0 0 
24 0.1765685424949238 0.3848528137423857 0 0 
28 0.22 0.35 0 0 
100 0 0.3 0.12 0 
101 0.1 0.3 0.12 0 
102 0.1 0.35 0.12 0 
103 0.05656854249492381 0.3848528137423857 0.12 0 
104 0.12 0.3 0.12 0 
105 0.1765685424949238 0.3848528137423857 0.12 0 
109 0.22 0.35 0.12 0 
113 0.22 0.3 0.12 0 
1 0 0 0 0.1 0 0 1 5 2 1 -2 
2 0.1 0 0 0.1 0.3 0 1 5 2 3 -2 
3 0 0.3 0 0.1 0.3 0 0 2 3 -4 
4 0 0 0 0 0.3 0 1 5 2 4 -1 
5 0 0.3 0 0.05656854249492381 0.3848528137423857 0 0 2 4 -5 
7 0.1 0.3 0 0.1 0.35 0 0 2 3 -6 
8 0.05656854249492381 0.35 0 0.1 0.3848528137423857 0 0 2 6 -5 
13 0.12 0 0 0.12 0.3 0 0 2 7 -8 
14 0.12 0 0 0.22 0 0 0 2 8 -12 
15 0.22 0 0 0.22 0.3 0 0 2 12 -16 
16 0.12 0.3 0 0.22 0.3 0 0 2 16 -7 
18 0.12 0.3 0 0.1765685424949238 0.3848528137423857 0 0 2 7 -24 
19 0.1765685424949238 0.35 0 0.22 0.3848528137423857 0 0 2 24 -28 
20 0.22 0.3 0 0.22 0.35 0 0 2 28 -16 
110 0 0.3 0 0 0.3 0.12 0 2 4 -100 
111 0.1 0.3 0 0.1 0.3 0.12 0 2 3 -101 
112 0.1 0.35 0 0.1 0.35 0.12 0 2 6 -102 
113 0.05656854249492381 0.3848528137423857 0 0.05656854249492381 0.3848528137423857 0.12 0 2 5 -103 
114 0 0.3 0.12 0.05656854249492381 0.3848528137423857 0.12 0 2 103 -100 
115 0 0.3 0.12 0.1 0.3 0.12 0 2 100 -101 
116 0.1 0.3 0.12 0.1 0.35 0.12 0 2 101 -102 
117 0.05656854249492381 0.35 0.12 0.1 0.3848528137423857 0.12 0 2 102 -103 
131 0.12 0.3 0.12 0.1765685424949238 0.3848528137423857 0.12 0 2 104 -105 
132 0.1765685424949238 0.35 0.12 0.22 0.3848528137423857 0.12 0 2 105 -109 
133 0.22 0.3 0.12 0.22 0.35 0.12 0 2 109 -113 
134 0.12 0.3 0.12 0.22 0.3 0.12 0 2 113 -104 
136 0.12 0.3 0 0.12 0.3 0.12 0 2 7 -104 
137 0.1765685424949238 0.3848528137423857 0 0.1765685424949238 0.3848528137423857 0.12 0 2 24 -105 
141 0.22 0.35 0 0.22 0.35 0.12 0 2 28 -109 
145 0.22 0.3 0 0.22 0.3 0.12 0 2 16 -113 
1 0 0 0 0.1 0.3 0 1 6 4 4 1 -2 3 
11 0 0.3 0 0.1 0.3848528137423857 0 0 4 5 -8 -7 3 
12 0.12 0 0 0.22 0.3 0 0 4 13 14 15 16 
17 0.12 0.3 0 0.22 0.3848528137423857 0 0 4 18 19 20 16 
119 0 0.3 0 0.1 0.3 0.12 0 4 115 -111 3 110 
121 0.1 0.3 0 0.1 0.35 0.12 0 4 111 116 -112 -7 
123 0.05656854249492381 0.35 0 0.1 0.3848528137423857 0.12 0 4 112 117 -113 -8 
125 0 0.3 0 0.05656854249492381 0.3848528137423857 0.12 0 4 114 -110 5 113 
127 0 0.3 0.12 0.1 0.3848528137423857 0.12 0 4 115 116 117 114 
138 0.12 0.3 0 0.1765685424949238 0.3848528137423857 0.12 0 4 18 137 -131 -136 
142 0.1765685424949238 0.35 0 0.22 0.3848528137423857 0.12 0 4 19 141 -132 -137 
146 0.22 0.3 0 0.22 0.35 0.12 0 4 20 145 -133 -141 
150 0.12 0.3 0 0.22 0.3 0.12 0 4 16 136 -134 -145 
151 0.12 0.3 0.12 0.22 0.3848528137423857 0.12 0 4 131 132 133 134 
129 0 0.3 0 0.1 0.3848528137423857 0.12 1 1 6 127 119 121 123 125 11 
130 0.12 0.3 0 0.22 0.3848528137423857 0.12 1 1 6 -17 151 138 142 146 150 
$EndEntities
$Nodes
56 201 1 201
0 1 0 1
1
0 0 0
0 2 0 1
2
0.1 0 0
0 3 0 1
3
0.1 0.3 0
0 4 0 1
4
0 0.3 0
0 5 0 1
5
0.05656854249492381 0.3848528137423857 0
0 6 0 1
6
0.1 0.35 0
0 7 0 1
7
0.12 0.3 0
0 16 0 1
8
0.22 0.3 0
0 24 0 1
9
0.1765685424949238 0.3848528137423857 0
0 28 0 1
10
0.22 0.35 0
0 100 0 1
11
0 0.3 0.12
0 101 0 1
12
0.1 0.3 0.12
0 102 0 1
13
0.1 0.35 0.12
0 103 0 1
14
0.05656854249492381 0.3848528137423857 0.12
0 104 0 1
15
0.12 0.3 0.12
0 105 0 1
16
0.1765685424949238 0.3848528137423857 0.12
0 109 0 1
17
0.22 0.35 0.12
0 113 0 1
18
0.22 0.3 0.12
1 1 0 3
19
20
21
0.02499999999994168 0 0
0.04999999999986855 0 0
0.07499999999993361 0 0
1 2 0 9
22
23
24
25
26
27
28
29
30
0.1 0.2700000000000324 0
0.1 0.2400000000001408 0
0.1 0.2100000000002275 0
0.1 0.1800000000003034 0
0.1 0.1500000000003846 0
0.1 0.1200000000003109 0
0.1 0.09000000000022845 0
0.1 0.06000000000015038 0
0.1 0.03000000000008224 0
1 3 0 3
31
32
33
0.07500000000006909 0.3 0
0.05000000000013682 0.3 0
0.02500000000006909 0.3 0
1 4 0 9
34
35
36
37
38
39
40
41
42
0 0.2700000000000324 0
0 0.2400000000001408 0
0 0.2100000000002275 0
0 0.1800000000003034 0
0 0.1500000000003846 0
0 0.1200000000003109 0
0 0.09000000000022845 0
0 0.06000000000015038 0
0 0.03000000000008224 0
1 5 0 2
43
44
0.01426840528690961 0.3214026079303644 0
0.03271646853142726 0.3490747027971409 0
1 7 0 1
45
0.1 0.3221950240215466 0
1 16 0 3
46
47
48
0.1950000000000664 0.3 0
0.1700000000001328 0.3 0
0.1450000000000691 0.3 0
1 18 0 2
49
50
0.1342684052869091 0.3214026079303636 0
0.1527164685314266 0.3490747027971398 0
1 20 0 1
51
0.22 0.3221950240217284 0
1 110 0 3
52
53
54
0 0.3 0.02999999999992384
0 0.3 0.05999999999983226
0 0.3 0.08999999999991817
1 111 0 3
55
56
57
0.1 0.3 0.02999999999992384
0.1 0.3 0.05999999999983226
0.1 0.3 0.08999999999991817
1 112 0 1
58
0.1 0.35 0.05999999999983219
1 113 0 1
59
0.05656854249492381 0.3848528137423857 0.05999999999983219
1 114 0 2
60
61
0.03271646853154789 0.3490747027973218 0.12
0.01426840528697544 0.3214026079304632 0.12
1 115 0 3
62
63
64
0.02499999999994168 0.3 0.12
0.04999999999986855 0.3 0.12
0.07499999999993361 0.3 0.12
1 116 0 1
65
0.1 0.3221950240215466 0.12
1 131 0 2
66
67
0.1342684052869091 0.3214026079303636 0.12
0.1527164685314266 0.3490747027971398 0.12
1 133 0 1
68
0.22 0.3221950240217284 0.12
1 134 0 3
69
70
71
0.1950000000000664 0.3 0.12
0.1700000000001328 0.3 0.12
0.1450000000000691 0.3 0.12
1 136 0 3
72
73
74
0.12 0.3 0.02999999999992384
0.12 0.3 0.05999999999983226
0.12 0.3 0.08999999999991817
1 137 0 1
75
0.1765685424949238 0.3848528137423857 0.05999999999983219
1 141 0 1
76
0.22 0.35 0.05999999999983219
1 145 0 3
77
78
79
0.22 0.3 0.02999999999992384
0.22 0.3 0.05999999999983226
0.22 0.3 0.08999999999991817
2 1 0 33
80
81
82
83
84
85
86
87
88
89
90
91
92
93
94
95
96
97
98
99
100
101
102
103
104
105
106
107
108
109
110
111
112
0.02567732630055252 0.2248879716839122 0
0.02598076211346277 0.165000000000344 0
0.074322673699336 0.07511202831646388 0
0.07418581290549821 0.2565203759969001 0
0.07401923788653958 0.1950000000002654 0
0.07401923788647009 0.1350000000003478 0
0.02581418709451984 0.04347962400327855 0
0.02598076211359891 0.1050000000002697 0
0.03827109848210115 0.2789641934821985 0
0.06172890151788591 0.02103580651786866 0
0.02529983666196711 0.07474551759359224 0
0.07470016333805687 0.2252544824067789 0
0.02598076211346275 0.1350000000004252 0
0.07401923788640083 0.1050000000002647 0
0.02598076211345462 0.195000000000277 0
0.07401923788646933 0.1650000000003066 0
0.06170707243388966 0.2796285530181162 0
0.03829292756611055 0.02037144698195501 0
0.07412016702800844 0.04340779539465903 0
0.02587983297197884 0.2565922046055303 0
0.05007385591937033 0.2390784189961339 0
0.0499261440806153 0.06092158100415719 0
0.04999999999999201 0.2100000000002353 0
0.04999999999999832 0.0900000000002332 0
0.04999999999998296 0.1800000000003136 0
0.04999999999996502 0.1500000000003656 0
0.04999999999996287 0.1200000000003856 0
0.04998318961240917 0.0381121850479073 0
0.05001681038758933 0.2618878149522533 0
0.08217857706789139 0.2812297858030097 0
0.01782142293211441 0.01877021419706316 0
0.01783018629082982 0.2811112796175523 0
0.0821698137091656 0.01888872038252198 0
2 11 0 6
113
114
115
116
117
118
0.07697878800453246 0.334936685184373 0
0.0380888359017733 0.3201879123040887 0
0.06231913878407789 0.3189550360233545 0
0.0632947038995912 0.3511374231409072 0
0.08203510358621649 0.3169648862298346 0
0.05020972046707244 0.3368229139806366 0
2 17 0 6
119
120
121
122
123
124
0.1969787880044861 0.3349366851844416 0
0.1580888359017709 0.3201879123040888 0
0.1823191387840708 0.3189550360233674 0
0.1832947038995799 0.3511374231409202 0
0.2020351035862017 0.3169648862298891 0
0.1702097204670631 0.3368229139806341 0
2 119 0 15
125
126
127
128
129
130
131
132
133
134
135
136
137
138
139
0.07433963998160792 0.3 0.0767819052495069
0.02566152309372944 0.3 0.04321520219714018
0.03827109848194142 0.3 0.09896299165098704
0.06172890151806004 0.3 0.02103580651780733
0.07412259078268849 0.3 0.04364634924208646
0.05000407076364378 0.3 0.0599934815571272
0.02587873844625367 0.3 0.07635017329249838
0.06173271027975308 0.3 0.09967073909048454
0.03826748356614641 0.3 0.02032737668090468
0.05004525159063997 0.3 0.0823518581681208
0.04995691394485362 0.3 0.03764364323901317
0.08221447005225893 0.3 0.1012905288679819
0.01782996738562735 0.3 0.1010626329886807
0.01778580133198899 0.3 0.01870851577559374
0.08217029846016354 0.3 0.01893643115196353
2 121 0 5
140
141
142
143
144
0.1 0.3146924304955403 0.1018838098757032
0.1 0.3323774909034174 0.09500152135327804
0.1 0.3118178500448355 0.01673679998636213
0.1 0.3227161248666261 0.03426579955382932
0.1 0.3214031007459028 0.07341050515719579
2 123 0 2
145
146
0.07828427124746194 0.3674264068711929 0.08999999999991609
0.07828427124746193 0.3674264068711929 0.02999999999991609
2 125 0 9
147
148
149
150
151
152
153
154
155
0.01327410042569258 0.3199111506385389 0.07671459402623337
0.02409330980902419 0.3361399647135362 0.02731946217425531
0.02429738469298895 0.3364460770394834 0.09686088074821339
0.03090720105259984 0.3463608015788998 0.06130824018020159
0.01327642722654057 0.3199146408398109 0.04615188677697679
0.04017081287657975 0.3602562193148697 0.02972554047085782
0.04021162785339688 0.3603174417800953 0.09163382418564944
0.01138395207192683 0.3170759281078903 0.02156902428141439
0.01062495058153443 0.3159374258723017 0.1001139716694012
2 127 0 5
156
157
158
159
160
0.07833274541482722 0.3360975120107731 0.12
0.03689697476364692 0.3179667987637811 0.12
0.06013371444758889 0.3236629442571404 0.12
0.06264529603867446 0.352774327546108 0.12
0.08174495656638191 0.3175798697545781 0.12
2 138 0 9
161
162
163
164
165
166
167
168
169
0.1332395054162699 0.3198592581244048 0.07673255012085178
0.1441176929197614 0.3361765393796421 0.0275413892893031
0.1446648474926878 0.3369972712390317 0.09636484983050413
0.1510295055013119 0.3465442582519678 0.06074353772313914
0.1332416566544818 0.3198624849817228 0.04613467113792847
0.1603262345484753 0.3604893518227129 0.02974103568987588
0.160631512694592 0.360947269041888 0.09114326675658946
0.1313839520655877 0.3170759280983815 0.02156902420792649
0.1308459744602087 0.3162689616903131 0.09967683740656987
2 142 0 2
170
171
0.1982842713273433 0.3674264068070898 0.08999999999991609
0.1982842714522594 0.3674264067068473 0.03000000001431346
2 146 0 5
172
173
174
175
176
0.22 0.3120244050339832 0.1029483414096025
0.22 0.3232750523660369 0.08589562276561004
0.22 0.3125203637538891 0.01697515750750448
0.22 0.3327591865546141 0.02720676100479672
0.22 0.3218113084869826 0.04623449636070576
2 150 0 15
177
178
179
180
181
182
183
184
185
186
187
188
189
190
191
0.145588077487134 0.3 0.07686637839515831
0.1944110145322654 0.3 0.04313069204753013
0.1818666586946103 0.3 0.09894449942525732
0.1581332676044006 0.3 0.02105415988936227
0.1457367008271497 0.3 0.04354915271757576
0.1699959292548198 0.3 0.05999348158665099
0.194262010241581 0.3 0.07644736582175393
0.1575000000001009 0.3 0.09834936495548614
0.182500000636686 0.3 0.02165063546216191
0.1698639311688893 0.3 0.08203669284717247
0.1701338400264826 0.3 0.03795921675393899
0.1376368134483305 0.3 0.1010802635885289
0.2022195873461645 0.3 0.1011000533569332
0.2023630082188818 0.3 0.018919062143173
0.1377801168864416 0.3 0.01889895818747364
2 151 0 6
192
193
194
195
196
197
0.1969787880044861 0.3349366851844416 0.12
0.1580888359017709 0.3201879123040888 0.12
0.1823191387840708 0.3189550360233674 0.12
0.1832947038995799 0.3511374231409202 0.12
0.2020351035862017 0.3169648862298891 0.12
0.1702097204670631 0.3368229139806341 0.12
3 129 0 2
198
199
0.06337054343538463 0.3327049304801424 0.03148554278903794
0.06362013476438576 0.3326673991088385 0.08579401343617282
3 130 0 2
200
201
0.1833705434353627 0.3327049304801433 0.08853451198035872
0.1833705434353627 0.3327049304801433 0.03115278744208339
$EndNodes
$Elements
6 470 1 470
1 1 1 4
1 1 19 
2 19 20 
3 20 21 
4 21 2 
1 2 1 10
5 3 22 
6 22 23 
7 23 24 
8 24 25 
9 25 26 
10 26 27 
11 27 28 
12 28 29 
13 29 30 
14 30 2 
1 4 1 10
15 4 34 
16 34 35 
17 35 36 
18 36 37 
19 37 38 
20 38 39 
21 39 40 
22 40 41 
23 41 42 
24 42 1 
2 1 2 92
25 41 86 90 
26 23 83 91 
27 41 42 86 
28 23 22 83 
29 24 23 91 
30 40 41 90 
31 87 40 90 
32 84 24 91 
33 27 26 85 
34 39 87 92 
35 25 84 95 
36 26 25 95 
37 28 27 93 
38 27 85 93 
39 82 28 93 
40 85 26 95 
41 37 81 94 
42 35 36 80 
43 25 24 84 
44 39 40 87 
45 36 37 94 
46 29 28 82 
47 38 39 92 
48 37 38 81 
49 80 36 94 
50 81 38 92 
51 30 29 98 
52 34 35 99 
53 29 82 98 
54 35 80 99 
55 31 32 96 
56 19 20 97 
57 91 83 100 
58 90 86 101 
59 32 33 88 
60 20 21 89 
61 91 100 102 
62 90 101 103 
63 100 80 102 
64 101 82 103 
65 84 91 102 
66 87 90 103 
67 80 94 102 
68 84 102 104 
69 102 94 104 
70 103 93 106 
71 87 103 106 
72 82 93 103 
73 94 81 104 
74 95 84 104 
75 104 81 105 
76 95 104 105 
77 93 85 106 
78 92 87 106 
79 85 95 105 
80 81 92 105 
81 85 105 106 
82 105 92 106 
83 22 3 109 
84 42 1 110 
85 99 80 100 
86 98 82 101 
87 4 34 111 
88 2 30 112 
89 30 98 112 
90 34 99 111 
91 98 89 112 
92 99 88 111 
93 32 88 96 
94 20 89 97 
95 3 31 109 
96 1 19 110 
97 33 4 111 
98 21 2 112 
99 86 42 110 
100 83 22 109 
101 88 99 108 
102 89 98 107 
103 97 86 110 
104 96 83 109 
105 99 100 108 
106 98 101 107 
107 100 83 108 
108 101 86 107 
109 83 96 108 
110 86 97 107 
111 31 96 109 
112 19 97 110 
113 88 33 111 
114 89 21 112 
115 96 88 108 
116 97 89 107 
3 129 4 176
117 126 135 151 130 
118 130 129 198 199 
119 130 125 129 199 
120 142 117 139 198 
121 144 198 129 199 
122 150 151 135 130 
123 130 135 150 198 
124 144 129 125 199 
125 134 130 150 199 
126 149 134 147 199 
127 151 135 148 150 
128 115 114 128 198 
129 148 150 135 198 
130 130 198 150 199 
131 148 135 133 198 
132 127 134 149 199 
133 133 128 114 198 
134 127 132 134 199 
135 140 136 160 199 
136 151 147 131 130 
137 115 139 117 198 
138 150 147 134 199 
139 135 128 133 198 
140 160 136 132 199 
141 13 141 145 58 
142 144 143 129 198 
143 130 129 135 198 
144 115 128 139 198 
145 133 114 148 198 
146 59 150 198 199 
147 157 127 149 199 
148 115 118 114 198 
149 126 151 131 130 
150 146 113 143 198 
151 147 151 150 130 
152 125 130 134 199 
153 157 63 127 132 
154 115 117 113 198 
155 142 139 143 198 
156 114 118 148 198 
157 140 144 136 199 
158 59 198 58 199 
159 144 58 198 199 
160 156 141 160 199 
161 59 152 146 198 
162 131 155 137 127 
163 160 132 158 199 
164 140 160 141 199 
165 139 31 115 117 
166 125 136 144 199 
167 150 149 147 199 
168 59 146 58 198 
169 128 31 115 139 
170 129 139 128 198 
171 59 150 152 198 
172 144 57 140 136 
173 144 125 129 56 
174 147 149 155 127 
175 131 147 155 127 
176 154 133 114 148 
177 136 125 132 199 
178 138 154 133 114 
179 141 156 145 199 
180 127 155 137 157 
181 160 158 156 199 
182 33 138 133 114 
183 157 149 158 199 
184 145 59 58 199 
185 113 118 115 198 
186 57 144 125 136 
187 127 149 155 157 
188 136 132 64 160 
189 156 159 145 199 
190 153 59 145 199 
191 129 143 144 56 
192 116 113 146 198 
193 128 135 129 198 
194 63 157 158 132 
195 138 154 126 133 
196 144 58 143 198 
197 150 59 153 199 
198 60 158 149 199 
199 132 125 134 199 
200 140 141 144 199 
201 60 159 158 199 
202 152 148 118 198 
203 129 143 139 198 
204 114 33 138 43 
205 113 6 146 143 
206 157 149 60 158 
207 62 137 155 157 
208 62 127 137 157 
209 152 118 116 198 
210 32 31 115 128 
211 153 159 60 199 
212 153 60 149 199 
213 138 154 114 43 
214 156 65 160 141 
215 158 64 132 160 
216 6 58 146 143 
217 156 158 159 199 
218 152 150 148 198 
219 116 118 113 198 
220 59 152 5 146 
221 126 151 53 131 
222 145 153 14 59 
223 116 146 152 198 
224 139 55 3 142 
225 142 3 139 117 
226 13 14 145 159 
227 133 33 114 32 
228 153 145 159 199 
229 146 5 6 116 
230 155 61 62 157 
231 58 146 143 198 
232 147 53 151 131 
233 148 114 154 43 
234 140 160 65 141 
235 150 153 149 199 
236 145 58 141 199 
237 44 148 114 118 
238 44 152 148 118 
239 55 129 143 139 
240 63 158 64 132 
241 141 156 13 145 
242 45 6 113 143 
243 141 58 144 199 
244 154 4 138 52 
245 3 31 139 117 
246 139 143 55 142 
247 62 63 127 157 
248 12 140 136 160 
249 56 129 143 55 
250 155 137 11 54 
251 6 146 116 113 
252 138 154 52 126 
253 145 156 13 159 
254 33 4 138 43 
255 149 61 155 157 
256 147 54 53 131 
257 151 53 52 126 
258 136 64 12 160 
259 152 44 116 118 
260 43 148 114 44 
261 140 57 12 136 
262 152 5 146 116 
263 125 144 57 56 
264 154 138 4 43 
265 145 14 153 159 
266 151 52 154 126 
267 160 12 140 65 
268 5 152 44 116 
269 60 61 149 157 
270 142 45 3 117 
271 60 153 14 159 
272 13 65 156 141 
273 114 128 32 115 
274 32 128 114 133 
275 135 151 133 126 
276 135 133 151 148 
277 154 133 151 126 
278 154 151 133 148 
279 147 134 127 131 
280 127 134 147 149 
281 147 130 134 131 
282 134 130 147 150 
283 198 142 113 143 
284 198 113 142 117 
285 45 113 142 143 
286 45 142 113 117 
287 157 132 199 158 
288 199 132 157 127 
289 62 155 11 61 
290 62 11 155 137 
291 155 131 54 147 
292 54 131 155 137 
3 130 4 178
293 183 178 182 201 
294 183 182 200 201 
295 182 161 177 186 
296 165 182 181 187 
297 176 178 183 201 
298 176 183 200 201 
299 189 196 172 200 
300 182 165 164 187 
301 182 187 164 201 
302 180 185 121 201 
303 163 186 161 200 
304 182 164 200 201 
305 182 164 186 200 
306 161 182 164 186 
307 164 165 162 187 
308 193 194 179 200 
309 184 186 163 200 
310 193 179 184 200 
311 120 180 121 201 
312 162 164 187 201 
313 171 10 76 175 
314 162 187 180 201 
315 47 121 180 185 
316 164 161 186 200 
317 164 75 200 201 
318 184 179 186 200 
319 185 180 187 201 
320 196 189 194 200 
321 174 123 190 201 
322 190 123 121 201 
323 192 196 172 68 
324 190 121 185 201 
325 182 178 187 201 
326 173 176 183 200 
327 189 179 194 200 
328 182 186 183 200 
329 161 165 182 177 
330 180 120 162 201 
331 193 194 70 179 
332 121 180 120 47 
333 70 184 193 179 
334 193 184 163 200 
335 193 197 194 200 
336 181 182 165 177 
337 121 124 120 201 
338 76 200 75 201 
339 192 170 173 200 
340 76 176 200 201 
341 165 182 164 161 
342 196 194 192 200 
343 189 172 173 200 
344 120 124 162 201 
345 164 163 161 200 
346 121 123 119 201 
347 119 123 175 201 
348 75 166 171 201 
349 174 175 123 201 
350 193 163 197 200 
351 190 46 121 123 
352 192 172 173 68 
353 167 75 170 200 
354 185 46 121 190 
355 169 188 184 193 
356 176 190 178 201 
357 194 69 189 196 
358 75 171 76 201 
359 170 75 76 200 
360 120 168 180 162 
361 178 190 185 201 
362 194 69 179 189 
363 75 164 166 201 
364 179 189 183 200 
365 178 176 183 78 
366 119 175 171 201 
367 180 191 168 120 
368 163 169 184 193 
369 71 184 188 193 
370 164 75 167 200 
371 161 163 169 184 
372 191 180 48 120 
373 177 161 169 184 
374 188 169 71 193 
375 169 188 177 184 
376 190 176 77 174 
377 197 192 194 200 
378 173 183 176 78 
379 121 119 124 201 
380 170 192 195 200 
381 179 183 186 200 
382 185 187 178 201 
383 122 119 171 201 
384 77 178 176 190 
385 76 176 173 200 
386 181 191 168 180 
387 124 166 162 201 
388 119 51 175 123 
389 183 189 173 200 
390 120 48 191 49 
391 47 46 121 185 
392 192 17 173 170 
393 71 169 66 193 
394 167 197 163 200 
395 194 69 70 179 
396 166 124 122 201 
397 167 195 197 200 
398 120 191 168 49 
399 174 175 51 123 
400 193 71 184 70 
401 170 17 173 76 
402 162 166 164 201 
403 197 195 192 200 
404 75 166 9 171 
405 170 167 16 75 
406 180 48 120 47 
407 165 73 181 177 
408 122 124 119 201 
409 122 171 166 201 
410 172 79 18 189 
411 18 172 189 196 
412 170 195 167 200 
413 163 164 167 200 
414 76 171 175 201 
415 17 16 170 195 
416 171 9 10 122 
417 168 120 49 162 
418 73 165 161 177 
419 76 175 176 201 
420 170 76 173 200 
421 10 171 119 175 
422 50 166 162 124 
423 50 162 120 124 
424 79 173 183 189 
425 173 79 172 189 
426 169 163 66 193 
427 191 168 7 72 
428 8 46 190 123 
429 189 69 18 196 
430 183 173 79 78 
431 173 17 192 68 
432 188 15 169 74 
433 72 191 168 181 
434 170 192 17 195 
435 122 10 171 119 
436 48 7 191 49 
437 120 49 162 50 
438 163 167 67 197 
439 166 50 122 124 
440 165 73 72 181 
441 161 74 73 177 
442 197 167 67 195 
443 174 8 190 123 
444 190 77 8 174 
445 166 9 171 122 
446 7 168 191 49 
447 176 178 77 78 
448 170 16 167 195 
449 193 163 67 197 
450 165 72 168 181 
451 9 166 50 122 
452 67 66 163 193 
453 167 16 67 195 
454 196 18 172 68 
455 10 119 51 175 
456 174 51 8 123 
457 165 187 180 162 
458 180 187 165 181 
459 180 168 165 162 
460 165 168 180 181 
461 172 192 200 196 
462 200 192 172 173 
463 161 186 184 177 
464 184 186 161 163 
465 201 174 176 190 
466 201 176 174 175 
467 169 71 15 188 
468 15 71 169 66 
469 177 169 74 188 
470 177 74 169 161 
$EndElements
