$MeshFormat
4.1 0 8
$EndMeshFormat
$PhysicalNames
1
2 100 "Top & right surfaces"
$EndPhysicalNames
$Entities
24 36 14 6
15 0.166 0.75 0.256 0 
16 0.166 0.75 0.07600000000000001 0 
17 0.332 0.75 0.422 0 
18 0.332 0.75 0.242 0 
19 0.498 0.75 0.588 0 
20 0.498 0.75 0.408 0 
21 0.664 0.75 0.754 0 
22 0.664 0.75 0.5740000000000001 0 
23 0.8300000000000001 0.75 0.92 0 
24 0.8300000000000001 0.75 0.7400000000000001 0 
25 0 0 0.5 0 
26 0 0 1 0 
27 0 1 1 0 
28 0 1 0 0 
29 0 0.5 0 0 
30 0 0.5 0.5 0 
31 0.5 0 0 0 
32 1 0 0 0 
33 1 0 1 0 
34 0.5 0 0.5 0 
35 1 1 1 0 
36 1 1 0 0 
37 0.5 0.5 0 0 
38 0.5 0.5 0.5 0 
22 0.1659999 0.7499999000000001 0.2559999 0.1660001 0.7500000999999999 0.2560001 0 2 15 -15 
23 0.1659999 0.7499999000000001 0.07599990000000001 0.2560001 0.7500000999999999 0.2560001 0 2 16 -15 
24 0.1659999 0.7499999000000001 0.07599990000000001 0.1660001 0.7500000999999999 0.07600010000000001 0 2 16 -16 
25 0.3319999 0.7499999000000001 0.4219999 0.3320001 0.7500000999999999 0.4220001 0 2 17 -17 
26 0.3319999 0.7499999000000001 0.2419999 0.4220001 0.7500000999999999 0.4220001 0 2 18 -17 
27 0.3319999 0.7499999000000001 0.2419999 0.3320001 0.7500000999999999 0.2420001 0 2 18 -18 
28 0.4979999 0.7499999000000001 0.5879999 0.4980001 0.7500000999999999 0.5880000999999999 0 2 19 -19 
29 0.4979999 0.7499999000000001 0.4079999 0.5880000999999999 0.7500000999999999 0.5880000999999999 0 2 20 -19 
30 0.4979999 0.7499999000000001 0.4079999 0.4980001 0.7500000999999999 0.4080001 0 2 20 -20 
31 0.6639999000000001 0.7499999000000001 0.7539999000000001 0.6640001 0.7500000999999999 0.7540001 0 2 21 -21 
32 0.6639999000000001 0.7499999000000001 0.5739999000000001 0.7540001 0.7500000999999999 0.7540001 0 2 22 -21 
33 0.6639999000000001 0.7499999000000001 0.5739999000000001 0.6640001 0.7500000999999999 0.5740001 0 2 22 -22 
34 0.8299999000000001 0.7499999000000001 0.9199999000000001 0.8300001 0.7500000999999999 0.9200001 0 2 23 -23 
35 0.8299999000000001 0.7499999000000001 0.7399999000000002 0.9200001 0.7500000999999999 0.9200001 0 2 24 -23 
36 0.8299999000000001 0.7499999000000001 0.7399999000000002 0.8300001 0.7500000999999999 0.7400001 0 2 24 -24 
37 -1e-07 -1e-07 0.4999999 1e-07 1e-07 1.0000001 0 2 25 -26 
38 -1e-07 -9.999999994736442e-08 0.9999999000000001 1e-07 1.0000001 1.0000001 0 2 26 -27 
39 -1e-07 0.9999999000000001 -9.999999994736442e-08 1e-07 1.0000001 1.0000001 0 2 28 -27 
40 -1e-07 0.4999999 -1e-07 1e-07 1.0000001 1e-07 0 2 29 -28 
41 -1e-07 0.4999999 -9.999999997511999e-08 1e-07 0.5000000999999999 0.5000000999999999 0 2 29 -30 
42 -1e-07 -9.999999997511999e-08 0.4999999 1e-07 0.5000000999999999 0.5000000999999999 0 2 25 -30 
43 0.4999999 -1e-07 -1e-07 1.0000001 1e-07 1e-07 0 2 31 -32 
44 0.9999999000000001 -1e-07 -9.999999994736442e-08 1.0000001 1e-07 1.0000001 0 2 32 -33 
45 -9.999999994736442e-08 -1e-07 0.9999999000000001 1.0000001 1e-07 1.0000001 0 2 26 -33 
46 -9.999999997511999e-08 -1e-07 0.4999999 0.5000000999999999 1e-07 0.5000000999999999 0 2 25 -34 
47 0.4999999 -1e-07 -9.999999997511999e-08 0.5000000999999999 1e-07 0.5000000999999999 0 2 31 -34 
48 -9.999999994736442e-08 0.9999999000000001 0.9999999000000001 1.0000001 1.0000001 1.0000001 0 2 27 -35 
49 0.9999999000000001 -9.999999994736442e-08 0.9999999000000001 1.0000001 1.0000001 1.0000001 0 2 33 -35 
50 -9.999999994736442e-08 0.9999999000000001 -1e-07 1.0000001 1.0000001 1e-07 0 2 28 -36 
51 0.9999999000000001 0.9999999000000001 -9.999999994736442e-08 1.0000001 1.0000001 1.0000001 0 2 36 -35 
52 0.9999999000000001 -9.999999994736442e-08 -1e-07 1.0000001 1.0000001 1e-07 0 2 32 -36 
53 0.4999999 -9.999999997511999e-08 -1e-07 0.5000000999999999 0.5000000999999999 1e-07 0 2 31 -37 
54 -9.999999997511999e-08 0.4999999 -1e-07 0.5000000999999999 0.5000000999999999 1e-07 0 2 29 -37 
55 0.4999999 0.4999999 -9.999999997511999e-08 0.5000000999999999 0.5000000999999999 0.5000000999999999 0 2 37 -38 
56 -9.999999997511999e-08 0.4999999 0.4999999 0.5000000999999999 0.5000000999999999 0.5000000999999999 0 2 30 -38 
57 0.4999999 -9.999999997511999e-08 0.4999999 0.5000000999999999 0.5000000999999999 0.5000000999999999 0 2 34 -38 
10 0.07599990000000001 0.6599999000000001 0.07599990000000001 0.2560001 0.8400000999999999 0.2560001 0 4 -22 -23 24 23 
11 0.2419999 0.6599999000000001 0.2419999 0.4220001 0.8400000999999999 0.4220001 0 4 -25 -26 27 26 
12 0.4079999 0.6599999000000001 0.4079999 0.5880000999999999 0.8400000999999999 0.5880000999999999 0 4 -28 -29 30 29 
13 0.5739999000000001 0.6599999000000001 0.5739999000000001 0.7540001 0.8400000999999999 0.7540001 0 4 -31 -32 33 32 
14 0.7399999000000002 0.6599999000000001 0.7399999000000002 0.9200001 0.8400000999999999 0.9200001 0 4 -34 -35 36 35 
15 -1e-07 -9.999999994736442e-08 -9.999999994736442e-08 1e-07 1.0000001 1.0000001 0 6 -37 42 -41 40 39 -38 
16 -9.999999994736442e-08 -1e-07 -9.999999994736442e-08 1.0000001 1e-07 1.0000001 0 6 -43 47 -46 37 45 -44 
17 -9.999999994736442e-08 -9.999999994736442e-08 0.9999999000000001 1.0000001 1.0000001 1.0000001 0 4 -38 45 49 -48 
18 -9.999999994736442e-08 0.9999999000000001 -9.999999994736442e-08 1.0000001 1.0000001 1.0000001 1 100 4 -50 39 48 -51 
19 -9.999999994736442e-08 -9.999999994736442e-08 -1e-07 1.0000001 1.0000001 1e-07 0 6 -40 54 -53 43 52 -50 
20 -9.999999997511999e-08 0.4999999 -9.999999997511999e-08 0.5000000999999999 0.5000000999999999 0.5000000999999999 0 4 -54 41 56 -55 
21 -9.999999997511999e-08 -9.999999997511999e-08 0.4999999 0.5000000999999999 0.5000000999999999 0.5000000999999999 0 4 -42 46 57 -56 
22 0.9999999000000001 -9.999999994736442e-08 -9.999999994736442e-08 1.0000001 1.0000001 1.0000001 1 100 4 -44 52 51 -49 
23 0.4999999 -9.999999997511999e-08 -9.999999997511999e-08 0.5000000999999999 0.5000000999999999 0.5000000999999999 0 4 -47 53 55 -57 
4 0.07599990000000001 0.6599999000000001 0.07599990000000001 0.2560001 0.8400000999999999 0.2560001 1 1 1 10 
5 0.2419999 0.6599999000000001 0.2419999 0.4220001 0.8400000999999999 0.4220001 1 2 1 11 
6 0.4079999 0.6599999000000001 0.4079999 0.5880000999999999 0.8400000999999999 0.5880000999999999 1 3 1 12 
7 0.5739999000000001 0.6599999000000001 0.5739999000000001 0.7540001 0.8400000999999999 0.7540001 1 4 1 13 
8 0.7399999000000002 0.6599999000000001 0.7399999000000002 0.9200001 0.8400000999999999 0.9200001 1 5 1 14 
9 -9.999999994736442e-08 -9.999999994736442e-08 -9.999999994736442e-08 1.0000001 1.0000001 1.0000001 1 10 14 -15 -16 17 18 -19 -20 -21 22 -23 -10 -11 -12 -13 -14 
$EndEntities
$Nodes
70 412 1 412
0 15 0 1
1
0.166 0.75 0.256
0 16 0 1
2
0.166 0.75 0.07600000000000001
0 17 0 1
3
0.332 0.75 0.422
0 18 0 1
4
0.332 0.75 0.242
0 19 0 1
5
0.498 0.75 0.588
0 20 0 1
6
0.498 0.75 0.408
0 21 0 1
7
0.664 0.75 0.754
0 22 0 1
8
0.664 0.75 0.5740000000000001
0 23 0 1
9
0.8300000000000001 0.75 0.92
0 24 0 1
10
0.8300000000000001 0.75 0.7400000000000001
0 25 0 1
11
0 0 0.5
0 26 0 1
12
0 0 1
0 27 0 1
13
0 1 1
0 28 0 1
14
0 1 0
0 29 0 1
15
0 0.5 0
0 30 0 1
16
0 0.5 0.5
0 31 0 1
17
0.5 0 0
0 32 0 1
18
1 0 0
0 33 0 1
19
1 0 1
0 34 0 1
20
0.5 0 0.5
0 35 0 1
21
1 1 1
0 36 0 1
22
1 1 0
0 37 0 1
23
0.5 0.5 0
0 38 0 1
24
0.5 0.5 0.5
1 23 0 2
25
26
0.2439422863405996 0.75 0.1210000000000002
0.2439422863405994 0.75 0.2110000000000001
1 26 0 2
27
28
0.4099422863405996 0.75 0.2870000000000003
0.4099422863405994 0.75 0.3770000000000002
1 29 0 2
29
30
0.5759422863405996 0.75 0.4530000000000002
0.5759422863405994 0.75 0.5430000000000001
1 32 0 2
31
32
0.7419422863405997 0.75 0.6190000000000002
0.7419422863405994 0.75 0.7090000000000002
1 35 0 2
33
34
0.9079422863405997 0.75 0.7850000000000004
0.9079422863405995 0.75 0.8750000000000002
1 37 0 2
35
36
0 0 0.6666666666666666
0 0 0.8333333333333334
1 38 0 4
37
38
39
40
0 0.2 1
0 0.4 1
0 0.6 1
0 0.8 1
1 39 0 4
41
42
43
44
0 1 0.2
0 1 0.4
0 1 0.6
0 1 0.8
1 40 0 2
45
46
0 0.6666666666666666 0
0 0.8333333333333334 0
1 41 0 2
47
48
0 0.5 0.1666666666666667
0 0.5 0.3333333333333334
1 42 0 2
49
50
0 0.1666666666666667 0.5
0 0.3333333333333334 0.5
1 43 0 2
51
52
0.6666666666666666 0 0
0.8333333333333334 0 0
1 44 0 4
53
54
55
56
1 0 0.2
1 0 0.4
1 0 0.6
1 0 0.8
1 45 0 4
57
58
59
60
0.2 0 1
0.4 0 1
0.6 0 1
0.8 0 1
1 46 0 2
61
62
0.1666666666666667 0 0.5
0.3333333333333334 0 0.5
1 47 0 2
63
64
0.5 0 0.1666666666666667
0.5 0 0.3333333333333334
1 48 0 4
65
66
67
68
0.2 1 1
0.4 1 1
0.6 1 1
0.8 1 1
1 49 0 4
69
70
71
72
1 0.2 1
1 0.4 1
1 0.6 1
1 0.8 1
1 50 0 4
73
74
75
76
0.2 1 0
0.4 1 0
0.6 1 0
0.8 1 0
1 51 0 4
77
78
79
80
1 1 0.2
1 1 0.4
1 1 0.6
1 1 0.8
1 52 0 4
81
82
83
84
1 0.2 0
1 0.4 0
1 0.6 0
1 0.8 0
1 53 0 2
85
86
0.5 0.1666666666666667 0
0.5 0.3333333333333334 0
1 54 0 2
87
88
0.1666666666666667 0.5 0
0.3333333333333334 0.5 0
1 55 0 3
89
90
91
0.5 0.5 0.1591035636686035
0.5 0.5 0.292893209276008
0.5 0.5 0.4053964302519246
1 56 0 3
92
93
94
0.1591035636686035 0.5 0.5
0.292893209276008 0.5 0.5
0.4053964302519246 0.5 0.5
1 57 0 3
95
96
97
0.5 0.1591035636686035 0.5
0.5 0.292893209276008 0.5
0.5 0.4053964302519246 0.5
2 10 0 15
98
99
100
101
102
103
104
105
106
107
108
109
110
111
112
0.1916376567120657 0.7066024129627536 0.09143888414422099
0.1279556667073595 0.6877505516762302 0.1132967279222172
0.1799106123132385 0.7880166107501916 0.08561820994690902
0.110430330174229 0.7734512879185825 0.09920143047628532
0.1917893993660388 0.7933322342307875 0.2405467930692335
0.1281321179195252 0.8123387772081072 0.2187247604350861
0.1098608551941556 0.7273095101716291 0.2325848187788856
0.1773360575813401 0.7136843940453729 0.2475639047781603
0.07600047516509931 0.750273157661682 0.1661044719290257
0.2148645612872903 0.6818410816025219 0.1333409048948603
0.1722214944985293 0.6681147389858697 0.2028252228079142
0.2151786445719598 0.8180156874342749 0.1984857996809048
0.1046856802115562 0.6855455721968322 0.179644813133447
0.1725189889918062 0.8322731599958795 0.1301025080706586
0.1046856802115562 0.8144544278031678 0.1523551868665534
2 11 0 13
113
114
115
116
117
118
119
120
121
122
123
124
125
0.386282875402248 0.6782142195217306 0.3315862861016006
0.3429290864735948 0.6991062787680172 0.258580764046376
0.2558964307136095 0.7976078291620983 0.325539245837828
0.3047465333058952 0.6642709016278407 0.3292124840000524
0.3839615242270642 0.8234846922834969 0.3320000000000002
0.2548071390230646 0.7167119447954527 0.2998570755080604
0.2519718434713915 0.7256319837189347 0.3651917752637345
0.3396308009903055 0.6978055798785299 0.4049212821090649
0.2731406240085083 0.7588371000380697 0.2644908930527936
0.3328394516007265 0.826825901330515 0.2851270205153971
0.3163792700900171 0.8355612603109969 0.3551357630320073
0.2912653966484798 0.7920359382228757 0.40036425957704
0.3719517603728724 0.8023689622487482 0.3933298347959439
2 12 0 15
126
127
128
129
130
131
132
133
134
135
136
137
138
139
140
0.5236376567120655 0.7066024129627535 0.423438884144221
0.4599556667073593 0.6877505516762302 0.4452967279222173
0.5119106123132385 0.7880166107501916 0.417618209946909
0.442430330174229 0.7734512879185828 0.4312014304762854
0.5237893993660389 0.7933322342307876 0.5725467930692335
0.4601321179195252 0.8123387772081072 0.5507247604350861
0.4418608551941556 0.7273095101716291 0.5645848187788856
0.5093360575813402 0.713684394045373 0.5795639047781603
0.4080004751650993 0.7502731576616821 0.4981044719290259
0.5468645612872901 0.6818410816025217 0.4653409048948603
0.5042214944985294 0.6681147389858699 0.5348252228079146
0.5471786445719599 0.8180156874342749 0.5304857996809045
0.4366856802115562 0.6855455721968323 0.5116448131334472
0.5045189889918064 0.8322731599958795 0.4621025080706587
0.4366856802115561 0.8144544278031678 0.4843551868665535
2 13 0 15
141
142
143
144
145
146
147
148
149
150
151
152
153
154
155
0.6896376567120657 0.7066024129627536 0.5894388841442211
0.6259556667073595 0.6877505516762302 0.6112967279222172
0.6779106123132385 0.7880166107501914 0.5836182099469089
0.6084303301742292 0.7734512879185825 0.5972014304762853
0.6897893993660388 0.7933322342307876 0.7385467930692335
0.6261321179195252 0.8123387772081072 0.7167247604350862
0.6078608551941558 0.7273095101716291 0.7305848187788857
0.6753360575813401 0.7136843940453728 0.7455639047781603
0.7128645612872903 0.6818410816025218 0.6313409048948604
0.5740004751650993 0.7502731576616822 0.6641044719290258
0.7131786445719599 0.8180156874342748 0.6964857996809048
0.6026856802115563 0.6855455721968322 0.6776448131334472
0.6705189889918065 0.8322731599958795 0.6281025080706588
0.6702214944985294 0.6681147389858697 0.7008252228079143
0.6026856802115562 0.8144544278031678 0.6503551868665534
2 14 0 15
156
157
158
159
160
161
162
163
164
165
166
167
168
169
170
0.8556376567120657 0.7066024129627535 0.7554388841442211
0.7919556667073593 0.6877505516762303 0.7772967279222174
0.8439106123132382 0.7880166107501914 0.749618209946909
0.774430330174229 0.7734512879185823 0.7632014304762854
0.8557893993660389 0.7933322342307875 0.9045467930692336
0.7921321179195253 0.8123387772081072 0.8827247604350863
0.773860855194156 0.7273095101716294 0.8965848187788861
0.8413360575813402 0.713684394045373 0.9115639047781604
0.7400004751650994 0.7502731576616822 0.830104471929026
0.8788645612872903 0.6818410816025218 0.7973409048948603
0.8362214944985296 0.6681147389858697 0.8668252228079143
0.8791786445719599 0.8180156874342749 0.8624857996809048
0.7686856802115563 0.6855455721968324 0.8436448131334474
0.8365189889918061 0.8322731599958796 0.7941025080706589
0.7686856802115561 0.8144544278031678 0.8163551868665537
2 15 0 19
171
172
173
174
175
176
177
178
179
180
181
182
183
184
185
186
187
188
189
0 0.8301325889356128 0.699583218011367
0 0.2480603455916177 0.6426102334219764
0 0.6453935488169428 0.2506282239796901
0 0.495946028866962 0.8313775442525
0 0.2885302938484784 0.8220390636054387
0 0.8278922222463884 0.5044951791294722
0 0.6742865741184465 0.6075760915602495
0 0.8302974008387883 0.2894629158594865
0 0.6867313882534068 0.8120544037026607
0 0.6629782910034276 0.4142492906437052
0 0.4031724481678323 0.6647134958147
0 0.7596507626519544 0.134854812707703
0 0.1305582203666118 0.7452928791199076
0 0.5531646873666028 0.6922541336082855
0 0.8535898384862245 0.8535898384862245
0 0.1211598774258427 0.6211598774258427
0 0.6220084679281462 0.1220084679281461
0 0.123817702843018 0.8801330552117359
0 0.8846562993648152 0.1248635457134379
2 16 0 19
190
191
192
193
194
195
196
197
198
199
200
201
202
203
204
205
206
207
208
0.699583218011367 0 0.8301325889356128
0.6426102334219765 0 0.2480603455916177
0.2506282239796901 0 0.6453935488169428
0.8313775442525 0 0.495946028866962
0.8220390636054387 0 0.2885302938484786
0.5044951791294722 0 0.8278922222463884
0.6075760915602495 0 0.6742865741184465
0.2894629158594865 0 0.8302974008387883
0.8120544037026607 0 0.6867313882534068
0.4142492906437052 0 0.6629782910034276
0.6647134958147001 0 0.4031724481678324
0.134854812707703 0 0.7596507626519545
0.7452928791199076 0 0.1305582203666118
0.6922541336082855 0 0.5531646873666028
0.8535898384862245 0 0.8535898384862245
0.6211598774258427 0 0.1211598774258427
0.1220084679281461 0 0.6220084679281462
0.880133055211736 0 0.1238177028430181
0.1248635457134379 0 0.8846562993648153
2 17 0 24
209
210
211
212
213
214
215
216
217
218
219
220
221
222
223
224
225
226
227
228
229
230
231
232
0.5 0.8267949192431123 1
0.508051984345014 0.1335085296108589 1
0.1637066120482571 0.4886650857412667 1
0.8372448438200789 0.4903320945051419 1
0.3008474738561752 0.8306455909888335 1
0.3964488584460975 0.670567603482518 1
0.603109405767754 0.6727685581568068 1
0.4999999999999999 0.480384757729337 1
0.6995295621702624 0.8303774620764862 1
0.6847650871687176 0.1880910040222622 1
0.1693821434767736 0.3001135766047713 1
0.3158900949321987 0.1745203995428644 1
0.8177657612150018 0.6858656514718189 1
0.1882451620900602 0.6836094648973963 1
0.8383692320189353 0.3057723032641348 1
0.3316223633021806 0.3853794790740473 1
0.6800969479686985 0.3888753081903471 1
0.5234115135122347 0.3176836966063222 1
0.1464101615137754 0.8535898384862245 1
0.8535898384862245 0.8535898384862245 1
0.8535898384862247 0.1464101615137752 1
0.1464101615137754 0.1464101615137754 1
0.3103030287661162 0.541798135582932 1
0.6897502242147212 0.5418767703780946 1
2 18 0 24
233
234
235
236
237
238
239
240
241
242
243
244
245
246
247
248
249
250
251
252
253
254
255
256
0.8676239569296599 1 0.4939184515869158
0.1732050807568877 1 0.5
0.5113349142587332 1 0.8362933879517428
0.5113349142587332 1 0.1637066120482572
0.1693544090111663 1 0.6991525261438247
0.329432396517482 1 0.6035511415539023
0.3272445476423867 1 0.3968994697290522
0.519615242270663 1 0.5000000000000001
0.6998864233952287 1 0.1693821434767736
0.1696231065146906 1 0.300470822890511
0.6998864233952289 1 0.8306178565232263
0.8134721856525713 1 0.3157845613177555
0.3143138707679166 1 0.1823377050509934
0.3163905351026035 1 0.8117548379099397
0.8275153573879346 1 0.6859226860940231
0.6126192851251919 1 0.3214614339239136
0.6106855812483947 1 0.6687225910033414
0.682415701508358 1 0.4768920018051226
0.8535898384862245 1 0.1464101615137753
0.1464101615137754 1 0.1464101615137754
0.1464101615137752 1 0.8535898384862247
0.8535898384862247 1 0.8535898384862247
0.458201864417068 1 0.3103030287661162
0.4582018644170681 1 0.6896969712338841
2 19 0 19
257
258
259
260
261
262
263
264
265
266
267
268
269
270
271
272
273
274
275
0.6991525261438247 0.8312466834430254 0
0.2480603455916177 0.6426102334219764 0
0.6426102334219764 0.2480603455916177 0
0.8314025897413541 0.4958911920640678 0
0.8220426415324178 0.2885224600194936 0
0.5025883455232184 0.8278086659835805 0
0.6072215676656794 0.6743815589684952 0
0.2894791962279437 0.8215292238527359 0
0.8119758625359632 0.6868304758834434 0
0.6647533300684014 0.4030852315384673 0
0.4134471313902987 0.6610549470377979 0
0.1307163707631893 0.7452079058277905 0
0.7452934754410707 0.1305569147284477 0
0.6924645157146608 0.5527040582222913 0
0.8535898384862245 0.8535898384862245 0
0.6211598774258428 0.1211598774258427 0
0.1211598774258427 0.6211598774258427 0
0.1240391133982266 0.880014092602772 0
0.8801338900613644 0.1238158749495883 0
2 20 0 11
276
277
278
279
280
281
282
283
284
285
286
0.263576526199776 0.5 0.1432311033282548
0.4119431217397689 0.5 0.3454446166036823
0.2234983614913879 0.5 0.3940746326912504
0.3947520346728001 0.5 0.2243135804138389
0.1452182424051432 0.5 0.2643582562001554
0.298878856983062 0.5 0.2992346570192035
0.3448205297525326 0.5 0.4141742161218488
0.3942899360487551 0.5 0.1053872670937877
0.1054520423703975 0.5 0.3943172450867378
0.117364331720358 0.5 0.1167252458047231
0.4259349027456031 0.5 0.4259349027456031
2 21 0 11
287
288
289
290
291
292
293
294
295
296
297
0.2634324260595365 0.1462035209042745 0.5
0.4131635241725118 0.3474579135783628 0.5
0.223524632677555 0.3941841701956013 0.5
0.3935691703113622 0.2267085938739823 0.5
0.1452239278569903 0.2648924247867947 0.5
0.2989150117032865 0.3003777253721184 0.5
0.3449732474119532 0.4145630140780328 0.5
0.3888982237788571 0.1113251754145693 0.5
0.1054543715714189 0.3943641624403086 0.5
0.1173445581934448 0.117226186685103 0.5
0.425934902745603 0.425934902745603 0.5
2 22 0 24
298
299
300
301
302
303
304
305
306
307
308
309
310
311
312
313
314
315
316
317
318
319
320
321
1 0.511334914258733 0.8362933879517428
1 0.5113349142587333 0.1637066120482572
1 0.1732050807568877 0.5
1 0.86762395692966 0.5060815484130842
1 0.1693544090111663 0.6991525261438247
1 0.3294323965174819 0.6035511415539024
1 0.3272445476423867 0.3968994697290522
1 0.5196152422706631 0.5000000000000003
1 0.6998864233952289 0.1693821434767736
1 0.1696231065146906 0.300470822890511
1 0.6998864233952286 0.8306178565232263
1 0.3163905351026034 0.8117548379099396
1 0.3143138707679166 0.1823377050509934
1 0.8134721856525715 0.6842154386822444
1 0.8275153573879346 0.3140773139059769
1 0.6106855812483947 0.3312774089966587
1 0.6126192851251918 0.6785385660760863
1 0.6824157015083581 0.5231079981948777
1 0.1464101615137753 0.8535898384862245
1 0.8535898384862246 0.8535898384862246
1 0.8535898384862247 0.1464101615137752
1 0.1464101615137754 0.1464101615137754
1 0.4582018644170682 0.3103030287661162
1 0.4582018644170677 0.6896969712338843
2 23 0 11
322
323
324
325
326
327
328
329
330
331
332
0.5 0.1432311033282548 0.263576526199776
0.5 0.3454446166036823 0.4119431217397689
0.5 0.3940746326912504 0.2234983614913879
0.5 0.2243135804138389 0.3947520346728001
0.5 0.2643582562001554 0.1452182424051432
0.5 0.2992346570192035 0.298878856983062
0.5 0.4141742161218488 0.3448205297525326
0.5 0.1053872670937877 0.3942899360487551
0.5 0.3943172450867378 0.1054520423703975
0.5 0.1167252458047231 0.117364331720358
0.5 0.4259349027456031 0.4259349027456031
3 4 0 1
333
0.166 0.75 0.166
3 5 0 1
334
0.332 0.75 0.332
3 6 0 1
335
0.4979999999999999 0.75 0.4979999999999999
3 7 0 1
336
0.664 0.75 0.664
3 8 0 1
337
0.8300000000000001 0.7499999999999999 0.8300000000000001
3 9 0 75
338
339
340
341
342
343
344
345
346
347
348
349
350
351
352
353
354
355
356
357
358
359
360
361
362
363
364
365
366
367
368
369
370
371
372
373
374
375
376
377
378
379
380
381
382
383
384
385
386
387
388
389
390
391
392
393
394
395
396
397
398
399
400
401
402
403
404
405
406
407
408
409
410
411
412
0.4083604304108777 0.5601775296536905 0.7291285814269631
0.721140586764762 0.6183200062549048 0.2964957068173976
0.6901677215414593 0.4526982151259623 0.6213285836088771
0.7396069463582222 0.3907861108571294 0.3896213174626558
0.2645727537835325 0.6653032647342237 0.5876353520429421
0.7725334422950103 0.4890077918324951 0.8011713084264903
0.8036668599738073 0.7600979692138486 0.4220899023917584
0.606293927396919 0.7764966240409186 0.2366471395270226
0.5089867879910522 0.3491448197639663 0.7267621276707136
0.5669926346044608 0.5727305489936197 0.8133294220655378
0.3700344262454979 0.7808512839387789 0.7749078346878285
0.791625198315151 0.5645773756348463 0.4836829362666427
0.1285245692684744 0.8389040308304253 0.3527535619878202
0.2510937406060783 0.3553765133653377 0.7551189470840192
0.5547326152490122 0.561605813868056 0.6194161077500792
0.7381186065344794 0.2405831896677257 0.7546408935809334
0.8278993902537579 0.5693642569473597 0.6680859971264361
0.3477141492640454 0.8587198434548268 0.1380220452582243
0.3189074615472997 0.8065356807898159 0.6087456143884401
0.527746008379308 0.6536005059346318 0.2806640878276127
0.4761492109757984 0.6818402251436594 0.7361341312064061
0.6279433211135256 0.8599487508243415 0.8649444256300212
0.7087257080290684 0.2259983864723057 0.5351029736208458
0.730307175151553 0.2210786148213628 0.2210776411239285
0.4703344650015368 0.8431945583942458 0.6949841234812718
0.1571653461379193 0.7742178359799189 0.5347178203767591
0.6377638880476519 0.6725519374293828 0.8670231585742015
0.1999014060676838 0.5594280873525752 0.7575520479291999
0.1979350734159795 0.6082092488953675 0.3067735184311938
0.1119861935949359 0.689418991779062 0.354207027248822
0.6384692184718312 0.5555601800383131 0.4526982151259623
0.4732366876196407 0.4526982151259623 0.6248111535952358
0.5338942257049466 0.9106344188112123 0.6122281867127459
0.4225295176111233 0.6120866474858617 0.6141763694146932
0.7989291906463366 0.8788358589129377 0.5582439246949507
0.4417143473658873 0.7116499124731577 0.1419691760430232
0.8140108699430205 0.7870104272695793 0.2149785370020966
0.6953145244579004 0.6954519812215197 0.4586688768962434
0.6961734770863042 0.4421587552519937 0.1973922024776996
0.3830026484485113 0.6029668302434121 0.4527810320341759
0.5076684815908898 0.8335135716097684 0.2970451537737618
0.3348972688662799 0.8316233755416986 0.485130699896312
0.8625213993353898 0.7902711589331384 0.6237905740666179
0.6283925801157965 0.8745041193430504 0.3957996721399578
0.1787399494579819 0.7585856764184734 0.7373942420395622
0.8200327098197717 0.6817521124334429 0.6547117051007458
0.6765620044858968 0.5895744890443225 0.5622357977375008
0.3720768919882033 0.1974685385784724 0.7025342117880017
0.6278258881239828 0.6946111085462369 0.3496040200186988
0.3165070073437532 0.4558025494089628 0.6507903198164233
0.2192943320066384 0.6248462695064747 0.434855358211869
0.4618628055265012 0.6017412376564176 0.3701529336419866
0.1768828569845382 0.1776314696654565 0.67317075330381
0.7110082062339145 0.6267450025175468 0.7841703100466332
0.6469711527042002 0.5392222310604868 0.7101450662068673
0.8331061316730317 0.2205118870828792 0.3859442037124474
0.5811680140805422 0.1864865598110011 0.6670270676745089
0.6302013352623235 0.3491448197639663 0.4738608628830157
0.3380863275319455 0.6200206878685135 0.1451488092814489
0.5273684608444851 0.7604787637727837 0.844022408308821
0.6157068388624766 0.4532344847969536 0.3805669941785192
0.4249009313018404 0.9179564037520873 0.4096609043759606
0.8409097374285235 0.3710482338252592 0.6812234332699308
0.6249492783403646 0.418976863605768 0.8201533522678068
0.7970242168131314 0.6807301521788754 0.5303231062913334
0.6677942983030706 0.7954934006300326 0.478696713215119
0.6303459429650328 0.6079169632172374 0.1539808393299646
0.66526565745502 0.2202106131091614 0.3744140464215903
0.1645451764215138 0.4307950664131621 0.6380611132131759
0.7055556717897228 0.9002782754659282 0.7752989066599081
0.3757437998453058 0.7136072002760032 0.669395310509687
0.3318679523892101 0.6784581171672974 0.5079553263169769
0.3607336970158815 0.5925498356130701 0.2698790443434524
0.5152165813707084 0.6464303141757667 0.6521724259754984
0.3923967187756557 0.4218240277231073 0.8380299220231533
$EndNodes
$Elements
8 1816 1 1816
2 18 2 66
1 13 253 44 
2 65 253 13 
3 41 252 14 
4 14 252 73 
5 21 254 68 
6 80 254 21 
7 76 251 22 
8 22 251 77 
9 42 242 41 
10 242 252 41 
11 43 234 42 
12 234 242 42 
13 44 237 43 
14 43 237 234 
15 44 253 237 
16 66 246 65 
17 246 253 65 
18 67 235 66 
19 235 246 66 
20 68 243 67 
21 67 243 235 
22 68 254 243 
23 73 245 74 
24 73 252 245 
25 74 236 75 
26 74 245 236 
27 75 241 76 
28 236 241 75 
29 241 251 76 
30 77 244 78 
31 77 251 244 
32 78 233 79 
33 78 244 233 
34 79 247 80 
35 233 247 79 
36 247 254 80 
37 244 250 233 
38 233 250 247 
39 237 238 234 
40 238 239 234 
41 239 242 234 
42 243 249 235 
43 235 256 246 
44 249 256 235 
45 236 248 241 
46 245 255 236 
47 236 255 248 
48 237 246 238 
49 237 253 246 
50 238 240 239 
51 238 256 240 
52 246 256 238 
53 240 255 239 
54 239 245 242 
55 239 255 245 
56 240 250 248 
57 248 255 240 
58 249 250 240 
59 240 256 249 
60 241 248 244 
61 244 251 241 
62 245 252 242 
63 247 249 243 
64 243 254 247 
65 248 250 244 
66 247 250 249 
2 22 2 66
67 18 319 53 
68 81 319 18 
69 56 316 19 
70 19 316 69 
71 72 317 21 
72 21 317 80 
73 77 318 22 
74 22 318 84 
75 53 307 54 
76 53 319 307 
77 54 300 55 
78 54 307 300 
79 55 302 56 
80 300 302 55 
81 302 316 56 
82 69 309 70 
83 69 316 309 
84 70 298 71 
85 70 309 298 
86 71 308 72 
87 298 308 71 
88 308 317 72 
89 78 312 77 
90 312 318 77 
91 79 301 78 
92 301 312 78 
93 80 311 79 
94 79 311 301 
95 80 317 311 
96 82 310 81 
97 310 319 81 
98 83 299 82 
99 299 310 82 
100 84 306 83 
101 83 306 299 
102 84 318 306 
103 298 314 308 
104 309 321 298 
105 298 321 314 
106 306 313 299 
107 299 320 310 
108 313 320 299 
109 300 303 302 
110 300 304 303 
111 300 307 304 
112 311 315 301 
113 301 315 312 
114 303 309 302 
115 309 316 302 
116 304 305 303 
117 305 321 303 
118 303 321 309 
119 304 320 305 
120 307 310 304 
121 310 320 304 
122 313 315 305 
123 305 320 313 
124 305 315 314 
125 314 321 305 
126 312 313 306 
127 306 318 312 
128 307 319 310 
129 308 314 311 
130 311 317 308 
131 314 315 311 
132 312 315 313 
3 4 4 34
133 103 106 112 333 
134 110 99 106 333 
135 108 99 110 333 
136 111 103 112 333 
137 111 100 25 333 
138 101 112 106 333 
139 110 106 104 333 
140 101 106 99 333 
141 108 105 26 333 
142 103 104 106 333 
143 110 104 108 333 
144 101 111 112 333 
145 1 102 26 333 
146 2 98 25 333 
147 107 108 26 333 
148 102 1 103 333 
149 111 25 109 333 
150 2 99 98 333 
151 1 104 103 333 
152 99 2 101 333 
153 101 100 111 333 
154 25 100 2 333 
155 104 105 108 333 
156 102 103 109 333 
157 26 105 1 333 
158 100 101 2 333 
159 107 98 99 333 
160 1 105 104 333 
161 107 99 108 333 
162 111 109 103 333 
163 107 26 25 333 
164 26 109 25 333 
165 109 26 102 333 
166 107 25 98 333 
3 5 4 30
167 3 120 124 334 
168 117 125 123 334 
169 3 125 28 334 
170 28 125 117 334 
171 114 116 113 334 
172 120 28 113 334 
173 120 116 119 334 
174 116 114 118 334 
175 4 27 122 334 
176 120 113 116 334 
177 124 123 125 334 
178 27 28 117 334 
179 120 119 124 334 
180 27 113 28 334 
181 115 122 123 334 
182 121 118 114 334 
183 27 117 122 334 
184 121 114 4 334 
185 115 121 122 334 
186 115 123 124 334 
187 27 114 113 334 
188 120 3 28 334 
189 121 4 122 334 
190 3 124 125 334 
191 117 123 122 334 
192 116 118 119 334 
193 115 118 121 334 
194 115 124 119 334 
195 119 118 115 334 
196 4 114 27 334 
3 6 4 34
197 134 140 131 335 
198 138 127 134 335 
199 127 138 136 335 
200 139 128 29 335 
201 140 139 131 335 
202 134 129 140 335 
203 132 138 134 335 
204 133 30 136 335 
205 134 127 129 335 
206 132 134 131 335 
207 132 136 138 335 
208 129 139 140 335 
209 5 130 30 335 
210 6 126 29 335 
211 136 30 135 335 
212 5 131 130 335 
213 29 137 139 335 
214 127 126 6 335 
215 5 132 131 335 
216 129 127 6 335 
217 139 129 128 335 
218 29 128 6 335 
219 133 136 132 335 
220 137 130 131 335 
221 133 5 30 335 
222 6 128 129 335 
223 126 127 135 335 
224 133 132 5 335 
225 136 135 127 335 
226 131 139 137 335 
227 29 135 30 335 
228 30 137 29 335 
229 137 30 130 335 
230 126 135 29 335 
3 7 4 34
231 146 150 155 336 
232 152 142 150 336 
233 154 142 152 336 
234 146 155 153 336 
235 31 153 143 336 
236 150 144 155 336 
237 150 147 152 336 
238 150 142 144 336 
239 146 147 150 336 
240 152 147 154 336 
241 32 154 148 336 
242 153 155 144 336 
243 7 145 32 336 
244 8 141 31 336 
245 146 145 7 336 
246 141 8 142 336 
247 32 149 154 336 
248 31 151 153 336 
249 7 147 146 336 
250 144 142 8 336 
251 143 153 144 336 
252 143 8 31 336 
253 154 147 148 336 
254 145 146 151 336 
255 144 8 143 336 
256 7 32 148 336 
257 149 141 142 336 
258 148 147 7 336 
259 149 142 154 336 
260 153 151 146 336 
261 31 149 32 336 
262 32 151 31 336 
263 32 145 151 336 
264 141 149 31 336 
3 8 4 34
265 164 170 161 337 
266 164 168 157 337 
267 166 157 168 337 
268 161 170 169 337 
269 33 169 158 337 
270 164 159 170 337 
271 164 162 168 337 
272 164 157 159 337 
273 162 164 161 337 
274 166 168 162 337 
275 166 163 34 337 
276 170 159 169 337 
277 9 160 34 337 
278 156 33 10 337 
279 160 9 161 337 
280 10 157 156 337 
281 165 166 34 337 
282 169 33 167 337 
283 161 9 162 337 
284 10 159 157 337 
285 159 158 169 337 
286 33 158 10 337 
287 163 166 162 337 
288 161 167 160 337 
289 159 10 158 337 
290 34 163 9 337 
291 156 157 165 337 
292 163 162 9 337 
293 157 166 165 337 
294 161 169 167 337 
295 165 34 33 337 
296 34 167 33 337 
297 34 160 167 337 
298 165 33 156 337 
3 9 4 1518
299 122 123 242 115 
300 115 124 123 350 
301 288 346 369 387 
302 136 371 138 377 
303 123 124 234 350 
304 126 386 135 389 
305 242 102 109 115 
306 210 385 346 394 
307 24 340 352 369 
308 118 114 116 366 
309 214 348 338 365 
310 91 368 357 389 
311 310 361 341 376 
312 341 349 340 400 
313 320 341 339 376 
314 360 393 341 400 
315 137 153 143 403 
316 122 242 109 115 
317 140 131 238 379 
318 127 135 136 389 
319 305 349 341 400 
320 340 24 352 368 
321 118 108 114 366 
322 339 341 320 349 
323 91 357 90 389 
324 260 299 339 376 
325 114 366 108 410 
326 24 136 135 389 
327 214 347 338 358 
328 116 366 114 410 
329 265 339 306 374 
330 310 341 361 393 
331 299 306 265 339 
332 260 376 339 404 
333 114 108 396 410 
334 346 353 226 394 
335 371 377 93 409 
336 320 339 299 376 
337 24 135 91 389 
338 214 338 231 365 
339 166 168 157 391 
340 310 341 320 376 
341 91 90 357 368 
342 265 260 299 339 
343 113 114 27 357 
344 214 338 348 358 
345 303 341 393 400 
346 288 292 385 387 
347 113 377 116 410 
348 340 360 341 400 
349 347 369 352 392 
350 190 218 353 394 
351 122 117 27 378 
352 131 140 238 399 
353 94 136 24 377 
354 302 360 353 400 
355 93 371 94 377 
356 341 360 340 395 
357 24 368 340 395 
358 153 372 143 403 
359 24 136 94 371 
360 94 371 136 377 
361 210 195 385 394 
362 157 165 166 343 
363 210 346 226 394 
364 108 26 118 114 
365 338 347 214 412 
366 340 394 346 395 
367 127 136 138 377 
368 338 352 347 369 
369 117 129 28 128 
370 255 117 122 378 
371 338 365 348 408 
372 136 352 24 368 
373 175 351 219 390 
374 288 385 346 387 
375 6 28 113 127 
376 114 357 113 410 
377 327 376 398 405 
378 127 6 126 389 
379 342 371 338 387 
380 223 353 343 400 
381 260 339 265 404 
382 166 71 34 163 
383 103 102 109 242 
384 340 360 394 395 
385 92 363 342 388 
386 346 394 96 395 
387 226 353 346 401 
388 123 239 117 122 
389 290 96 288 385 
390 305 341 303 400 
391 232 162 168 364 
392 357 368 90 398 
393 143 372 31 403 
394 302 198 353 360 
395 90 368 91 398 
396 6 113 28 357 
397 341 398 376 405 
398 188 208 201 390 
399 218 226 353 394 
400 135 386 368 389 
401 108 285 110 99 
402 262 373 345 378 
403 345 344 381 386 
404 188 230 208 390 
405 108 104 110 173 
406 8 141 142 375 
407 340 368 352 384 
408 302 300 198 360 
409 155 144 137 153 
410 170 169 159 151 
411 136 24 135 368 
412 320 341 310 393 
413 123 242 115 350 
414 298 166 165 343 
415 351 385 220 390 
416 346 385 226 412 
417 342 371 93 409 
418 153 144 137 143 
419 159 169 158 151 
420 302 303 360 400 
421 93 371 342 387 
422 24 352 136 371 
423 127 113 6 389 
424 91 135 24 368 
425 93 387 342 406 
426 96 346 288 385 
427 116 377 282 410 
428 131 132 5 362 
429 132 133 5 411 
430 368 386 357 389 
431 261 361 310 376 
432 237 363 356 382 
433 226 346 210 385 
434 6 357 126 389 
435 288 293 292 387 
436 184 92 177 342 
437 222 348 365 382 
438 230 175 219 390 
439 352 369 340 392 
440 339 357 90 398 
441 91 135 368 389 
442 124 234 363 379 
443 218 210 226 394 
444 113 389 377 410 
445 288 346 96 369 
446 230 188 175 390 
447 303 393 360 400 
448 198 300 193 360 
449 347 358 214 397 
450 326 324 327 361 
451 136 135 142 384 
452 262 355 373 378 
453 324 327 361 376 
454 313 339 320 349 
455 357 368 339 386 
456 339 368 357 398 
457 323 395 327 398 
458 214 222 348 365 
459 372 381 344 403 
460 338 231 365 412 
461 304 303 341 393 
462 230 197 208 390 
463 126 357 386 389 
464 288 96 97 369 
465 201 208 197 390 
466 93 342 92 406 
467 152 154 147 347 
468 152 352 142 392 
469 342 338 371 408 
470 225 343 353 401 
471 177 342 92 363 
472 299 260 310 376 
473 345 374 344 386 
474 345 374 241 381 
475 299 310 320 376 
476 148 147 154 347 
477 327 376 324 398 
478 168 232 364 391 
479 361 376 327 405 
480 286 377 24 389 
481 302 303 300 360 
482 174 211 219 351 
483 169 170 161 254 
484 299 313 306 339 
485 136 142 352 384 
486 152 142 154 392 
487 93 94 371 387 
488 113 357 6 389 
489 340 353 346 394 
490 136 352 368 384 
491 338 347 346 369 
492 340 360 353 394 
493 320 304 341 393 
494 97 24 395 398 
495 177 184 342 365 
496 238 140 379 399 
497 352 392 152 411 
498 285 108 107 99 
499 242 102 115 350 
500 327 324 328 398 
501 171 363 237 382 
502 339 374 265 404 
503 138 377 371 409 
504 6 378 128 386 
505 326 324 361 376 
506 122 27 355 378 
507 257 374 345 404 
508 223 343 309 400 
509 260 261 310 376 
510 207 275 269 361 
511 211 351 365 412 
512 299 320 313 339 
513 188 201 183 390 
514 347 346 369 392 
515 207 269 202 361 
516 138 371 132 409 
517 225 343 223 353 
518 234 356 237 363 
519 326 361 259 376 
520 338 342 365 408 
521 305 304 303 341 
522 6 28 27 357 
523 174 219 175 351 
524 28 113 27 357 
525 136 368 135 384 
526 174 211 351 365 
527 99 107 273 98 
528 340 368 341 395 
529 349 354 340 400 
530 90 376 339 398 
531 262 345 236 378 
532 116 282 377 388 
533 152 347 147 358 
534 162 168 166 221 
535 236 257 241 345 
536 97 332 24 398 
537 180 367 363 388 
538 158 169 247 151 
539 331 205 272 361 
540 319 275 207 361 
541 95 96 290 394 
542 156 10 33 380 
543 220 385 351 412 
544 338 347 352 411 
545 231 338 214 412 
546 234 350 124 363 
547 338 365 342 387 
548 290 288 292 385 
549 150 358 147 397 
550 197 220 385 390 
551 344 374 345 381 
552 368 395 24 398 
553 351 385 292 387 
554 166 157 343 391 
555 180 363 92 388 
556 306 339 313 374 
557 320 341 305 349 
558 339 344 313 374 
559 346 353 340 401 
560 24 369 352 371 
561 313 344 339 349 
562 170 161 254 407 
563 30 142 135 375 
564 110 285 108 280 
565 223 309 353 400 
566 163 34 9 72 
567 177 365 342 382 
568 357 373 89 410 
569 120 116 113 377 
570 246 348 213 382 
571 214 231 222 365 
572 369 371 94 387 
573 4 25 373 396 
574 26 25 4 396 
575 142 375 141 384 
576 235 146 359 362 
577 122 27 4 355 
578 142 135 375 384 
579 242 239 123 122 
580 279 89 396 410 
581 171 176 237 363 
582 3 379 363 409 
583 373 396 89 410 
584 340 349 341 368 
585 346 340 369 392 
586 341 376 361 405 
587 326 330 324 376 
588 181 351 172 406 
589 300 360 303 393 
590 164 170 145 359 
591 90 357 339 404 
592 104 108 105 367 
593 292 390 351 406 
594 91 286 24 389 
595 197 230 220 390 
596 342 387 365 406 
597 323 327 328 398 
598 165 343 157 354 
599 262 257 236 345 
600 262 236 355 378 
601 305 354 349 400 
602 272 259 331 361 
603 351 390 172 406 
604 72 34 9 160 
605 327 395 323 405 
606 24 94 369 371 
607 331 191 205 361 
608 234 237 176 363 
609 347 152 392 411 
610 356 363 234 379 
611 218 353 226 401 
612 255 122 355 378 
613 170 359 161 407 
614 226 385 220 412 
615 322 191 331 361 
616 359 362 146 397 
617 8 142 30 375 
618 26 4 114 396 
619 188 183 175 390 
620 122 109 4 121 
621 209 348 235 397 
622 298 343 165 354 
623 259 326 331 361 
624 292 289 291 406 
625 289 292 387 406 
626 291 390 292 406 
627 112 103 111 252 
628 214 358 348 397 
629 141 8 31 402 
630 365 382 348 408 
631 27 373 355 378 
632 341 368 339 398 
633 174 365 351 406 
634 377 389 277 410 
635 129 128 117 399 
636 223 212 309 343 
637 229 223 316 353 
638 174 351 181 406 
639 124 363 3 379 
640 211 365 231 412 
641 351 387 292 406 
642 353 360 198 394 
643 146 155 362 370 
644 164 162 217 364 
645 207 194 319 361 
646 319 261 275 361 
647 119 124 115 350 
648 152 347 358 411 
649 66 235 209 348 
650 227 253 213 382 
651 272 205 202 361 
652 320 310 304 393 
653 137 250 153 403 
654 114 27 357 373 
655 114 373 357 410 
656 112 111 274 189 
657 239 123 234 350 
658 165 157 156 354 
659 235 348 362 397 
660 241 345 257 374 
661 249 359 146 407 
662 216 214 347 412 
663 348 358 338 408 
664 212 166 298 343 
665 174 39 211 365 
666 220 226 210 385 
667 246 356 348 382 
668 209 213 66 348 
669 96 385 290 394 
670 130 150 155 362 
671 269 272 202 361 
672 270 376 260 404 
673 212 298 309 343 
674 161 170 164 359 
675 253 246 213 382 
676 6 126 357 386 
677 10 158 33 380 
678 300 193 360 393 
679 27 6 357 378 
680 95 360 200 405 
681 340 353 360 400 
682 28 117 128 378 
683 316 223 309 353 
684 316 302 204 353 
685 103 109 111 252 
686 148 347 154 391 
687 242 103 102 350 
688 327 398 395 405 
689 248 345 241 381 
690 329 95 200 405 
691 348 356 246 362 
692 342 382 365 408 
693 96 394 360 395 
694 200 360 393 405 
695 158 32 159 151 
696 244 374 344 381 
697 276 107 108 396 
698 220 210 195 385 
699 280 108 110 173 
700 5 358 150 362 
701 90 339 376 404 
702 322 331 326 361 
703 346 347 338 412 
704 156 33 165 314 
705 343 347 232 391 
706 162 164 217 161 
707 277 282 377 410 
708 341 349 339 368 
709 164 145 7 359 
710 26 4 109 121 
711 270 260 265 404 
712 346 385 96 394 
713 222 211 39 365 
714 170 254 169 407 
715 292 385 351 390 
716 213 348 222 382 
717 132 5 362 408 
718 128 29 6 386 
719 351 346 385 387 
720 314 156 380 383 
721 273 285 107 99 
722 221 162 168 232 
723 146 147 7 397 
724 119 115 1 350 
725 241 374 244 381 
726 307 319 194 361 
727 365 387 338 412 
728 27 357 345 378 
729 198 204 302 353 
730 30 142 136 135 
731 203 198 360 394 
732 29 128 381 386 
733 381 386 344 403 
734 129 6 28 128 
735 357 378 6 386 
736 146 151 153 407 
737 357 389 113 410 
738 239 242 123 350 
739 349 368 340 384 
740 211 224 351 412 
741 342 363 177 382 
742 347 364 232 391 
743 246 235 66 348 
744 204 190 229 353 
745 338 352 371 411 
746 175 172 351 390 
747 169 151 170 407 
748 121 109 102 115 
749 148 147 347 364 
750 204 229 316 353 
751 179 39 174 365 
752 329 191 322 405 
753 353 400 340 401 
754 131 132 362 408 
755 263 257 345 404 
756 247 153 151 407 
757 320 304 305 341 
758 378 381 128 386 
759 307 361 194 393 
760 322 326 327 361 
761 1 115 119 118 
762 237 356 246 382 
763 242 109 245 122 
764 343 340 400 401 
765 155 150 146 362 
766 130 144 137 155 
767 145 170 159 151 
768 33 169 311 158 
769 261 319 310 361 
770 265 374 257 404 
771 123 117 239 399 
772 66 213 246 348 
773 172 181 175 351 
774 224 220 351 412 
775 171 176 43 237 
776 310 361 307 393 
777 221 168 166 232 
778 352 369 338 371 
779 339 344 374 386 
780 194 361 191 405 
781 26 108 118 105 
782 285 110 47 280 
783 90 389 357 410 
784 211 38 174 219 
785 234 43 176 237 
786 338 387 369 412 
787 126 6 29 386 
788 269 275 261 361 
789 207 202 194 361 
790 346 392 347 401 
791 154 149 354 392 
792 55 198 302 300 
793 150 358 5 411 
794 249 146 155 153 
795 131 238 356 362 
796 136 352 142 411 
797 218 225 353 401 
798 180 177 92 363 
799 267 373 89 404 
800 28 129 117 125 
801 241 236 75 257 
802 4 355 27 373 
803 344 372 250 381 
804 322 361 327 405 
805 154 347 152 392 
806 203 200 95 360 
807 174 175 181 351 
808 218 229 190 353 
809 127 126 135 389 
810 197 220 195 385 
811 328 324 90 398 
812 107 108 285 276 
813 163 71 34 72 
814 155 153 137 370 
815 158 151 247 380 
816 27 345 357 373 
817 322 191 361 405 
818 179 222 39 365 
819 131 238 362 370 
820 297 94 293 387 
821 187 110 285 99 
822 25 355 4 373 
823 352 384 142 392 
824 249 146 235 362 
825 120 116 377 388 
826 344 349 315 402 
827 341 395 368 398 
828 150 152 133 142 
829 375 344 386 403 
830 24 286 94 377 
831 149 384 354 392 
832 341 339 376 398 
833 141 375 8 402 
834 116 282 281 410 
835 244 344 233 372 
836 198 55 193 300 
837 132 371 408 409 
838 95 290 385 394 
839 169 247 311 158 
840 28 128 6 378 
841 282 116 281 388 
842 31 372 344 403 
843 219 38 174 175 
844 347 392 352 411 
845 345 374 339 404 
846 139 128 378 381 
847 324 376 90 398 
848 297 369 94 387 
849 248 236 345 378 
850 129 117 125 399 
851 154 142 384 392 
852 25 26 107 396 
853 104 173 108 367 
854 130 5 150 362 
855 308 165 298 166 
856 193 200 360 393 
857 154 384 149 392 
858 27 345 373 378 
859 344 402 31 403 
860 108 366 105 367 
861 92 342 93 388 
862 284 366 280 367 
863 194 393 361 405 
864 366 367 284 388 
865 133 136 142 411 
866 307 310 319 361 
867 132 5 408 411 
868 212 232 166 343 
869 164 359 7 364 
870 189 112 111 252 
871 395 398 341 405 
872 347 391 343 392 
873 233 344 301 372 
874 121 122 109 115 
875 95 203 360 394 
876 25 267 373 396 
877 291 172 390 406 
878 338 371 369 387 
879 325 96 95 405 
880 262 75 236 257 
881 211 224 219 351 
882 200 191 329 405 
883 147 358 347 397 
884 103 104 1 350 
885 222 365 179 382 
886 346 387 351 412 
887 96 395 360 405 
888 153 250 137 370 
889 295 172 291 406 
890 339 374 345 386 
891 127 138 120 377 
892 338 358 347 411 
893 127 134 120 138 
894 131 356 238 379 
895 89 373 283 396 
896 127 377 113 389 
897 198 196 353 394 
898 153 247 151 372 
899 238 246 356 362 
900 93 377 388 409 
901 288 97 297 369 
902 340 392 346 401 
903 47 110 285 187 
904 150 133 152 411 
905 118 105 108 366 
906 157 154 383 391 
907 368 375 135 384 
908 152 142 352 411 
909 146 7 145 359 
910 167 169 161 254 
911 150 362 358 397 
912 89 330 266 376 
913 120 113 127 377 
914 200 194 191 405 
915 215 364 347 397 
916 132 371 133 411 
917 96 360 95 405 
918 137 143 144 403 
919 289 292 293 387 
920 306 299 265 83 
921 276 366 281 410 
922 93 388 342 409 
923 321 354 305 400 
924 262 263 345 373 
925 212 223 309 70 
926 159 10 32 158 
927 89 376 266 404 
928 263 345 373 404 
929 139 131 137 370 
930 227 179 185 382 
931 225 223 218 353 
932 150 5 133 411 
933 214 222 213 348 
934 190 353 196 394 
935 235 362 359 397 
936 100 25 264 111 
937 194 200 393 405 
938 110 47 280 173 
939 260 82 299 310 
940 157 354 343 391 
941 165 156 314 354 
942 332 91 24 398 
943 27 28 6 378 
944 259 272 269 361 
945 205 191 202 361 
946 339 349 344 375 
947 95 294 199 385 
948 140 134 131 379 
949 128 378 117 399 
950 114 396 373 410 
951 152 133 142 411 
952 356 363 342 382 
953 298 212 71 166 
954 89 373 357 404 
955 82 260 261 310 
956 309 212 70 298 
957 302 353 309 400 
958 116 366 281 388 
959 298 165 314 354 
960 227 213 222 382 
961 316 309 302 353 
962 198 203 196 394 
963 346 369 387 412 
964 231 214 216 412 
965 287 192 294 385 
966 248 241 244 381 
967 351 387 365 412 
968 219 224 220 351 
969 343 400 353 401 
970 309 343 298 400 
971 363 379 356 409 
972 154 354 391 392 
973 90 376 89 404 
974 134 132 356 409 
975 152 147 150 358 
976 98 2 25 264 
977 287 385 292 390 
978 5 130 131 362 
979 160 161 228 167 
980 211 231 224 412 
981 308 71 34 166 
982 346 338 369 412 
983 163 166 71 221 
984 245 109 111 355 
985 274 101 111 112 
986 118 1 105 367 
987 83 299 265 260 
988 32 151 158 380 
989 249 235 146 359 
990 287 290 292 385 
991 243 161 359 407 
992 199 95 385 394 
993 227 222 179 382 
994 131 356 132 408 
995 146 362 249 370 
996 124 350 119 363 
997 271 241 257 374 
998 95 360 96 394 
999 214 348 209 397 
1000 346 401 347 412 
1001 239 255 117 122 
1002 217 243 161 359 
1003 301 233 312 344 
1004 120 138 134 409 
1005 138 120 377 409 
1006 223 225 212 343 
1007 203 198 193 360 
1008 276 108 280 366 
1009 358 362 5 408 
1010 148 364 347 391 
1011 276 285 107 258 
1012 235 348 246 362 
1013 97 395 332 398 
1014 262 263 257 345 
1015 301 372 344 380 
1016 119 363 367 388 
1017 4 373 114 396 
1018 107 258 25 396 
1019 215 347 214 397 
1020 125 129 140 134 
1021 344 372 31 402 
1022 280 108 173 366 
1023 96 325 395 405 
1024 357 373 345 404 
1025 139 381 378 399 
1026 136 371 352 411 
1027 232 347 343 401 
1028 253 227 185 382 
1029 177 184 365 382 
1030 238 356 234 379 
1031 210 218 59 190 
1032 190 198 196 353 
1033 285 273 107 258 
1034 342 363 356 409 
1035 195 210 59 190 
1036 95 290 294 385 
1037 171 237 253 382 
1038 250 344 244 372 
1039 342 388 363 409 
1040 263 265 257 404 
1041 263 267 89 404 
1042 169 247 151 407 
1043 283 89 267 373 
1044 90 324 89 376 
1045 131 238 240 399 
1046 123 379 125 399 
1047 252 103 109 242 
1048 340 354 349 384 
1049 32 158 10 380 
1050 173 366 108 367 
1051 139 378 128 399 
1052 171 177 363 382 
1053 145 359 170 407 
1054 229 218 223 353 
1055 263 373 267 404 
1056 270 89 266 404 
1057 147 347 364 397 
1058 271 251 241 374 
1059 58 220 210 195 
1060 153 151 31 372 
1061 351 385 346 412 
1062 263 89 23 404 
1063 1 115 102 350 
1064 98 107 273 258 
1065 154 142 149 384 
1066 255 355 236 378 
1067 8 402 375 403 
1068 234 238 237 356 
1069 190 196 195 394 
1070 312 233 244 344 
1071 187 47 110 173 
1072 231 211 222 365 
1073 260 266 261 376 
1074 171 253 185 382 
1075 248 236 241 345 
1076 149 354 384 402 
1077 181 172 295 406 
1078 358 408 5 411 
1079 160 72 34 167 
1080 129 139 128 399 
1081 200 203 193 360 
1082 199 196 95 394 
1083 95 196 203 394 
1084 162 164 168 364 
1085 354 384 340 392 
1086 118 119 1 367 
1087 349 354 315 402 
1088 142 133 30 136 
1089 148 32 157 154 
1090 112 274 101 189 
1091 4 109 122 355 
1092 313 320 305 349 
1093 103 242 178 350 
1094 312 313 344 374 
1095 98 25 107 258 
1096 217 243 68 161 
1097 164 217 359 364 
1098 109 245 122 355 
1099 267 25 258 396 
1100 253 237 246 382 
1101 195 199 385 394 
1102 90 89 357 404 
1103 157 154 32 383 
1104 244 344 250 381 
1105 277 389 90 410 
1106 29 30 135 375 
1107 148 7 147 364 
1108 339 368 349 375 
1109 91 368 24 398 
1110 153 250 372 403 
1111 143 153 31 372 
1112 154 354 149 383 
1113 304 300 303 393 
1114 132 408 371 411 
1115 125 140 129 399 
1116 33 169 167 317 
1117 173 280 366 367 
1118 340 343 392 401 
1119 112 106 103 178 
1120 315 344 313 349 
1121 298 343 321 400 
1122 113 28 120 127 
1123 224 226 220 412 
1124 119 350 1 367 
1125 220 58 197 195 
1126 237 238 246 356 
1127 264 355 25 373 
1128 248 378 345 381 
1129 193 194 200 393 
1130 190 204 198 353 
1131 104 1 350 367 
1132 298 321 343 354 
1133 4 25 26 355 
1134 245 111 73 355 
1135 347 401 216 412 
1136 10 380 156 383 
1137 135 375 368 386 
1138 283 373 267 396 
1139 217 9 162 161 
1140 238 131 240 370 
1141 191 194 202 361 
1142 261 259 269 361 
1143 137 381 250 403 
1144 89 330 23 266 
1145 134 138 132 409 
1146 169 167 317 254 
1147 343 354 321 400 
1148 95 20 329 200 
1149 146 7 359 397 
1150 245 255 122 355 
1151 146 249 155 370 
1152 240 137 139 381 
1153 111 109 25 355 
1154 221 163 9 72 
1155 218 226 225 401 
1156 48 284 280 367 
1157 209 235 359 397 
1158 123 125 117 399 
1159 354 383 315 402 
1160 138 136 132 371 
1161 250 381 372 403 
1162 311 158 247 380 
1163 264 274 100 111 
1164 197 385 192 390 
1165 287 192 385 390 
1166 179 365 184 382 
1167 344 339 375 386 
1168 245 111 109 252 
1169 45 99 101 182 
1170 312 344 244 374 
1171 28 129 134 127 
1172 249 146 153 407 
1173 345 386 357 404 
1174 232 215 162 364 
1175 325 327 323 405 
1176 263 267 23 89 
1177 4 26 109 355 
1178 134 132 131 356 
1179 294 192 199 385 
1180 194 193 54 393 
1181 134 379 3 409 
1182 342 408 371 409 
1183 300 54 193 393 
1184 164 170 159 145 
1185 155 130 144 150 
1186 194 54 307 393 
1187 256 246 238 362 
1188 133 132 136 371 
1189 214 213 209 348 
1190 270 266 376 404 
1191 276 258 107 396 
1192 161 164 217 359 
1193 7 147 364 397 
1194 145 170 151 407 
1195 271 265 306 374 
1196 325 323 395 405 
1197 290 287 294 385 
1198 234 176 350 363 
1199 264 73 111 355 
1200 149 32 154 383 
1201 79 372 301 380 
1202 354 383 154 391 
1203 174 184 365 406 
1204 271 306 318 374 
1205 150 152 358 411 
1206 180 16 92 177 
1207 20 95 199 196 
1208 264 2 25 100 
1209 3 28 129 134 
1210 28 27 117 378 
1211 323 96 325 395 
1212 165 308 34 166 
1213 291 287 292 390 
1214 164 7 148 364 
1215 267 264 25 373 
1216 89 324 330 376 
1217 132 408 356 409 
1218 361 393 341 405 
1219 340 384 352 392 
1220 228 72 9 160 
1221 347 392 343 401 
1222 298 71 308 166 
1223 278 366 284 388 
1224 226 401 346 412 
1225 249 235 359 407 
1226 157 164 159 148 
1227 133 144 150 142 
1228 28 3 120 134 
1229 242 41 103 178 
1230 286 277 377 389 
1231 93 293 94 387 
1232 276 108 285 280 
1233 314 354 156 383 
1234 329 325 95 405 
1235 27 114 4 373 
1236 343 354 340 392 
1237 279 89 283 396 
1238 116 281 366 410 
1239 134 120 28 127 
1240 144 143 8 403 
1241 184 92 16 177 
1242 20 95 196 203 
1243 105 366 118 367 
1244 368 375 339 386 
1245 131 362 356 408 
1246 23 270 89 266 
1247 20 95 203 200 
1248 29 386 381 403 
1249 184 16 92 406 
1250 157 383 354 391 
1251 300 307 54 393 
1252 148 154 157 391 
1253 116 119 366 388 
1254 345 378 357 386 
1255 153 249 247 372 
1256 321 305 303 400 
1257 118 116 119 366 
1258 151 372 247 380 
1259 356 382 342 408 
1260 119 367 366 388 
1261 227 40 185 179 
1262 156 354 157 383 
1263 270 23 89 404 
1264 329 64 322 191 
1265 167 161 228 254 
1266 118 26 121 114 
1267 215 216 214 347 
1268 345 381 378 386 
1269 243 254 161 407 
1270 2 98 258 264 
1271 137 130 155 370 
1272 326 86 330 259 
1273 149 384 141 402 
1274 295 50 291 172 
1275 243 68 161 254 
1276 101 99 106 182 
1277 252 41 103 242 
1278 119 363 350 367 
1279 130 362 155 370 
1280 153 250 249 372 
1281 7 364 359 397 
1282 53 207 194 319 
1283 188 175 37 230 
1284 340 354 343 400 
1285 232 216 347 401 
1286 201 197 192 390 
1287 141 384 375 402 
1288 104 106 110 173 
1289 241 76 271 257 
1290 235 246 256 362 
1291 154 391 347 392 
1292 45 99 268 101 
1293 253 171 44 237 
1294 137 29 139 381 
1295 372 380 31 402 
1296 31 372 151 380 
1297 247 249 153 407 
1298 357 386 339 404 
1299 197 195 199 385 
1300 78 301 233 312 
1301 310 307 304 393 
1302 344 375 349 402 
1303 40 227 222 179 
1304 344 315 380 402 
1305 125 3 129 134 
1306 140 139 129 399 
1307 250 244 233 372 
1308 267 283 23 89 
1309 212 71 166 221 
1310 343 391 354 392 
1311 239 242 245 122 
1312 119 118 366 367 
1313 31 151 32 380 
1314 149 383 354 402 
1315 345 339 386 404 
1316 245 73 111 252 
1317 177 179 184 382 
1318 360 395 341 405 
1319 325 322 327 405 
1320 171 253 44 185 
1321 139 240 131 370 
1322 180 92 16 284 
1323 350 363 176 367 
1324 76 271 251 241 
1325 133 371 136 411 
1326 174 181 184 406 
1327 322 325 329 405 
1328 309 298 321 400 
1329 293 93 289 387 
1330 175 183 172 390 
1331 239 234 242 350 
1332 134 356 379 409 
1333 261 319 275 81 
1334 8 375 30 403 
1335 282 93 377 388 
1336 233 78 312 244 
1337 287 296 192 390 
1338 296 291 172 390 
1339 175 219 37 230 
1340 312 251 318 374 
1341 289 387 93 406 
1342 206 192 296 390 
1343 168 364 164 391 
1344 128 139 29 381 
1345 176 171 177 363 
1346 50 295 181 172 
1347 266 330 86 259 
1348 291 289 295 406 
1349 274 101 100 111 
1350 64 329 200 191 
1351 234 176 42 350 
1352 166 212 221 232 
1353 296 172 186 390 
1354 48 280 173 367 
1355 30 137 144 403 
1356 53 194 307 319 
1357 317 167 228 254 
1358 159 164 7 148 
1359 5 144 150 133 
1360 255 239 117 399 
1361 195 196 199 394 
1362 146 359 145 407 
1363 133 30 144 142 
1364 159 32 157 148 
1365 215 359 364 397 
1366 140 125 134 379 
1367 338 371 358 411 
1368 24 94 297 369 
1369 277 282 286 377 
1370 80 317 169 311 
1371 139 240 381 399 
1372 312 244 251 374 
1373 360 341 393 405 
1374 315 301 344 380 
1375 247 80 169 311 
1376 5 144 130 150 
1377 159 7 164 145 
1378 25 109 26 355 
1379 315 349 305 354 
1380 106 104 178 173 
1381 276 87 285 258 
1382 247 372 79 380 
1383 287 296 61 192 
1384 354 349 384 402 
1385 322 63 331 191 
1386 125 379 140 399 
1387 164 364 148 391 
1388 1 102 103 350 
1389 206 183 201 390 
1390 294 287 62 192 
1391 331 85 326 259 
1392 232 343 225 401 
1393 206 61 296 192 
1394 20 95 294 199 
1395 312 306 313 374 
1396 344 380 372 402 
1397 71 163 221 72 
1398 117 378 255 399 
1399 33 169 317 311 
1400 230 57 208 197 
1401 112 182 106 178 
1402 296 291 49 172 
1403 106 104 103 178 
1404 215 217 162 364 
1405 331 85 259 272 
1406 273 285 87 258 
1407 205 331 63 191 
1408 46 45 101 182 
1409 265 84 271 306 
1410 49 186 296 172 
1411 358 371 338 408 
1412 60 190 218 229 
1413 318 271 84 306 
1414 60 204 190 229 
1415 295 92 16 406 
1416 29 381 137 403 
1417 332 395 323 398 
1418 206 186 183 390 
1419 198 302 204 56 
1420 302 316 204 56 
1421 124 125 123 379 
1422 258 98 25 264 
1423 120 388 377 409 
1424 316 229 69 223 
1425 282 281 278 388 
1426 246 65 253 213 
1427 65 227 253 213 
1428 126 29 135 386 
1429 275 207 269 52 
1430 232 347 215 364 
1431 192 197 199 385 
1432 365 387 351 406 
1433 261 310 319 81 
1434 29 375 135 386 
1435 202 269 207 52 
1436 155 249 153 370 
1437 309 316 69 223 
1438 256 362 238 370 
1439 278 281 366 388 
1440 134 356 131 379 
1441 255 239 245 122 
1442 29 375 386 403 
1443 285 273 187 99 
1444 277 281 282 410 
1445 332 323 328 398 
1446 348 382 356 408 
1447 276 280 281 366 
1448 314 315 354 383 
1449 123 239 379 399 
1450 225 232 212 343 
1451 236 74 262 355 
1452 101 268 45 46 
1453 271 318 251 374 
1454 67 243 217 359 
1455 92 289 93 406 
1456 144 8 30 403 
1457 160 228 72 167 
1458 264 262 355 373 
1459 323 332 97 395 
1460 97 24 297 369 
1461 271 257 265 374 
1462 375 402 344 403 
1463 131 362 130 370 
1464 189 111 274 252 
1465 348 358 362 397 
1466 161 228 9 160 
1467 258 25 267 264 
1468 67 209 235 359 
1469 109 245 252 242 
1470 349 375 368 384 
1471 29 30 375 403 
1472 120 119 116 388 
1473 278 284 92 388 
1474 182 110 106 173 
1475 244 241 251 374 
1476 232 221 162 215 
1477 298 314 321 354 
1478 173 104 178 367 
1479 234 42 242 350 
1480 226 216 401 412 
1481 180 350 176 367 
1482 3 120 134 409 
1483 36 188 201 183 
1484 79 233 301 372 
1485 26 4 121 114 
1486 199 294 62 192 
1487 36 188 208 201 
1488 315 312 313 344 
1489 321 314 305 354 
1490 243 359 235 407 
1491 178 350 180 367 
1492 238 379 239 399 
1493 270 266 260 376 
1494 183 201 35 206 
1495 239 238 234 379 
1496 162 166 163 221 
1497 111 25 264 355 
1498 215 232 216 347 
1499 228 217 68 161 
1500 312 251 77 318 
1501 274 264 73 111 
1502 3 134 125 379 
1503 112 101 182 189 
1504 295 16 181 406 
1505 249 235 256 362 
1506 33 308 165 314 
1507 371 408 358 411 
1508 215 209 359 397 
1509 315 313 305 349 
1510 298 165 308 314 
1511 202 272 51 205 
1512 315 301 312 344 
1513 180 284 48 367 
1514 206 296 186 390 
1515 186 183 35 206 
1516 153 249 250 370 
1517 42 178 242 350 
1518 184 179 174 365 
1519 184 181 16 406 
1520 251 244 312 77 
1521 279 396 276 410 
1522 272 202 51 269 
1523 356 408 342 409 
1524 1 104 105 367 
1525 311 79 301 380 
1526 103 178 104 350 
1527 311 33 158 380 
1528 145 151 146 407 
1529 129 28 3 125 
1530 245 236 255 355 
1531 39 40 222 179 
1532 88 258 276 396 
1533 76 241 75 257 
1534 68 228 161 254 
1535 34 71 308 72 
1536 303 302 309 400 
1537 43 171 237 44 
1538 243 67 217 68 
1539 215 359 217 364 
1540 149 142 141 384 
1541 144 5 30 133 
1542 7 32 159 148 
1543 221 9 162 217 
1544 279 277 90 410 
1545 232 225 216 401 
1546 30 5 144 130 
1547 32 7 159 145 
1548 37 38 219 175 
1549 178 104 350 367 
1550 264 268 2 100 
1551 180 176 363 367 
1552 264 267 262 373 
1553 307 54 194 53 
1554 254 80 169 247 
1555 315 383 380 402 
1556 215 221 162 217 
1557 240 137 250 370 
1558 80 169 317 254 
1559 256 249 362 370 
1560 265 84 306 83 
1561 218 59 190 60 
1562 43 42 234 176 
1563 240 250 137 381 
1564 67 209 66 235 
1565 245 73 74 355 
1566 248 381 240 399 
1567 310 261 82 81 
1568 270 265 263 404 
1569 74 73 264 355 
1570 302 198 55 56 
1571 88 283 267 396 
1572 315 305 314 354 
1573 248 255 236 378 
1574 139 137 240 370 
1575 65 246 66 213 
1576 247 79 311 380 
1577 296 287 291 390 
1578 177 171 179 382 
1579 137 131 130 370 
1580 157 10 156 383 
1581 314 380 315 383 
1582 94 282 93 377 
1583 178 242 41 42 
1584 69 309 223 70 
1585 230 57 197 220 
1586 46 101 274 189 
1587 249 243 235 407 
1588 54 193 55 300 
1589 254 247 169 407 
1590 97 96 323 395 
1591 71 70 212 298 
1592 45 187 99 182 
1593 75 236 74 262 
1594 356 362 348 408 
1595 67 217 209 359 
1596 88 267 258 396 
1597 375 384 349 402 
1598 348 362 358 408 
1599 88 276 283 396 
1600 215 214 209 397 
1601 209 217 215 359 
1602 185 253 13 227 
1603 19 316 204 229 
1604 228 21 317 254 
1605 318 251 22 271 
1606 42 176 178 350 
1607 73 274 111 252 
1608 279 276 281 410 
1609 114 113 116 410 
1610 205 17 331 272 
1611 180 178 176 350 
1612 11 296 186 206 
1613 273 15 285 187 
1614 32 380 10 383 
1615 180 48 173 367 
1616 39 38 174 211 
1617 299 83 82 260 
1618 249 250 247 372 
1619 206 201 192 390 
1620 236 245 74 355 
1621 270 263 23 404 
1622 157 32 10 383 
1623 149 141 31 402 
1624 90 91 328 398 
1625 264 262 74 355 
1626 238 239 240 399 
1627 1 121 118 105 
1628 228 9 217 161 
1629 86 326 85 259 
1630 322 64 63 191 
1631 49 291 50 172 
1632 276 88 87 258 
1633 262 267 263 373 
1634 287 61 62 192 
1635 178 182 106 173 
1636 258 268 2 264 
1637 282 278 93 388 
1638 30 29 137 403 
1639 235 243 67 359 
1640 280 47 48 173 
1641 177 180 176 363 
1642 308 33 311 314 
1643 79 247 233 372 
1644 182 112 189 178 
1645 185 179 171 382 
1646 277 91 90 389 
1647 319 18 207 275 
1648 278 92 93 388 
1649 250 233 247 372 
1650 72 9 221 228 
1651 12 188 230 208 
1652 189 274 14 252 
1653 300 304 307 393 
1654 186 172 183 390 
1655 201 35 36 183 
1656 311 247 80 79 
1657 78 312 244 77 
1658 255 240 239 399 
1659 224 231 216 412 
1660 187 273 45 99 
1661 102 1 26 121 
1662 255 248 240 399 
1663 101 46 182 189 
1664 268 264 274 100 
1665 182 106 101 112 
1666 34 33 167 317 
1667 31 380 32 383 
1668 129 28 6 127 
1669 286 91 277 389 
1670 58 197 57 220 
1671 101 2 268 100 
1672 167 72 34 317 
1673 94 286 282 377 
1674 268 99 2 101 
1675 225 226 216 401 
1676 330 86 23 266 
1677 16 50 295 181 
1678 329 20 64 200 
1679 269 202 51 52 
1680 271 251 22 76 
1681 228 68 21 254 
1682 44 253 13 185 
1683 268 274 101 100 
1684 121 1 26 105 
1685 205 51 17 272 
1686 15 273 45 187 
1687 186 35 11 206 
1688 278 280 284 366 
1689 238 240 256 370 
1690 173 178 180 367 
1691 58 210 59 195 
1692 273 45 99 268 
1693 328 91 332 398 
1694 276 279 283 396 
1695 248 244 250 381 
1696 303 309 321 400 
1697 312 318 306 374 
1698 311 315 314 380 
1699 331 63 17 205 
1700 228 21 72 317 
1701 278 281 280 366 
1702 273 285 15 87 
1703 182 187 110 173 
1704 85 331 17 272 
1705 47 285 15 187 
1706 101 274 268 46 
1707 11 61 296 206 
1708 167 228 72 317 
1709 249 247 243 407 
1710 296 11 186 49 
1711 31 380 383 402 
1712 204 316 19 56 
1713 22 318 271 84 
1714 80 317 21 254 
1715 77 251 22 318 
1716 37 12 188 230 
1717 18 207 53 319 
1718 60 19 204 229 
1719 13 40 185 227 
1720 19 316 229 69 
1721 227 253 13 65 
1722 23 88 283 267 
1723 189 14 41 252 
1724 216 226 224 412 
1725 294 62 20 199 
1726 180 16 48 284 
1727 102 26 109 121 
1728 217 221 9 228 
1729 30 8 144 142 
1730 157 10 32 159 
1731 149 31 383 402 
1732 57 12 230 208 
1733 118 121 26 105 
1734 275 319 18 81 
1735 274 73 14 252 
1736 301 315 311 380 
1737 275 18 207 52 
1738 188 12 36 208 
1739 46 274 14 189 
1740 72 308 34 317 
1741 295 289 92 406 
1742 32 149 31 383 
1743 3 125 124 379 
1744 317 308 33 311 
1745 233 79 301 78 
1746 256 240 249 370 
1747 33 34 308 317 
1748 144 137 30 130 
1749 145 159 32 151 
1750 254 243 247 407 
1751 281 277 279 410 
1752 240 250 249 370 
1753 308 34 33 165 
1754 248 250 240 381 
1755 162 163 9 221 
1756 123 379 234 124 
1757 234 379 123 239 
1758 389 136 377 24 
1759 389 377 136 127 
1760 219 390 220 230 
1761 220 390 219 351 
1762 340 369 395 346 
1763 96 395 369 346 
1764 96 369 395 97 
1765 410 108 276 366 
1766 410 276 108 396 
1767 391 166 232 343 
1768 391 232 166 168 
1769 406 342 184 365 
1770 406 184 342 92 
1771 396 26 108 114 
1772 396 108 26 107 
1773 31 403 8 143 
1774 8 403 31 402 
1775 388 180 284 92 
1776 388 284 180 367 
1777 210 190 394 218 
1778 394 190 210 195 
1779 259 330 376 266 
1780 259 376 330 326 
1781 399 131 139 240 
1782 399 139 131 140 
1783 397 150 146 147 
1784 397 146 150 362 
1785 410 89 90 279 
1786 410 90 89 357 
1787 259 376 261 266 
1788 261 376 259 361 
1789 387 297 288 293 
1790 387 288 297 369 
1791 33 380 314 156 
1792 314 380 33 311 
1793 164 391 157 168 
1794 157 391 164 148 
1795 112 178 41 189 
1796 41 178 112 103 
1797 41 252 112 189 
1798 112 252 41 103 
1799 121 1 115 102 
1800 121 115 1 118 
1801 258 2 273 98 
1802 258 273 2 268 
1803 99 273 2 98 
1804 99 2 273 268 
1805 110 182 99 187 
1806 99 182 110 106 
1807 399 248 378 255 
1808 399 378 248 381 
1809 369 395 24 340 
1810 369 24 395 97 
1811 388 124 119 363 
1812 388 119 124 120 
1813 409 3 388 363 
1814 409 388 3 120 
1815 3 124 388 363 
1816 3 388 124 120 
$EndElements
