$MeshFormat
2.2 0 8
$EndMeshFormat
$PhysicalNames
9
2 3 "fluid_structure_interface"
2 4 "Boundary_Z_Min"
2 5 "Boundary_Z_Max"
2 6 "Boundary_X_Min"
2 7 "Boundary_X_Max"
2 8 "Boundary_Y_Min"
2 9 "Boundary_Y_Max"
3 1 "Steel"
3 2 "Fluid"
$EndPhysicalNames
$Nodes
196
1 0 0 0.003
2 0 0 0
3 0 0.139 0.003
4 0 0.139 0
5 0.136 0 0.003
6 0.136 0 0
7 0.136 0.139 0.003
8 0.136 0.139 0
9 0 0 -0.01
10 0 0.139 -0.01
11 0.136 0 -0.01
12 0.136 0.139 -0.01
13 0 0 0.02
14 0 0.139 0.02
15 0.136 0 0.02
16 0.136 0.139 0.02
17 0 0.02780000000000006 0.003
18 0 0.05560000000000005 0.003
19 0 0.08340000000000003 0.003
20 0 0.1112 0.003
21 0 0.02780000000000006 0
22 0 0.05560000000000005 0
23 0 0.08340000000000003 0
24 0 0.1112 0
25 0.136 0.02780000000000006 0.003
26 0.136 0.05560000000000005 0.003
27 0.136 0.08340000000000003 0.003
28 0.136 0.1112 0.003
29 0.136 0.02780000000000006 0
30 0.136 0.05560000000000005 0
31 0.136 0.08340000000000003 0
32 0.136 0.1112 0
33 0.02719999999999999 0 0
34 0.0544 0 0
35 0.08160000000000002 0 0
36 0.1088 0 0
37 0.02719999999999999 0 0.003
38 0.0544 0 0.003
39 0.08160000000000002 0 0.003
40 0.1088 0 0.003
41 0.02719999999999999 0.139 0
42 0.0544 0.139 0
43 0.08160000000000002 0.139 0
44 0.1088 0.139 0
45 0.02719999999999999 0.139 0.003
46 0.0544 0.139 0.003
47 0.08160000000000002 0.139 0.003
48 0.1088 0.139 0.003
49 0 0.02780000000000006 -0.01
50 0 0.05560000000000005 -0.01
51 0 0.08340000000000003 -0.01
52 0 0.1112 -0.01
53 0.02719999999999999 0 -0.01
54 0.0544 0 -0.01
55 0.08160000000000002 0 -0.01
56 0.1088 0 -0.01
57 0.02719999999999999 0.139 -0.01
58 0.0544 0.139 -0.01
59 0.08160000000000002 0.139 -0.01
60 0.1088 0.139 -0.01
61 0.136 0.02780000000000006 -0.01
62 0.136 0.05560000000000005 -0.01
63 0.136 0.08340000000000003 -0.01
64 0.136 0.1112 -0.01
65 0 0.02780000000000006 0.02
66 0 0.05560000000000005 0.02
67 0 0.08340000000000003 0.02
68 0 0.1112 0.02
69 0.02719999999999999 0 0.02
70 0.0544 0 0.02
71 0.08160000000000002 0 0.02
72 0.1088 0 0.02
73 0.02719999999999999 0.139 0.02
74 0.0544 0.139 0.02
75 0.08160000000000002 0.139 0.02
76 0.1088 0.139 0.02
77 0.136 0.02780000000000006 0.02
78 0.136 0.05560000000000005 0.02
79 0.136 0.08340000000000003 0.02
80 0.136 0.1112 0.02
81 0.06931284296420202 0.1167532564755581 0
82 0.06931327798972482 0.02227501703597647 0
83 0.1115607845093405 0.07254945022996179 0
84 0.02405384029901989 0.0695521477672485 0
85 0.0228959810875789 0.09709240638571696 0
86 0.04519836578486926 0.08414596364367448 0
87 0.04493331395823148 0.05506554396404596 0
88 0.07064927223425441 0.06938205277234004 0
89 0.02255454631924228 0.04191162494507451 0
90 0.1124195044837886 0.09922179950525689 0
91 0.1095009092758781 0.0440925011986681 0
92 0.04301731057648676 0.02601744914178374 0
93 0.09402453330192205 0.02287723496837799 0
94 0.0431265124991491 0.1130339972447819 0
95 0.09421844624876793 0.1165373172232761 0
96 0.08294488849679024 0.04410780635300516 0
97 0.08748061900053011 0.0907016316163413 0
98 0.02043084591938316 0.02057712432184746 0
99 0.1154329365758275 0.02049399248234578 0
100 0.02056706342417242 0.1185060075176543 0
101 0.1153659855394779 0.1185249196707223 0
102 0.09189214833013643 0.06372719841712661 0
103 0.06224634101583434 0.04268523173133205 0
104 0.06315352249660097 0.09480338035053917 0
105 0.06667703123327329 0.1167529699899589 0.003
106 0.06669106690433806 0.02227065575522721 0.003
107 0.02443829727658881 0.07252899942712016 0.003
108 0.1119384189693109 0.06956014844733066 0.003
109 0.1130814641295948 0.09711237162975384 0.003
110 0.09078928423182109 0.08415117790244693 0.003
111 0.09106178611593432 0.05506521367817924 0.003
112 0.06534336658012561 0.06937181290090166 0.003
113 0.1134439472955356 0.04191224806074349 0.003
114 0.02356463214309992 0.09921173461091096 0.003
115 0.02651156242082836 0.04408137864221339 0.003
116 0.09298211948978222 0.02601659883199079 0.003
117 0.04200333286722283 0.02286114642812091 0.003
118 0.04175693327762117 0.1165239328444197 0.003
119 0.09285669332045594 0.1130407149771521 0.003
120 0.05306013604854276 0.04409827099003251 0.003
121 0.0485093051177538 0.09069232938540163 0.003
122 0.115568335798469 0.02057673239337101 0.003
123 0.0205670634241726 0.1185060075176543 0.003
124 0.020634014460522 0.02047508032927777 0.003
125 0.1153659855394779 0.1185249196707223 0.003
126 0.04410178720454332 0.06371329027731734 0.003
127 0.07375270130310006 0.04268243832666666 0.003
128 0.07283513609668595 0.09480180103117225 0.003
129 0.06931284296420202 0.1167532564755581 -0.01
130 0.06931327798972482 0.02227501703597647 -0.01
131 0.1115607845093405 0.07254945022996179 -0.01
132 0.02405384029901989 0.0695521477672485 -0.01
133 0.0228959810875789 0.09709240638571696 -0.01
134 0.04519836578486926 0.08414596364367448 -0.01
135 0.04493331395823148 0.05506554396404596 -0.01
136 0.07064927223425441 0.06938205277234004 -0.01
137 0.02255454631924228 0.04191162494507451 -0.01
138 0.1124195044837886 0.09922179950525689 -0.01
139 0.1095009092758781 0.0440925011986681 -0.01
140 0.04301731057648676 0.02601744914178374 -0.01
141 0.09402453330192205 0.02287723496837799 -0.01
142 0.0431265124991491 0.1130339972447819 -0.01
143 0.09421844624876793 0.1165373172232761 -0.01
144 0.08294488849679024 0.04410780635300516 -0.01
145 0.08748061900053011 0.0907016316163413 -0.01
146 0.02043084591938316 0.02057712432184746 -0.01
147 0.1154329365758275 0.02049399248234578 -0.01
148 0.02056706342417242 0.1185060075176543 -0.01
149 0.1153659855394779 0.1185249196707223 -0.01
150 0.09189214833013643 0.06372719841712661 -0.01
151 0.06224634101583434 0.04268523173133205 -0.01
152 0.06315352249660097 0.09480338035053917 -0.01
153 0 0.01390000000000003 0.0115
154 0 0.1251 0.0115
155 0 0.04170000000000005 0.0115
156 0 0.06950000000000003 0.0115
157 0 0.09730000000000003 0.0115
158 0.068 0 0.0115
159 0.01359999999999999 0 0.0115
160 0.09520000000000002 0 0.0115
161 0.04079999999999999 0 0.0115
162 0.1224 0 0.0115
163 0.06931284296420202 0.1167532564755581 0.02
164 0.06931327798972482 0.02227501703597647 0.02
165 0.1115607845093405 0.07254945022996179 0.02
166 0.02405384029901989 0.0695521477672485 0.02
167 0.0228959810875789 0.09709240638571696 0.02
168 0.04519836578486926 0.08414596364367448 0.02
169 0.04493331395823148 0.05506554396404596 0.02
170 0.07064927223425441 0.06938205277234004 0.02
171 0.02255454631924228 0.04191162494507451 0.02
172 0.1124195044837886 0.09922179950525689 0.02
173 0.1095009092758781 0.0440925011986681 0.02
174 0.04301731057648676 0.02601744914178374 0.02
175 0.09402453330192205 0.02287723496837799 0.02
176 0.0431265124991491 0.1130339972447819 0.02
177 0.09421844624876793 0.1165373172232761 0.02
178 0.08294488849679024 0.04410780635300516 0.02
179 0.08748061900053011 0.0907016316163413 0.02
180 0.02043084591938316 0.02057712432184746 0.02
181 0.1154329365758275 0.02049399248234578 0.02
182 0.02056706342417242 0.1185060075176543 0.02
183 0.1153659855394779 0.1185249196707223 0.02
184 0.09189214833013643 0.06372719841712661 0.02
185 0.06224634101583434 0.04268523173133205 0.02
186 0.06315352249660097 0.09480338035053917 0.02
187 0.068 0.139 0.0115
188 0.1224 0.139 0.0115
189 0.01359999999999999 0.139 0.0115
190 0.0408 0.139 0.0115
191 0.09520000000000001 0.139 0.0115
192 0.136 0.01390000000000003 0.0115
193 0.136 0.1251 0.0115
194 0.136 0.04170000000000005 0.0115
195 0.136 0.09730000000000003 0.0115
196 0.136 0.06950000000000003 0.0115
$EndNodes
$Elements
1084
1 2 2 6 1 1 17 2
2 2 2 6 1 2 17 21
3 2 2 6 1 20 3 4
4 2 2 6 1 20 4 24
5 2 2 6 1 17 18 22
6 2 2 6 1 17 22 21
7 2 2 6 1 18 19 22
8 2 2 6 1 19 20 24
9 2 2 6 1 22 19 23
10 2 2 6 1 19 24 23
11 2 2 7 2 25 5 6
12 2 2 7 2 25 6 29
13 2 2 7 2 8 7 32
14 2 2 7 2 7 28 32
15 2 2 7 2 25 30 26
16 2 2 7 2 25 29 30
17 2 2 7 2 31 27 26
18 2 2 7 2 26 30 31
19 2 2 7 2 32 28 27
20 2 2 7 2 32 27 31
21 2 2 8 3 2 37 1
22 2 2 8 3 37 2 33
23 2 2 8 3 5 36 6
24 2 2 8 3 5 40 36
25 2 2 8 3 34 37 33
26 2 2 8 3 35 38 34
27 2 2 8 3 38 37 34
28 2 2 8 3 36 40 35
29 2 2 8 3 38 35 39
30 2 2 8 3 35 40 39
31 2 2 9 4 41 4 3
32 2 2 9 4 45 41 3
33 2 2 9 4 7 8 44
34 2 2 9 4 7 44 48
35 2 2 9 4 42 41 45
36 2 2 9 4 47 43 42
37 2 2 9 4 46 42 45
38 2 2 9 4 47 42 46
39 2 2 9 4 44 43 47
40 2 2 9 4 48 44 47
41 2 2 3 5 2 21 98
42 2 2 3 5 33 2 98
43 2 2 3 5 24 4 100
44 2 2 3 5 4 41 100
45 2 2 3 5 29 6 99
46 2 2 3 5 6 36 99
47 2 2 3 5 8 32 101
48 2 2 3 5 44 8 101
49 2 2 3 5 21 22 89
50 2 2 3 5 21 89 98
51 2 2 3 5 22 23 84
52 2 2 3 5 22 84 89
53 2 2 3 5 23 24 85
54 2 2 3 5 84 23 85
55 2 2 3 5 85 24 100
56 2 2 3 5 30 29 91
57 2 2 3 5 91 29 99
58 2 2 3 5 31 30 83
59 2 2 3 5 83 30 91
60 2 2 3 5 32 31 90
61 2 2 3 5 31 83 90
62 2 2 3 5 32 90 101
63 2 2 3 5 34 33 92
64 2 2 3 5 92 33 98
65 2 2 3 5 35 34 82
66 2 2 3 5 82 34 92
67 2 2 3 5 36 35 93
68 2 2 3 5 35 82 93
69 2 2 3 5 36 93 99
70 2 2 3 5 41 42 94
71 2 2 3 5 41 94 100
72 2 2 3 5 42 43 81
73 2 2 3 5 42 81 94
74 2 2 3 5 43 44 95
75 2 2 3 5 81 43 95
76 2 2 3 5 95 44 101
77 2 2 3 5 94 81 104
78 2 2 3 5 81 95 97
79 2 2 3 5 81 97 104
80 2 2 3 5 82 92 103
81 2 2 3 5 93 82 96
82 2 2 3 5 96 82 103
83 2 2 3 5 90 83 97
84 2 2 3 5 83 91 102
85 2 2 3 5 97 83 102
86 2 2 3 5 84 85 86
87 2 2 3 5 84 86 87
88 2 2 3 5 84 87 89
89 2 2 3 5 86 85 94
90 2 2 3 5 94 85 100
91 2 2 3 5 87 86 88
92 2 2 3 5 88 86 104
93 2 2 3 5 86 94 104
94 2 2 3 5 87 88 103
95 2 2 3 5 89 87 92
96 2 2 3 5 92 87 103
97 2 2 3 5 96 88 102
98 2 2 3 5 88 96 103
99 2 2 3 5 88 97 102
100 2 2 3 5 97 88 104
101 2 2 3 5 89 92 98
102 2 2 3 5 95 90 97
103 2 2 3 5 90 95 101
104 2 2 3 5 91 93 96
105 2 2 3 5 93 91 99
106 2 2 3 5 91 96 102
107 2 2 3 6 1 124 17
108 2 2 3 6 37 124 1
109 2 2 3 6 20 123 3
110 2 2 3 6 3 123 45
111 2 2 3 6 25 122 5
112 2 2 3 6 5 122 40
113 2 2 3 6 7 125 28
114 2 2 3 6 48 125 7
115 2 2 3 6 17 115 18
116 2 2 3 6 17 124 115
117 2 2 3 6 18 107 19
118 2 2 3 6 18 115 107
119 2 2 3 6 19 114 20
120 2 2 3 6 107 114 19
121 2 2 3 6 114 123 20
122 2 2 3 6 26 113 25
123 2 2 3 6 113 122 25
124 2 2 3 6 27 108 26
125 2 2 3 6 108 113 26
126 2 2 3 6 28 109 27
127 2 2 3 6 27 109 108
128 2 2 3 6 28 125 109
129 2 2 3 6 38 117 37
130 2 2 3 6 117 124 37
131 2 2 3 6 39 106 38
132 2 2 3 6 106 117 38
133 2 2 3 6 40 116 39
134 2 2 3 6 39 116 106
135 2 2 3 6 40 122 116
136 2 2 3 6 45 118 46
137 2 2 3 6 45 123 118
138 2 2 3 6 46 105 47
139 2 2 3 6 46 118 105
140 2 2 3 6 47 119 48
141 2 2 3 6 105 119 47
142 2 2 3 6 119 125 48
143 2 2 3 6 118 121 105
144 2 2 3 6 105 128 119
145 2 2 3 6 121 128 105
146 2 2 3 6 116 127 106
147 2 2 3 6 106 120 117
148 2 2 3 6 106 127 120
149 2 2 3 6 107 121 114
150 2 2 3 6 115 126 107
151 2 2 3 6 107 126 121
152 2 2 3 6 109 110 108
153 2 2 3 6 110 111 108
154 2 2 3 6 111 113 108
155 2 2 3 6 109 119 110
156 2 2 3 6 109 125 119
157 2 2 3 6 110 112 111
158 2 2 3 6 110 128 112
159 2 2 3 6 119 128 110
160 2 2 3 6 112 127 111
161 2 2 3 6 111 116 113
162 2 2 3 6 111 127 116
163 2 2 3 6 112 126 120
164 2 2 3 6 120 127 112
165 2 2 3 6 121 126 112
166 2 2 3 6 112 128 121
167 2 2 3 6 116 122 113
168 2 2 3 6 114 121 118
169 2 2 3 6 118 123 114
170 2 2 3 6 117 120 115
171 2 2 3 6 115 124 117
172 2 2 3 6 120 126 115
173 2 2 6 7 21 9 2
174 2 2 6 7 52 4 10
175 2 2 6 7 24 4 52
176 2 2 6 7 21 49 9
177 2 2 6 7 22 50 21
178 2 2 6 7 21 50 49
179 2 2 6 7 22 23 50
180 2 2 6 7 23 24 52
181 2 2 6 7 50 23 51
182 2 2 6 7 23 52 51
183 2 2 8 8 33 2 9
184 2 2 8 8 36 11 6
185 2 2 8 8 33 9 53
186 2 2 8 8 11 36 56
187 2 2 8 8 34 33 53
188 2 2 8 8 35 34 55
189 2 2 8 8 34 53 54
190 2 2 8 8 55 34 54
191 2 2 8 8 36 35 56
192 2 2 8 8 56 35 55
193 2 2 9 9 4 57 10
194 2 2 9 9 4 41 57
195 2 2 9 9 44 8 12
196 2 2 9 9 44 12 60
197 2 2 9 9 57 41 42
198 2 2 9 9 42 43 59
199 2 2 9 9 42 58 57
200 2 2 9 9 59 58 42
201 2 2 9 9 59 43 44
202 2 2 9 9 60 59 44
203 2 2 4 10 9 49 146
204 2 2 4 10 53 9 146
205 2 2 4 10 52 10 148
206 2 2 4 10 10 57 148
207 2 2 4 10 11 56 147
208 2 2 4 10 61 11 147
209 2 2 4 10 60 12 149
210 2 2 4 10 12 64 149
211 2 2 4 10 49 50 137
212 2 2 4 10 49 137 146
213 2 2 4 10 50 51 132
214 2 2 4 10 50 132 137
215 2 2 4 10 51 52 133
216 2 2 4 10 132 51 133
217 2 2 4 10 133 52 148
218 2 2 4 10 54 53 140
219 2 2 4 10 140 53 146
220 2 2 4 10 55 54 130
221 2 2 4 10 130 54 140
222 2 2 4 10 56 55 141
223 2 2 4 10 55 130 141
224 2 2 4 10 56 141 147
225 2 2 4 10 57 58 142
226 2 2 4 10 57 142 148
227 2 2 4 10 58 59 129
228 2 2 4 10 58 129 142
229 2 2 4 10 59 60 143
230 2 2 4 10 129 59 143
231 2 2 4 10 143 60 149
232 2 2 4 10 62 61 139
233 2 2 4 10 139 61 147
234 2 2 4 10 63 62 131
235 2 2 4 10 131 62 139
236 2 2 4 10 64 63 138
237 2 2 4 10 63 131 138
238 2 2 4 10 64 138 149
239 2 2 4 10 142 129 152
240 2 2 4 10 129 143 145
241 2 2 4 10 129 145 152
242 2 2 4 10 130 140 151
243 2 2 4 10 141 130 144
244 2 2 4 10 144 130 151
245 2 2 4 10 138 131 145
246 2 2 4 10 131 139 150
247 2 2 4 10 145 131 150
248 2 2 4 10 132 133 134
249 2 2 4 10 132 134 135
250 2 2 4 10 132 135 137
251 2 2 4 10 134 133 142
252 2 2 4 10 142 133 148
253 2 2 4 10 135 134 136
254 2 2 4 10 136 134 152
255 2 2 4 10 134 142 152
256 2 2 4 10 135 136 151
257 2 2 4 10 137 135 140
258 2 2 4 10 140 135 151
259 2 2 4 10 144 136 150
260 2 2 4 10 136 144 151
261 2 2 4 10 136 145 150
262 2 2 4 10 145 136 152
263 2 2 4 10 137 140 146
264 2 2 4 10 143 138 145
265 2 2 4 10 138 143 149
266 2 2 4 10 139 141 144
267 2 2 4 10 141 139 147
268 2 2 4 10 139 144 150
269 2 2 7 11 6 11 61
270 2 2 7 11 6 61 29
271 2 2 7 11 64 12 8
272 2 2 7 11 32 64 8
273 2 2 7 11 29 62 30
274 2 2 7 11 29 61 62
275 2 2 7 11 30 63 31
276 2 2 7 11 30 62 63
277 2 2 7 11 31 64 32
278 2 2 7 11 31 63 64
279 2 2 6 12 1 13 153
280 2 2 6 12 17 1 153
281 2 2 6 12 14 3 154
282 2 2 6 12 3 20 154
283 2 2 6 12 13 65 153
284 2 2 6 12 68 14 154
285 2 2 6 12 18 17 155
286 2 2 6 12 65 17 153
287 2 2 6 12 17 65 155
288 2 2 6 12 19 18 156
289 2 2 6 12 66 18 155
290 2 2 6 12 18 66 156
291 2 2 6 12 20 19 157
292 2 2 6 12 67 19 156
293 2 2 6 12 19 67 157
294 2 2 6 12 20 68 154
295 2 2 6 12 68 20 157
296 2 2 6 12 65 66 155
297 2 2 6 12 66 67 156
298 2 2 6 12 67 68 157
299 2 2 8 13 13 1 159
300 2 2 8 13 1 37 159
301 2 2 8 13 5 15 162
302 2 2 8 13 40 5 162
303 2 2 8 13 69 13 159
304 2 2 8 13 15 72 162
305 2 2 8 13 37 38 161
306 2 2 8 13 37 69 159
307 2 2 8 13 69 37 161
308 2 2 8 13 38 39 158
309 2 2 8 13 70 38 158
310 2 2 8 13 38 70 161
311 2 2 8 13 39 40 160
312 2 2 8 13 39 71 158
313 2 2 8 13 71 39 160
314 2 2 8 13 40 72 160
315 2 2 8 13 72 40 162
316 2 2 8 13 70 69 161
317 2 2 8 13 71 70 158
318 2 2 8 13 72 71 160
319 2 2 5 14 13 180 65
320 2 2 5 14 69 180 13
321 2 2 5 14 68 182 14
322 2 2 5 14 14 182 73
323 2 2 5 14 15 181 72
324 2 2 5 14 77 181 15
325 2 2 5 14 76 183 16
326 2 2 5 14 16 183 80
327 2 2 5 14 65 171 66
328 2 2 5 14 65 180 171
329 2 2 5 14 66 166 67
330 2 2 5 14 66 171 166
331 2 2 5 14 67 167 68
332 2 2 5 14 166 167 67
333 2 2 5 14 167 182 68
334 2 2 5 14 70 174 69
335 2 2 5 14 174 180 69
336 2 2 5 14 71 164 70
337 2 2 5 14 164 174 70
338 2 2 5 14 72 175 71
339 2 2 5 14 71 175 164
340 2 2 5 14 72 181 175
341 2 2 5 14 73 176 74
342 2 2 5 14 73 182 176
343 2 2 5 14 74 163 75
344 2 2 5 14 74 176 163
345 2 2 5 14 75 177 76
346 2 2 5 14 163 177 75
347 2 2 5 14 177 183 76
348 2 2 5 14 78 173 77
349 2 2 5 14 173 181 77
350 2 2 5 14 79 165 78
351 2 2 5 14 165 173 78
352 2 2 5 14 80 172 79
353 2 2 5 14 79 172 165
354 2 2 5 14 80 183 172
355 2 2 5 14 176 186 163
356 2 2 5 14 163 179 177
357 2 2 5 14 163 186 179
358 2 2 5 14 164 185 174
359 2 2 5 14 175 178 164
360 2 2 5 14 178 185 164
361 2 2 5 14 172 179 165
362 2 2 5 14 165 184 173
363 2 2 5 14 179 184 165
364 2 2 5 14 166 168 167
365 2 2 5 14 166 169 168
366 2 2 5 14 166 171 169
367 2 2 5 14 168 176 167
368 2 2 5 14 176 182 167
369 2 2 5 14 169 170 168
370 2 2 5 14 170 186 168
371 2 2 5 14 168 186 176
372 2 2 5 14 169 185 170
373 2 2 5 14 171 174 169
374 2 2 5 14 174 185 169
375 2 2 5 14 178 184 170
376 2 2 5 14 170 185 178
377 2 2 5 14 170 184 179
378 2 2 5 14 179 186 170
379 2 2 5 14 171 180 174
380 2 2 5 14 177 179 172
381 2 2 5 14 172 183 177
382 2 2 5 14 173 178 175
383 2 2 5 14 175 181 173
384 2 2 5 14 173 184 178
385 2 2 9 15 14 189 3
386 2 2 9 15 3 189 45
387 2 2 9 15 7 188 16
388 2 2 9 15 48 188 7
389 2 2 9 15 73 189 14
390 2 2 9 15 16 188 76
391 2 2 9 15 45 190 46
392 2 2 9 15 45 189 73
393 2 2 9 15 73 190 45
394 2 2 9 15 46 187 47
395 2 2 9 15 74 187 46
396 2 2 9 15 46 190 74
397 2 2 9 15 47 191 48
398 2 2 9 15 47 187 75
399 2 2 9 15 75 191 47
400 2 2 9 15 76 188 48
401 2 2 9 15 48 191 76
402 2 2 9 15 74 190 73
403 2 2 9 15 75 187 74
404 2 2 9 15 76 191 75
405 2 2 7 16 5 192 15
406 2 2 7 16 25 192 5
407 2 2 7 16 16 193 7
408 2 2 7 16 7 193 28
409 2 2 7 16 15 192 77
410 2 2 7 16 80 193 16
411 2 2 7 16 26 194 25
412 2 2 7 16 77 192 25
413 2 2 7 16 25 194 77
414 2 2 7 16 27 196 26
415 2 2 7 16 78 194 26
416 2 2 7 16 26 196 78
417 2 2 7 16 28 195 27
418 2 2 7 16 27 195 79
419 2 2 7 16 79 196 27
420 2 2 7 16 28 193 80
421 2 2 7 16 80 195 28
422 2 2 7 16 77 194 78
423 2 2 7 16 78 196 79
424 2 2 7 16 79 195 80
425 4 2 1 1 119 110 128 97
426 4 2 1 1 94 86 104 121
427 4 2 1 1 96 91 102 111
428 4 2 1 1 120 115 126 87
429 4 2 1 1 17 18 115 89
430 4 2 1 1 29 30 91 113
431 4 2 1 1 82 96 103 127
432 4 2 1 1 106 120 127 103
433 4 2 1 1 17 115 124 89
434 4 2 1 1 91 29 113 99
435 4 2 1 1 47 48 119 95
436 4 2 1 1 128 121 104 112
437 4 2 1 1 42 41 94 118
438 4 2 1 1 97 88 102 110
439 4 2 1 1 126 121 112 86
440 4 2 1 1 40 39 116 93
441 4 2 1 1 33 34 92 117
442 4 2 1 1 87 89 92 115
443 4 2 1 1 111 113 116 91
444 4 2 1 1 113 111 108 91
445 4 2 1 1 87 89 115 84
446 4 2 1 1 118 105 121 94
447 4 2 1 1 95 81 97 119
448 4 2 1 1 30 83 91 108
449 4 2 1 1 18 107 115 84
450 4 2 1 1 103 96 88 127
451 4 2 1 1 88 86 112 104
452 4 2 1 1 112 111 127 88
453 4 2 1 1 119 110 97 109
454 4 2 1 1 86 94 85 121
455 4 2 1 1 109 108 110 83
456 4 2 1 1 85 84 86 107
457 4 2 1 1 39 106 116 82
458 4 2 1 1 34 82 92 106
459 4 2 1 1 90 95 97 119
460 4 2 1 1 121 118 94 114
461 4 2 1 1 121 105 104 94
462 4 2 1 1 81 97 119 128
463 4 2 1 1 117 115 120 92
464 4 2 1 1 93 91 96 116
465 4 2 1 1 107 19 114 85
466 4 2 1 1 83 31 90 109
467 4 2 1 1 83 91 108 102
468 4 2 1 1 115 107 126 84
469 4 2 1 1 105 47 119 81
470 4 2 1 1 81 42 94 105
471 4 2 1 1 96 93 116 82
472 4 2 1 1 116 106 127 82
473 4 2 1 1 82 92 106 103
474 4 2 1 1 117 120 106 92
475 4 2 1 1 108 31 27 26
476 4 2 1 1 31 109 32 90
477 4 2 1 1 22 19 84 23
478 4 2 1 1 19 18 22 84
479 4 2 1 1 28 27 109 32
480 4 2 1 1 18 19 107 84
481 4 2 1 1 116 39 82 93
482 4 2 1 1 117 92 106 34
483 4 2 1 1 117 37 34 38
484 4 2 1 1 31 108 30 26
485 4 2 1 1 22 18 89 84
486 4 2 1 1 26 108 30 113
487 4 2 1 1 45 46 118 42
488 4 2 1 1 108 31 30 83
489 4 2 1 1 109 31 32 27
490 4 2 1 1 94 81 105 104
491 4 2 1 1 105 119 128 81
492 4 2 1 1 19 24 85 23
493 4 2 1 1 47 44 95 43
494 4 2 1 1 35 106 39 82
495 4 2 1 1 26 25 113 30
496 4 2 1 1 38 39 35 106
497 4 2 1 1 35 34 106 82
498 4 2 1 1 89 18 115 84
499 4 2 1 1 102 96 111 88
500 4 2 1 1 126 112 120 87
501 4 2 1 1 113 108 30 91
502 4 2 1 1 38 35 34 106
503 4 2 1 1 37 117 34 33
504 4 2 1 1 45 42 118 41
505 4 2 1 1 91 111 96 116
506 4 2 1 1 92 87 115 120
507 4 2 1 1 39 40 35 93
508 4 2 1 1 85 94 100 114
509 4 2 1 1 109 119 125 90
510 4 2 1 1 44 47 95 48
511 4 2 1 1 93 40 35 36
512 4 2 1 1 17 22 89 21
513 4 2 1 1 18 17 22 89
514 4 2 1 1 25 30 29 113
515 4 2 1 1 119 95 81 47
516 4 2 1 1 7 32 101 8
517 4 2 1 1 123 4 20 3
518 4 2 1 1 122 6 25 5
519 4 2 1 1 106 38 117 34
520 4 2 1 1 94 105 42 118
521 4 2 1 1 35 82 39 93
522 4 2 1 1 45 123 3 41
523 4 2 1 1 47 81 42 43
524 4 2 1 1 5 36 99 6
525 4 2 1 1 44 7 101 8
526 4 2 1 1 122 6 29 25
527 4 2 1 1 36 5 99 40
528 4 2 1 1 5 40 122 99
529 4 2 1 1 48 7 101 44
530 4 2 1 1 48 7 125 101
531 4 2 1 1 17 98 2 21
532 4 2 1 1 6 122 29 99
533 4 2 1 1 123 4 41 100
534 4 2 1 1 3 41 123 4
535 4 2 1 1 95 81 47 43
536 4 2 1 1 122 6 5 99
537 4 2 1 1 105 46 42 118
538 4 2 1 1 94 121 114 85
539 4 2 1 1 97 109 90 119
540 4 2 1 1 96 127 111 88
541 4 2 1 1 90 109 28 125
542 4 2 1 1 24 100 114 85
543 4 2 1 1 102 91 108 111
544 4 2 1 1 126 87 115 84
545 4 2 1 1 28 109 90 32
546 4 2 1 1 33 124 37 117
547 4 2 1 1 103 92 106 120
548 4 2 1 1 41 123 118 45
549 4 2 1 1 82 96 127 116
550 4 2 1 1 93 36 99 40
551 4 2 1 1 95 48 101 44
552 4 2 1 1 107 86 126 84
553 4 2 1 1 83 108 110 102
554 4 2 1 1 117 92 124 115
555 4 2 1 1 93 91 116 99
556 4 2 1 1 25 122 113 29
557 4 2 1 1 99 113 116 122
558 4 2 1 1 92 98 124 89
559 4 2 1 1 112 121 104 86
560 4 2 1 1 98 17 124 89
561 4 2 1 1 122 99 113 29
562 4 2 1 1 91 113 116 99
563 4 2 1 1 115 92 124 89
564 4 2 1 1 98 21 17 89
565 4 2 1 1 127 106 103 82
566 4 2 1 1 128 104 105 81
567 4 2 1 1 87 92 103 120
568 4 2 1 1 86 84 87 126
569 4 2 1 1 83 97 102 110
570 4 2 1 1 110 108 111 102
571 4 2 1 1 111 116 127 96
572 4 2 1 1 121 105 128 104
573 4 2 1 1 97 81 104 128
574 4 2 1 1 107 121 126 86
575 4 2 1 1 112 86 87 126
576 4 2 1 1 112 87 86 88
577 4 2 1 1 88 110 111 102
578 4 2 1 1 88 111 110 112
579 4 2 1 1 104 97 112 88
580 4 2 1 1 104 112 97 128
581 4 2 1 1 110 112 97 88
582 4 2 1 1 110 97 112 128
583 4 2 1 1 121 107 85 86
584 4 2 1 1 121 85 107 114
585 4 2 1 1 83 97 109 90
586 4 2 1 1 109 97 83 110
587 4 2 1 1 41 94 123 100
588 4 2 1 1 41 123 94 118
589 4 2 1 1 114 123 94 100
590 4 2 1 1 114 94 123 118
591 4 2 1 1 48 119 101 125
592 4 2 1 1 48 101 119 95
593 4 2 1 1 90 101 119 125
594 4 2 1 1 90 119 101 95
595 4 2 1 1 127 120 88 103
596 4 2 1 1 127 88 120 112
597 4 2 1 1 87 88 120 103
598 4 2 1 1 87 120 88 112
599 4 2 1 1 116 40 99 122
600 4 2 1 1 116 99 40 93
601 4 2 1 1 33 92 124 117
602 4 2 1 1 33 124 92 98
603 4 2 1 1 109 108 31 27
604 4 2 1 1 109 31 108 83
605 4 2 1 1 84 85 19 107
606 4 2 1 1 84 19 85 23
607 4 2 1 1 19 114 24 20
608 4 2 1 1 24 114 19 85
609 4 2 1 1 90 28 101 125
610 4 2 1 1 90 101 28 32
611 4 2 1 1 7 101 28 125
612 4 2 1 1 7 28 101 32
613 4 2 1 1 24 114 123 20
614 4 2 1 1 123 114 24 100
615 4 2 1 1 123 4 24 20
616 4 2 1 1 24 4 123 100
617 4 2 1 1 17 2 124 1
618 4 2 1 1 17 124 2 98
619 4 2 1 1 37 124 2 1
620 4 2 1 1 2 33 124 37
621 4 2 1 1 124 33 2 98
622 4 2 1 1 42 47 105 81
623 4 2 1 1 42 105 47 46
624 4 2 2 2 88 134 87 86
625 4 2 2 2 135 88 134 87
626 4 2 2 2 88 135 134 136
627 4 2 2 2 132 22 89 84
628 4 2 2 2 132 23 22 84
629 4 2 2 2 132 23 85 133
630 4 2 2 2 43 143 44 95
631 4 2 2 2 133 132 23 51
632 4 2 2 2 23 132 85 84
633 4 2 2 2 89 137 50 132
634 4 2 2 2 34 53 140 54
635 4 2 2 2 142 57 42 58
636 4 2 2 2 23 50 51 132
637 4 2 2 2 22 132 89 50
638 4 2 2 2 50 23 22 132
639 4 2 2 2 82 34 92 130
640 4 2 2 2 145 143 81 95
641 4 2 2 2 133 24 23 85
642 4 2 2 2 29 62 91 30
643 4 2 2 2 131 30 91 62
644 4 2 2 2 137 49 89 50
645 4 2 2 2 93 35 141 36
646 4 2 2 2 31 64 90 32
647 4 2 2 2 30 131 91 83
648 4 2 2 2 35 130 34 82
649 4 2 2 2 59 44 143 60
650 4 2 2 2 44 59 143 43
651 4 2 2 2 140 130 34 54
652 4 2 2 2 34 33 92 140
653 4 2 2 2 34 33 140 53
654 4 2 2 2 94 57 41 42
655 4 2 2 2 94 57 42 142
656 4 2 2 2 138 31 64 90
657 4 2 2 2 23 52 133 51
658 4 2 2 2 91 62 61 139
659 4 2 2 2 62 29 91 61
660 4 2 2 2 52 23 133 24
661 4 2 2 2 91 62 139 131
662 4 2 2 2 30 63 131 31
663 4 2 2 2 63 30 131 62
664 4 2 2 2 85 134 132 133
665 4 2 2 2 135 89 137 140
666 4 2 2 2 89 49 21 50
667 4 2 2 2 31 138 64 63
668 4 2 2 2 35 56 141 36
669 4 2 2 2 56 35 141 55
670 4 2 2 2 134 84 132 135
671 4 2 2 2 89 132 135 137
672 4 2 2 2 21 22 89 50
673 4 2 2 2 134 84 85 132
674 4 2 2 2 132 89 135 84
675 4 2 2 2 31 83 131 30
676 4 2 2 2 55 34 130 54
677 4 2 2 2 142 85 133 134
678 4 2 2 2 104 129 145 152
679 4 2 2 2 145 90 131 138
680 4 2 2 2 131 90 31 138
681 4 2 2 2 92 130 34 140
682 4 2 2 2 135 88 103 151
683 4 2 2 2 55 34 35 130
684 4 2 2 2 136 104 152 134
685 4 2 2 2 130 35 141 82
686 4 2 2 2 31 131 138 63
687 4 2 2 2 87 134 84 86
688 4 2 2 2 82 35 141 93
689 4 2 2 2 87 134 135 84
690 4 2 2 2 135 89 92 87
691 4 2 2 2 131 102 97 150
692 4 2 2 2 149 44 12 60
693 4 2 2 2 84 134 85 86
694 4 2 2 2 89 135 84 87
695 4 2 2 2 143 145 81 129
696 4 2 2 2 81 95 97 145
697 4 2 2 2 49 98 9 146
698 4 2 2 2 148 4 24 100
699 4 2 2 2 131 90 97 83
700 4 2 2 2 103 144 151 88
701 4 2 2 2 86 94 134 85
702 4 2 2 2 103 144 88 96
703 4 2 2 2 135 88 151 136
704 4 2 2 2 87 88 103 135
705 4 2 2 2 90 131 31 83
706 4 2 2 2 104 134 142 152
707 4 2 2 2 64 8 101 32
708 4 2 2 2 98 49 9 21
709 4 2 2 2 95 138 145 143
710 4 2 2 2 4 52 148 24
711 4 2 2 2 141 82 144 130
712 4 2 2 2 89 135 92 140
713 4 2 2 2 149 12 101 64
714 4 2 2 2 96 141 93 82
715 4 2 2 2 142 85 134 94
716 4 2 2 2 104 134 88 86
717 4 2 2 2 136 104 134 88
718 4 2 2 2 35 130 141 55
719 4 2 2 2 11 36 147 56
720 4 2 2 2 88 144 151 136
721 4 2 2 2 8 64 101 12
722 4 2 2 2 4 52 10 148
723 4 2 2 2 90 145 131 97
724 4 2 2 2 44 149 12 101
725 4 2 2 2 21 9 98 2
726 4 2 2 2 42 129 142 58
727 4 2 2 2 104 145 136 152
728 4 2 2 2 96 141 82 144
729 4 2 2 2 36 6 147 99
730 4 2 2 2 11 36 6 147
731 4 2 2 2 8 12 101 44
732 4 2 2 2 43 81 42 59
733 4 2 2 2 90 145 95 138
734 4 2 2 2 95 81 43 143
735 4 2 2 2 141 91 96 93
736 4 2 2 2 131 102 83 97
737 4 2 2 2 104 134 86 94
738 4 2 2 2 129 104 145 81
739 4 2 2 2 145 104 97 81
740 4 2 2 2 139 96 144 141
741 4 2 2 2 11 6 61 147
742 4 2 2 2 61 6 99 147
743 4 2 2 2 147 91 99 61
744 4 2 2 2 129 42 59 58
745 4 2 2 2 140 103 151 135
746 4 2 2 2 139 102 131 150
747 4 2 2 2 98 9 33 2
748 4 2 2 2 98 9 146 33
749 4 2 2 2 4 148 41 100
750 4 2 2 2 4 57 148 10
751 4 2 2 2 134 104 142 94
752 4 2 2 2 150 97 88 102
753 4 2 2 2 42 129 94 142
754 4 2 2 2 97 131 150 145
755 4 2 2 2 82 92 103 130
756 4 2 2 2 97 104 136 88
757 4 2 2 2 140 33 98 146
758 4 2 2 2 41 94 100 148
759 4 2 2 2 59 43 81 143
760 4 2 2 2 144 88 102 150
761 4 2 2 2 144 102 139 150
762 4 2 2 2 103 135 92 87
763 4 2 2 2 33 9 146 53
764 4 2 2 2 57 4 148 41
765 4 2 2 2 129 104 142 152
766 4 2 2 2 129 42 94 81
767 4 2 2 2 29 6 99 61
768 4 2 2 2 147 91 61 139
769 4 2 2 2 61 91 99 29
770 4 2 2 2 140 103 130 151
771 4 2 2 2 88 144 102 96
772 4 2 2 2 144 102 96 139
773 4 2 2 2 90 145 97 95
774 4 2 2 2 92 33 98 140
775 4 2 2 2 140 33 146 53
776 4 2 2 2 57 94 148 142
777 4 2 2 2 94 57 148 41
778 4 2 2 2 140 103 135 92
779 4 2 2 2 97 150 88 136
780 4 2 2 2 141 91 139 96
781 4 2 2 2 131 102 91 83
782 4 2 2 2 145 104 136 97
783 4 2 2 2 42 129 59 81
784 4 2 2 2 144 88 150 136
785 4 2 2 2 102 139 131 91
786 4 2 2 2 141 93 36 99
787 4 2 2 2 148 85 24 133
788 4 2 2 2 103 140 130 92
789 4 2 2 2 44 143 149 95
790 4 2 2 2 97 150 136 145
791 4 2 2 2 94 129 104 142
792 4 2 2 2 102 139 91 96
793 4 2 2 2 44 143 60 149
794 4 2 2 2 49 89 98 137
795 4 2 2 2 99 91 141 93
796 4 2 2 2 103 130 144 82
797 4 2 2 2 129 59 81 143
798 4 2 2 2 85 148 24 100
799 4 2 2 2 147 36 141 56
800 4 2 2 2 99 36 141 147
801 4 2 2 2 94 129 81 104
802 4 2 2 2 24 148 133 52
803 4 2 2 2 146 49 98 137
804 4 2 2 2 130 103 144 151
805 4 2 2 2 144 103 82 96
806 4 2 2 2 44 101 95 149
807 4 2 2 2 89 49 98 21
808 4 2 2 2 147 91 141 99
809 4 2 2 2 89 140 98 137
810 4 2 2 2 85 148 142 133
811 4 2 2 2 146 98 140 137
812 4 2 2 2 91 147 141 139
813 4 2 2 2 94 85 100 148
814 4 2 2 2 143 149 95 138
815 4 2 2 2 64 101 90 32
816 4 2 2 2 64 90 149 138
817 4 2 2 2 98 92 140 89
818 4 2 2 2 94 85 148 142
819 4 2 2 2 101 64 90 149
820 4 2 2 2 149 90 95 138
821 4 2 2 2 90 95 101 149
822 4 2 2 3 66 67 166 156
823 4 2 2 3 26 27 108 196
824 4 2 2 3 167 68 157 67
825 4 2 2 3 79 172 80 195
826 4 2 2 3 28 27 195 109
827 4 2 2 3 20 19 114 157
828 4 2 2 3 175 71 160 72
829 4 2 2 3 177 75 76 191
830 4 2 2 3 37 38 117 161
831 4 2 2 3 65 66 171 155
832 4 2 2 3 46 45 118 190
833 4 2 2 3 26 25 194 113
834 4 2 2 3 18 17 115 155
835 4 2 2 3 173 77 194 78
836 4 2 2 3 39 40 116 160
837 4 2 2 3 69 161 174 70
838 4 2 2 3 176 190 73 74
839 4 2 2 3 119 191 48 47
840 4 2 2 3 19 18 107 156
841 4 2 2 3 165 79 78 196
842 4 2 2 3 70 164 71 158
843 4 2 2 3 38 39 106 158
844 4 2 2 3 28 7 125 193
845 4 2 2 3 183 16 80 193
846 4 2 2 3 14 154 182 68
847 4 2 2 3 13 65 180 153
848 4 2 2 3 3 20 123 154
849 4 2 2 3 25 5 192 122
850 4 2 2 3 72 15 162 181
851 4 2 2 3 183 76 16 188
852 4 2 2 3 123 45 3 189
853 4 2 2 3 1 37 124 159
854 4 2 2 3 66 166 18 156
855 4 2 2 3 108 196 78 26
856 4 2 2 3 47 46 105 187
857 4 2 2 3 163 187 74 75
858 4 2 2 3 193 183 16 188
859 4 2 2 3 7 193 188 125
860 4 2 2 3 1 124 153 159
861 4 2 2 3 189 3 123 154
862 4 2 2 3 15 192 162 181
863 4 2 2 3 154 189 14 182
864 4 2 2 3 162 192 5 122
865 4 2 2 3 180 13 153 159
866 4 2 2 3 17 1 124 153
867 4 2 2 3 15 192 181 77
868 4 2 2 3 167 157 19 67
869 4 2 2 3 79 195 27 109
870 4 2 2 3 195 79 172 109
871 4 2 2 3 114 19 167 157
872 4 2 2 3 78 165 196 108
873 4 2 2 3 107 18 166 156
874 4 2 2 3 13 180 69 159
875 4 2 2 3 40 5 122 162
876 4 2 2 3 190 118 46 74
877 4 2 2 3 182 189 14 73
878 4 2 2 3 7 48 125 188
879 4 2 2 3 160 71 175 39
880 4 2 2 3 177 75 191 47
881 4 2 2 3 38 117 161 70
882 4 2 2 3 171 166 18 66
883 4 2 2 3 181 160 175 122
884 4 2 2 3 78 108 26 113
885 4 2 2 3 157 114 68 167
886 4 2 2 3 172 195 109 28
887 4 2 2 3 158 106 164 39
888 4 2 2 3 164 70 106 158
889 4 2 2 3 190 123 118 182
890 4 2 2 3 195 172 80 28
891 4 2 2 3 191 125 183 177
892 4 2 2 3 118 45 123 190
893 4 2 2 3 157 114 20 68
894 4 2 2 3 177 76 183 191
895 4 2 2 3 66 18 171 155
896 4 2 2 3 164 71 158 39
897 4 2 2 3 26 194 78 113
898 4 2 2 3 38 106 70 158
899 4 2 2 3 72 160 175 181
900 4 2 2 3 124 115 155 171
901 4 2 2 3 122 116 160 175
902 4 2 2 3 194 77 113 25
903 4 2 2 3 107 166 67 156
904 4 2 2 3 182 118 190 176
905 4 2 2 3 117 124 37 161
906 4 2 2 3 182 45 190 123
907 4 2 2 3 125 191 119 177
908 4 2 2 3 27 196 165 108
909 4 2 2 3 67 19 107 156
910 4 2 2 3 164 175 71 39
911 4 2 2 3 165 79 196 27
912 4 2 2 3 118 190 176 74
913 4 2 2 3 166 18 115 171
914 4 2 2 3 108 78 173 113
915 4 2 2 3 116 160 175 39
916 4 2 2 3 119 191 47 177
917 4 2 2 3 117 38 106 70
918 4 2 2 3 174 161 117 70
919 4 2 2 3 181 72 160 40
920 4 2 2 3 45 182 190 73
921 4 2 2 3 191 76 183 48
922 4 2 2 3 69 37 124 161
923 4 2 2 3 115 155 171 18
924 4 2 2 3 194 173 78 113
925 4 2 2 3 164 175 39 116
926 4 2 2 3 174 117 106 70
927 4 2 2 3 122 181 160 40
928 4 2 2 3 167 19 107 67
929 4 2 2 3 69 124 180 161
930 4 2 2 3 106 174 70 164
931 4 2 2 3 106 39 116 164
932 4 2 2 3 27 165 79 109
933 4 2 2 3 107 166 167 67
934 4 2 2 3 17 115 155 124
935 4 2 2 3 108 109 165 27
936 4 2 2 3 125 191 183 48
937 4 2 2 3 126 168 169 170
938 4 2 2 3 107 18 115 166
939 4 2 2 3 165 78 173 108
940 4 2 2 3 75 163 187 47
941 4 2 2 3 187 46 105 74
942 4 2 2 3 180 69 161 174
943 4 2 2 3 40 116 160 122
944 4 2 2 3 168 126 112 170
945 4 2 2 3 19 107 114 167
946 4 2 2 3 165 172 79 109
947 4 2 2 3 73 182 190 176
948 4 2 2 3 125 191 48 119
949 4 2 2 3 118 105 46 74
950 4 2 2 3 177 163 75 47
951 4 2 2 3 188 193 183 125
952 4 2 2 3 153 124 180 159
953 4 2 2 3 123 189 154 182
954 4 2 2 3 192 162 181 122
955 4 2 2 3 165 172 109 110
956 4 2 2 3 105 118 176 74
957 4 2 2 3 163 177 119 47
958 4 2 2 3 111 178 170 127
959 4 2 2 3 105 121 186 176
960 4 2 2 3 128 163 179 119
961 4 2 2 3 105 118 121 176
962 4 2 2 3 163 177 179 119
963 4 2 2 3 163 105 187 47
964 4 2 2 3 74 105 187 163
965 4 2 2 3 170 185 112 127
966 4 2 2 3 166 168 107 167
967 4 2 2 3 108 109 110 165
968 4 2 2 3 112 111 170 127
969 4 2 2 3 185 170 178 127
970 4 2 2 3 120 127 112 185
971 4 2 2 3 108 173 184 111
972 4 2 2 3 166 115 126 169
973 4 2 2 3 174 106 120 185
974 4 2 2 3 127 178 164 116
975 4 2 2 3 172 165 179 110
976 4 2 2 3 176 114 121 167
977 4 2 2 3 174 106 185 164
978 4 2 2 3 116 106 164 127
979 4 2 2 3 112 186 168 170
980 4 2 2 3 110 112 170 128
981 4 2 2 3 173 178 111 116
982 4 2 2 3 174 120 115 169
983 4 2 2 3 28 183 172 80
984 4 2 2 3 117 120 174 106
985 4 2 2 3 175 164 178 116
986 4 2 2 3 68 114 182 167
987 4 2 2 3 28 109 172 125
988 4 2 2 3 182 20 114 68
989 4 2 2 3 115 166 171 169
990 4 2 2 3 113 111 173 108
991 4 2 2 3 113 111 116 173
992 4 2 2 3 115 171 174 169
993 4 2 2 3 165 173 184 108
994 4 2 2 3 115 107 166 126
995 4 2 2 3 168 176 121 167
996 4 2 2 3 170 112 186 128
997 4 2 2 3 183 28 172 125
998 4 2 2 3 122 113 77 25
999 4 2 2 3 170 184 178 111
1000 4 2 2 3 114 123 20 182
1001 4 2 2 3 74 176 105 163
1002 4 2 2 3 47 105 119 163
1003 4 2 2 3 166 126 168 169
1004 4 2 2 3 108 110 111 184
1005 4 2 2 3 105 121 128 186
1006 4 2 2 3 163 179 186 128
1007 4 2 2 3 180 124 171 174
1008 4 2 2 3 121 118 114 176
1009 4 2 2 3 172 179 177 119
1010 4 2 2 3 128 121 112 186
1011 4 2 2 3 179 170 186 128
1012 4 2 2 3 121 112 186 168
1013 4 2 2 3 170 179 110 128
1014 4 2 2 3 113 77 181 122
1015 4 2 2 3 173 175 178 116
1016 4 2 2 3 115 117 120 174
1017 4 2 2 3 80 183 193 28
1018 4 2 2 3 124 117 115 174
1019 4 2 2 3 182 154 20 68
1020 4 2 2 3 171 124 115 174
1021 4 2 2 3 114 118 123 182
1022 4 2 2 3 172 177 183 125
1023 4 2 2 3 28 183 193 125
1024 4 2 2 3 189 123 45 182
1025 4 2 2 3 154 20 123 182
1026 4 2 2 3 182 114 118 176
1027 4 2 2 3 177 172 119 125
1028 4 2 2 3 168 107 126 166
1029 4 2 2 3 108 184 165 110
1030 4 2 2 3 179 165 184 110
1031 4 2 2 3 121 107 126 168
1032 4 2 2 3 186 105 176 163
1033 4 2 2 3 105 119 163 128
1034 4 2 2 3 162 72 181 40
1035 4 2 2 3 126 121 168 112
1036 4 2 2 3 179 184 170 110
1037 4 2 2 3 188 183 76 48
1038 4 2 2 3 182 45 189 73
1039 4 2 2 3 69 124 37 159
1040 4 2 2 3 176 182 114 167
1041 4 2 2 3 119 109 125 172
1042 4 2 2 3 180 65 17 153
1043 4 2 2 3 122 77 192 25
1044 4 2 2 3 116 111 127 178
1045 4 2 2 3 120 174 185 169
1046 4 2 2 3 122 162 181 40
1047 4 2 2 3 69 180 124 159
1048 4 2 2 3 186 176 121 168
1049 4 2 2 3 110 119 128 179
1050 4 2 2 3 48 188 183 125
1051 4 2 2 3 192 181 77 122
1052 4 2 2 3 17 124 180 153
1053 4 2 2 3 173 178 184 111
1054 4 2 2 3 115 120 126 169
1055 4 2 2 3 120 106 127 185
1056 4 2 2 3 185 178 164 127
1057 4 2 2 3 164 106 185 127
1058 4 2 2 3 163 186 105 128
1059 4 2 2 3 192 5 15 162
1060 4 2 2 3 13 1 153 159
1061 4 2 2 3 189 14 3 154
1062 4 2 2 3 16 7 193 188
1063 4 2 2 3 155 65 180 171
1064 4 2 2 3 180 65 155 17
1065 4 2 2 3 180 124 155 171
1066 4 2 2 3 155 124 180 17
1067 4 2 2 3 113 77 173 181
1068 4 2 2 3 113 173 77 194
1069 4 2 2 3 170 126 185 169
1070 4 2 2 3 170 185 126 112
1071 4 2 2 3 120 185 126 169
1072 4 2 2 3 120 126 185 112
1073 4 2 2 3 170 111 110 184
1074 4 2 2 3 170 110 111 112
1075 4 2 2 3 121 167 107 168
1076 4 2 2 3 107 167 121 114
1077 4 2 2 3 172 110 119 109
1078 4 2 2 3 119 110 172 179
1079 4 2 2 3 122 175 113 116
1080 4 2 2 3 122 113 175 181
1081 4 2 2 3 173 113 175 116
1082 4 2 2 3 173 175 113 181
1083 4 2 2 3 124 174 161 117
1084 4 2 2 3 161 174 124 180
$EndElements
