$MeshFormat
2.2 0 8
$EndMeshFormat
$PhysicalNames
7
2 2 "Boundary_Z_Min"
2 3 "Boundary_Z_Max"
2 4 "Boundary_X_Min"
2 5 "Boundary_X_Max"
2 6 "Boundary_Y_Min"
2 7 "Boundary_Y_Max"
3 1 "Fluid"
$EndPhysicalNames
$Nodes
206
1 0 0 0.009999999999999998
2 0 0 -0.005
3 0 0.139 0.009999999999999998
4 0 0.139 -0.005
5 0.136 0 0.009999999999999998
6 0.136 0 -0.005
7 0.136 0.139 0.009999999999999998
8 0.136 0.139 -0.005
9 0 0.017375 0.009999999999999998
10 0 0.03475 0.009999999999999998
11 0 0.05212500000000002 0.009999999999999998
12 0 0.06950000000000005 0.009999999999999998
13 0 0.08687500000000006 0.009999999999999998
14 0 0.1042500000000001 0.009999999999999998
15 0 0.121625 0.009999999999999998
16 0 0.017375 -0.005
17 0 0.03475 -0.005
18 0 0.05212500000000002 -0.005
19 0 0.06950000000000005 -0.005
20 0 0.08687500000000006 -0.005
21 0 0.1042500000000001 -0.005
22 0 0.121625 -0.005
23 0.136 0.017375 0.009999999999999998
24 0.136 0.03475 0.009999999999999998
25 0.136 0.05212500000000002 0.009999999999999998
26 0.136 0.06950000000000005 0.009999999999999998
27 0.136 0.08687500000000006 0.009999999999999998
28 0.136 0.1042500000000001 0.009999999999999998
29 0.136 0.121625 0.009999999999999998
30 0.136 0.017375 -0.005
31 0.136 0.03475 -0.005
32 0.136 0.05212500000000002 -0.005
33 0.136 0.06950000000000005 -0.005
34 0.136 0.08687500000000006 -0.005
35 0.136 0.1042500000000001 -0.005
36 0.136 0.121625 -0.005
37 0.01942857142857146 0 -0.005
38 0.03885714285714291 0 -0.005
39 0.05828571428571441 0 -0.005
40 0.07771428571428586 0 -0.005
41 0.09714285714285723 0 -0.005
42 0.1165714285714286 0 -0.005
43 0.01942857142857146 0 0.009999999999999998
44 0.03885714285714291 0 0.009999999999999998
45 0.05828571428571441 0 0.009999999999999998
46 0.07771428571428586 0 0.009999999999999998
47 0.09714285714285723 0 0.009999999999999998
48 0.1165714285714286 0 0.009999999999999998
49 0.01942857142857146 0.139 -0.005
50 0.03885714285714291 0.139 -0.005
51 0.05828571428571441 0.139 -0.005
52 0.07771428571428586 0.139 -0.005
53 0.09714285714285723 0.139 -0.005
54 0.1165714285714286 0.139 -0.005
55 0.01942857142857146 0.139 0.009999999999999998
56 0.03885714285714291 0.139 0.009999999999999998
57 0.05828571428571441 0.139 0.009999999999999998
58 0.07771428571428586 0.139 0.009999999999999998
59 0.09714285714285723 0.139 0.009999999999999998
60 0.1165714285714286 0.139 0.009999999999999998
61 0 0.06081250000000003 0.002499999999999998
62 0 0.0434375 0.002499999999999998
63 0 0.09556250000000006 0.0025
64 0 0.07818750000000005 0.0025
65 0 0.008687499999999999 0.0025
66 0 0.0260625 0.002499999999999999
67 0 0.1129375000000001 0.0025
68 0 0.1303125 0.0025
69 0.136 0.06081250000000003 0.002499999999999998
70 0.136 0.0434375 0.002499999999999998
71 0.136 0.09556250000000006 0.0025
72 0.136 0.07818750000000005 0.0025
73 0.136 0.008687499999999999 0.0025
74 0.136 0.0260625 0.0025
75 0.136 0.1303125 0.0025
76 0.136 0.1129375000000001 0.0025
77 0.04857142857142866 0 0.002499999999999999
78 0.009714285714285729 0 0.0025
79 0.02914285714285718 0 0.0025
80 0.1262857142857143 0 0.0025
81 0.06800000000000014 0 0.002499999999999998
82 0.08742857142857155 0 0.002499999999999998
83 0.1068571428571429 0 0.0025
84 0.04857142857142866 0.139 0.002499999999999999
85 0.009714285714285729 0.139 0.0025
86 0.02914285714285718 0.139 0.0025
87 0.06800000000000014 0.139 0.002499999999999998
88 0.1262857142857143 0.139 0.0025
89 0.08742857142857155 0.139 0.002499999999999998
90 0.1068571428571429 0.139 0.0025
91 0.06774169055215767 0.01665606453791869 -0.005
92 0.1218144642236822 0.07821734168644673 -0.005
93 0.01472085969358436 0.07752818519631501 -0.005
94 0.06602239592251472 0.122230596876733 -0.005
95 0.01504719139075463 0.0434375 -0.005
96 0.1209528086092454 0.0434375 -0.005
97 0.1059723291975477 0.1218931708006762 -0.005
98 0.03008043093315872 0.1236789341548843 -0.005
99 0.1070860195252196 0.01742100131675319 -0.005
100 0.02843154103901501 0.01753670121033513 -0.005
101 0.04842722675815933 0.01674558294979305 -0.005
102 0.05801143403904738 0.03313108161812539 -0.005
103 0.07686680833528531 0.03327544938069293 -0.005
104 0.06712849532184918 0.04940597695045366 -0.005
105 0.08566777043754455 0.04967794649208219 -0.005
106 0.07607533994284837 0.06552393541227861 -0.005
107 0.05759308773315479 0.06530161397464751 -0.005
108 0.0663336935998915 0.0805754855114932 -0.005
109 0.08396131479536284 0.08077534729721261 -0.005
110 0.04837583985626109 0.08110104304124682 -0.005
111 0.04052593440181574 0.06606280652428088 -0.005
112 0.05659934464179679 0.09548004790574995 -0.005
113 0.03790540237512349 0.09571103031049819 -0.005
114 0.04760083023299088 0.1129169332998305 -0.005
115 0.09507679625268337 0.03361609473786165 -0.005
116 0.0400242129985614 0.03351881088258471 -0.005
117 0.08698740574740023 0.1223085678513426 -0.005
118 0.09679920236294745 0.1068817036407055 -0.005
119 0.1159463903508403 0.1057147875765664 -0.005
120 0.1074984568253986 0.08960748934646441 -0.005
121 0.07932959408618716 0.1080869893316597 -0.005
122 0.04908159951508255 0.04951899496331216 -0.005
123 0.08717851399346353 0.01668126568891088 -0.005
124 0.1047968843695885 0.05076865331177464 -0.005
125 0.09304439131212801 0.06580902204089274 -0.005
126 0.01816797746711085 0.09521533901756787 -0.005
127 0.1214162192981515 0.06059141583303691 -0.005
128 0.01450780592328809 0.06022470657533682 -0.005
129 0.03042582489778251 0.05056439489095259 -0.005
130 0.01474037207213052 0.1129375000000001 -0.005
131 0.01365756662643343 0.02665755497670236 -0.005
132 0.1221318450505768 0.02663597282507985 -0.005
133 0.03126750327734651 0.08151452494696448 -0.005
134 0.1089331585863927 0.06950000000000003 -0.005
135 0.1234518622799842 0.09293292372189554 -0.005
136 0.1213825082609395 0.1194561046165502 -0.005
137 0.02969900261610289 0.1080919473565562 -0.005
138 0.1100088707614627 0.03437584443829386 -0.005
139 0.04857142857142866 0.1277493850046882 -0.005
140 0.02607235185932273 0.06906387442592504 -0.005
141 0.02551726739050939 0.03434299239211496 -0.005
142 0.01293069068837454 0.1267159443866304 -0.005
143 0.123557858629445 0.01228639482836661 -0.005
144 0.01230353581880398 0.0123138512374075 -0.005
145 0.09010268251597056 0.09277138567986672 -0.005
146 0.09670800080705054 0.0796926488728873 -0.005
147 0.06458355908022946 0.1075167268284685 -0.005
148 0.07393667650076489 0.09322701226805152 -0.005
149 0.06774169055215767 0.1223439354620813 0.009999999999999998
150 0.1217750565722025 0.06079502142800483 0.009999999999999998
151 0.01472085969358434 0.06147181480368506 0.009999999999999998
152 0.06601692120030929 0.01679070645448468 0.009999999999999998
153 0.01504719139075461 0.09556250000000006 0.009999999999999998
154 0.1209528086092454 0.09556250000000006 0.009999999999999998
155 0.1058525051259328 0.017155275643417 0.009999999999999998
156 0.03008043093315869 0.01532106584511569 0.009999999999999998
157 0.1070860195252196 0.1215789986832468 0.009999999999999998
158 0.02835445345144482 0.1214803423547603 0.009999999999999998
159 0.04835602353192761 0.1222776994682872 0.009999999999999998
160 0.05801283431050125 0.1058856291841787 0.009999999999999998
161 0.07686704171386091 0.1057273357530244 0.009999999999999998
162 0.06712876759685403 0.08959727237221655 0.009999999999999998
163 0.08566785471314127 0.08932305925064901 0.009999999999999998
164 0.07607539936794856 0.07347677376528827 0.009999999999999998
165 0.05759314301650556 0.07369904577539198 0.009999999999999998
166 0.06655167472123028 0.05852817912069284 0.009999999999999998
167 0.08398616443417778 0.05976786519535818 0.009999999999999998
168 0.0484121792570426 0.05791634435579075 0.009999999999999998
169 0.0405320001825044 0.07294020133356528 0.009999999999999998
170 0.05688658703311635 0.04365533078600303 0.009999999999999998
171 0.03795933267380695 0.04331443070430024 0.009999999999999998
172 0.04760083023299062 0.02608306670016949 0.009999999999999998
173 0.09507684919504542 0.1053845370748798 0.009999999999999998
174 0.0399681510176415 0.1054901375837089 0.009999999999999998
175 0.08696971445873561 0.01671413424369865 0.009999999999999998
176 0.09763286271979393 0.03262156655664496 0.009999999999999998
177 0.1157967628215024 0.03339584884716165 0.009999999999999998
178 0.1076697935153934 0.04965012384522319 0.009999999999999998
179 0.07876610874643458 0.03278744992347492 0.009999999999999998
180 0.04907355478667891 0.08948643440321342 0.009999999999999998
181 0.08717851399346356 0.1223187343110892 0.009999999999999998
182 0.104796898371421 0.08823151378572254 0.009999999999999998
183 0.0929567249647042 0.07342183157222461 0.009999999999999998
184 0.0181756817954942 0.04378829827026049 0.009999999999999998
185 0.1214096536898769 0.07841067253562126 0.009999999999999998
186 0.01450780592328806 0.07877529342466322 0.009999999999999998
187 0.03007822149392505 0.08808932475642832 0.009999999999999998
188 0.01474037207213055 0.0260625 0.009999999999999998
189 0.1221318450505768 0.1123640271749202 0.009999999999999998
190 0.01361313847130986 0.1123447279528605 0.009999999999999998
191 0.03127201701331311 0.05748762231622059 0.009999999999999998
192 0.1089331585863926 0.06950000000000003 0.009999999999999998
193 0.1234483225818197 0.04614319882407794 0.009999999999999998
194 0.121379806224565 0.01968723408009181 0.009999999999999998
195 0.02971132954151621 0.03091387230396918 0.009999999999999998
196 0.1100088841503017 0.1046243153437539 0.009999999999999998
197 0.04857142857142866 0.01125061499531186 0.009999999999999998
198 0.02607235185932266 0.06993612557407498 0.009999999999999998
199 0.01293069068837454 0.01228405561336961 0.009999999999999998
200 0.123557858629445 0.1267136051716334 0.009999999999999998
201 0.01227923267026523 0.1266900140615242 0.009999999999999998
202 0.07550341930447849 0.0469520841343603 0.009999999999999998
203 0.0253464952972852 0.1044345809757724 0.009999999999999998
204 0.09728974391113104 0.05968786541078541 0.009999999999999998
205 0.06471149510592648 0.03135234134181752 0.009999999999999998
206 0.09014134877190152 0.04691115917764116 0.009999999999999998
$EndNodes
$Elements
947
1 2 2 4 1 2 1 65
2 2 2 4 1 1 9 65
3 2 2 4 1 16 2 65
4 2 2 4 1 3 4 68
5 2 2 4 1 15 3 68
6 2 2 4 1 4 22 68
7 2 2 4 1 9 10 66
8 2 2 4 1 9 16 65
9 2 2 4 1 16 9 66
10 2 2 4 1 10 11 62
11 2 2 4 1 17 10 62
12 2 2 4 1 10 17 66
13 2 2 4 1 11 12 61
14 2 2 4 1 18 11 61
15 2 2 4 1 11 18 62
16 2 2 4 1 12 13 64
17 2 2 4 1 12 19 61
18 2 2 4 1 19 12 64
19 2 2 4 1 13 14 63
20 2 2 4 1 20 13 63
21 2 2 4 1 13 20 64
22 2 2 4 1 14 15 67
23 2 2 4 1 14 21 63
24 2 2 4 1 21 14 67
25 2 2 4 1 15 22 67
26 2 2 4 1 22 15 68
27 2 2 4 1 17 16 66
28 2 2 4 1 18 17 62
29 2 2 4 1 19 18 61
30 2 2 4 1 20 19 64
31 2 2 4 1 21 20 63
32 2 2 4 1 22 21 67
33 2 2 5 2 6 73 5
34 2 2 5 2 5 73 23
35 2 2 5 2 30 73 6
36 2 2 5 2 7 75 8
37 2 2 5 2 29 75 7
38 2 2 5 2 8 75 36
39 2 2 5 2 23 74 24
40 2 2 5 2 23 73 30
41 2 2 5 2 30 74 23
42 2 2 5 2 24 70 25
43 2 2 5 2 31 70 24
44 2 2 5 2 24 74 31
45 2 2 5 2 25 69 26
46 2 2 5 2 32 69 25
47 2 2 5 2 25 70 32
48 2 2 5 2 26 72 27
49 2 2 5 2 26 69 33
50 2 2 5 2 33 72 26
51 2 2 5 2 27 71 28
52 2 2 5 2 34 71 27
53 2 2 5 2 27 72 34
54 2 2 5 2 28 76 29
55 2 2 5 2 28 71 35
56 2 2 5 2 35 76 28
57 2 2 5 2 36 75 29
58 2 2 5 2 29 76 36
59 2 2 5 2 31 74 30
60 2 2 5 2 32 70 31
61 2 2 5 2 33 69 32
62 2 2 5 2 34 72 33
63 2 2 5 2 35 71 34
64 2 2 5 2 36 76 35
65 2 2 6 3 1 2 78
66 2 2 6 3 43 1 78
67 2 2 6 3 2 37 78
68 2 2 6 3 6 5 80
69 2 2 6 3 5 48 80
70 2 2 6 3 42 6 80
71 2 2 6 3 37 38 79
72 2 2 6 3 37 43 78
73 2 2 6 3 43 37 79
74 2 2 6 3 38 39 77
75 2 2 6 3 44 38 77
76 2 2 6 3 38 44 79
77 2 2 6 3 39 40 81
78 2 2 6 3 39 45 77
79 2 2 6 3 45 39 81
80 2 2 6 3 40 41 82
81 2 2 6 3 40 46 81
82 2 2 6 3 46 40 82
83 2 2 6 3 41 42 83
84 2 2 6 3 41 47 82
85 2 2 6 3 47 41 83
86 2 2 6 3 48 42 80
87 2 2 6 3 42 48 83
88 2 2 6 3 44 43 79
89 2 2 6 3 45 44 77
90 2 2 6 3 46 45 81
91 2 2 6 3 47 46 82
92 2 2 6 3 48 47 83
93 2 2 7 4 3 85 4
94 2 2 7 4 55 85 3
95 2 2 7 4 4 85 49
96 2 2 7 4 8 88 7
97 2 2 7 4 7 88 60
98 2 2 7 4 54 88 8
99 2 2 7 4 49 86 50
100 2 2 7 4 49 85 55
101 2 2 7 4 55 86 49
102 2 2 7 4 50 84 51
103 2 2 7 4 56 84 50
104 2 2 7 4 50 86 56
105 2 2 7 4 51 87 52
106 2 2 7 4 51 84 57
107 2 2 7 4 57 87 51
108 2 2 7 4 52 89 53
109 2 2 7 4 52 87 58
110 2 2 7 4 58 89 52
111 2 2 7 4 53 90 54
112 2 2 7 4 53 89 59
113 2 2 7 4 59 90 53
114 2 2 7 4 60 88 54
115 2 2 7 4 54 90 60
116 2 2 7 4 56 86 55
117 2 2 7 4 57 84 56
118 2 2 7 4 58 87 57
119 2 2 7 4 59 89 58
120 2 2 7 4 60 90 59
121 2 2 2 5 2 16 144
122 2 2 2 5 37 2 144
123 2 2 2 5 22 4 142
124 2 2 2 5 4 49 142
125 2 2 2 5 30 6 143
126 2 2 2 5 6 42 143
127 2 2 2 5 8 36 136
128 2 2 2 5 54 8 136
129 2 2 2 5 16 17 131
130 2 2 2 5 16 131 144
131 2 2 2 5 17 18 95
132 2 2 2 5 17 95 131
133 2 2 2 5 18 19 128
134 2 2 2 5 95 18 128
135 2 2 2 5 19 20 93
136 2 2 2 5 19 93 128
137 2 2 2 5 20 21 126
138 2 2 2 5 93 20 126
139 2 2 2 5 21 22 130
140 2 2 2 5 126 21 130
141 2 2 2 5 130 22 142
142 2 2 2 5 31 30 132
143 2 2 2 5 132 30 143
144 2 2 2 5 32 31 96
145 2 2 2 5 96 31 132
146 2 2 2 5 33 32 127
147 2 2 2 5 32 96 127
148 2 2 2 5 34 33 92
149 2 2 2 5 92 33 127
150 2 2 2 5 35 34 135
151 2 2 2 5 34 92 135
152 2 2 2 5 36 35 136
153 2 2 2 5 119 35 135
154 2 2 2 5 35 119 136
155 2 2 2 5 38 37 100
156 2 2 2 5 100 37 144
157 2 2 2 5 39 38 101
158 2 2 2 5 38 100 101
159 2 2 2 5 40 39 91
160 2 2 2 5 91 39 101
161 2 2 2 5 41 40 123
162 2 2 2 5 40 91 123
163 2 2 2 5 42 41 99
164 2 2 2 5 99 41 123
165 2 2 2 5 42 99 143
166 2 2 2 5 49 50 98
167 2 2 2 5 49 98 142
168 2 2 2 5 50 51 139
169 2 2 2 5 98 50 139
170 2 2 2 5 51 52 94
171 2 2 2 5 51 94 139
172 2 2 2 5 52 53 117
173 2 2 2 5 94 52 117
174 2 2 2 5 53 54 97
175 2 2 2 5 53 97 117
176 2 2 2 5 97 54 136
177 2 2 2 5 91 101 102
178 2 2 2 5 91 102 103
179 2 2 2 5 91 103 123
180 2 2 2 5 120 92 134
181 2 2 2 5 92 120 135
182 2 2 2 5 92 127 134
183 2 2 2 5 93 126 133
184 2 2 2 5 128 93 140
185 2 2 2 5 93 133 140
186 2 2 2 5 94 114 139
187 2 2 2 5 114 94 147
188 2 2 2 5 94 117 121
189 2 2 2 5 94 121 147
190 2 2 2 5 95 128 129
191 2 2 2 5 95 129 141
192 2 2 2 5 131 95 141
193 2 2 2 5 96 124 127
194 2 2 2 5 124 96 138
195 2 2 2 5 96 132 138
196 2 2 2 5 117 97 118
197 2 2 2 5 118 97 119
198 2 2 2 5 119 97 136
199 2 2 2 5 98 114 137
200 2 2 2 5 114 98 139
201 2 2 2 5 130 98 137
202 2 2 2 5 98 130 142
203 2 2 2 5 115 99 123
204 2 2 2 5 99 115 138
205 2 2 2 5 132 99 138
206 2 2 2 5 99 132 143
207 2 2 2 5 101 100 116
208 2 2 2 5 116 100 141
209 2 2 2 5 100 131 141
210 2 2 2 5 131 100 144
211 2 2 2 5 102 101 116
212 2 2 2 5 103 102 104
213 2 2 2 5 104 102 122
214 2 2 2 5 102 116 122
215 2 2 2 5 103 104 105
216 2 2 2 5 103 105 115
217 2 2 2 5 103 115 123
218 2 2 2 5 105 104 106
219 2 2 2 5 106 104 107
220 2 2 2 5 107 104 122
221 2 2 2 5 105 106 125
222 2 2 2 5 115 105 124
223 2 2 2 5 124 105 125
224 2 2 2 5 106 107 108
225 2 2 2 5 106 108 109
226 2 2 2 5 106 109 125
227 2 2 2 5 108 107 110
228 2 2 2 5 110 107 111
229 2 2 2 5 111 107 122
230 2 2 2 5 109 108 148
231 2 2 2 5 108 110 112
232 2 2 2 5 108 112 148
233 2 2 2 5 125 109 146
234 2 2 2 5 109 145 146
235 2 2 2 5 145 109 148
236 2 2 2 5 110 111 133
237 2 2 2 5 112 110 113
238 2 2 2 5 113 110 133
239 2 2 2 5 111 122 129
240 2 2 2 5 111 129 140
241 2 2 2 5 133 111 140
242 2 2 2 5 112 113 114
243 2 2 2 5 112 114 147
244 2 2 2 5 112 147 148
245 2 2 2 5 114 113 137
246 2 2 2 5 126 113 133
247 2 2 2 5 113 126 137
248 2 2 2 5 115 124 138
249 2 2 2 5 122 116 129
250 2 2 2 5 129 116 141
251 2 2 2 5 117 118 121
252 2 2 2 5 118 119 120
253 2 2 2 5 118 120 145
254 2 2 2 5 121 118 145
255 2 2 2 5 120 119 135
256 2 2 2 5 120 134 146
257 2 2 2 5 145 120 146
258 2 2 2 5 121 145 148
259 2 2 2 5 147 121 148
260 2 2 2 5 124 125 134
261 2 2 2 5 127 124 134
262 2 2 2 5 134 125 146
263 2 2 2 5 126 130 137
264 2 2 2 5 129 128 140
265 2 2 3 6 1 199 9
266 2 2 3 6 43 199 1
267 2 2 3 6 15 201 3
268 2 2 3 6 3 201 55
269 2 2 3 6 23 194 5
270 2 2 3 6 5 194 48
271 2 2 3 6 7 200 29
272 2 2 3 6 60 200 7
273 2 2 3 6 9 188 10
274 2 2 3 6 9 199 188
275 2 2 3 6 10 184 11
276 2 2 3 6 10 188 184
277 2 2 3 6 11 151 12
278 2 2 3 6 11 184 151
279 2 2 3 6 12 186 13
280 2 2 3 6 151 186 12
281 2 2 3 6 13 153 14
282 2 2 3 6 13 186 153
283 2 2 3 6 14 190 15
284 2 2 3 6 153 190 14
285 2 2 3 6 190 201 15
286 2 2 3 6 24 194 23
287 2 2 3 6 25 193 24
288 2 2 3 6 24 193 177
289 2 2 3 6 177 194 24
290 2 2 3 6 26 150 25
291 2 2 3 6 150 193 25
292 2 2 3 6 27 185 26
293 2 2 3 6 26 185 150
294 2 2 3 6 28 154 27
295 2 2 3 6 154 185 27
296 2 2 3 6 29 189 28
297 2 2 3 6 28 189 154
298 2 2 3 6 29 200 189
299 2 2 3 6 44 156 43
300 2 2 3 6 156 199 43
301 2 2 3 6 45 197 44
302 2 2 3 6 44 197 156
303 2 2 3 6 46 152 45
304 2 2 3 6 152 197 45
305 2 2 3 6 47 175 46
306 2 2 3 6 46 175 152
307 2 2 3 6 48 155 47
308 2 2 3 6 155 175 47
309 2 2 3 6 48 194 155
310 2 2 3 6 55 158 56
311 2 2 3 6 55 201 158
312 2 2 3 6 56 159 57
313 2 2 3 6 158 159 56
314 2 2 3 6 57 149 58
315 2 2 3 6 57 159 149
316 2 2 3 6 58 181 59
317 2 2 3 6 149 181 58
318 2 2 3 6 59 157 60
319 2 2 3 6 59 181 157
320 2 2 3 6 157 200 60
321 2 2 3 6 159 160 149
322 2 2 3 6 160 161 149
323 2 2 3 6 161 181 149
324 2 2 3 6 150 192 178
325 2 2 3 6 178 193 150
326 2 2 3 6 185 192 150
327 2 2 3 6 184 191 151
328 2 2 3 6 151 198 186
329 2 2 3 6 191 198 151
330 2 2 3 6 172 197 152
331 2 2 3 6 152 205 172
332 2 2 3 6 175 179 152
333 2 2 3 6 179 205 152
334 2 2 3 6 186 187 153
335 2 2 3 6 187 203 153
336 2 2 3 6 153 203 190
337 2 2 3 6 182 185 154
338 2 2 3 6 154 196 182
339 2 2 3 6 189 196 154
340 2 2 3 6 155 176 175
341 2 2 3 6 155 177 176
342 2 2 3 6 155 194 177
343 2 2 3 6 172 195 156
344 2 2 3 6 156 197 172
345 2 2 3 6 156 195 188
346 2 2 3 6 188 199 156
347 2 2 3 6 157 181 173
348 2 2 3 6 173 196 157
349 2 2 3 6 157 196 189
350 2 2 3 6 189 200 157
351 2 2 3 6 158 174 159
352 2 2 3 6 158 203 174
353 2 2 3 6 158 201 190
354 2 2 3 6 190 203 158
355 2 2 3 6 159 174 160
356 2 2 3 6 160 162 161
357 2 2 3 6 160 180 162
358 2 2 3 6 174 180 160
359 2 2 3 6 162 163 161
360 2 2 3 6 163 173 161
361 2 2 3 6 173 181 161
362 2 2 3 6 162 164 163
363 2 2 3 6 162 165 164
364 2 2 3 6 162 180 165
365 2 2 3 6 164 183 163
366 2 2 3 6 163 182 173
367 2 2 3 6 163 183 182
368 2 2 3 6 165 166 164
369 2 2 3 6 166 167 164
370 2 2 3 6 167 183 164
371 2 2 3 6 165 168 166
372 2 2 3 6 165 169 168
373 2 2 3 6 165 180 169
374 2 2 3 6 166 202 167
375 2 2 3 6 168 170 166
376 2 2 3 6 170 202 166
377 2 2 3 6 167 204 183
378 2 2 3 6 202 206 167
379 2 2 3 6 167 206 204
380 2 2 3 6 169 191 168
381 2 2 3 6 168 171 170
382 2 2 3 6 168 191 171
383 2 2 3 6 180 187 169
384 2 2 3 6 187 198 169
385 2 2 3 6 169 198 191
386 2 2 3 6 171 172 170
387 2 2 3 6 172 205 170
388 2 2 3 6 170 205 202
389 2 2 3 6 171 195 172
390 2 2 3 6 171 191 184
391 2 2 3 6 184 195 171
392 2 2 3 6 182 196 173
393 2 2 3 6 174 187 180
394 2 2 3 6 174 203 187
395 2 2 3 6 176 179 175
396 2 2 3 6 177 178 176
397 2 2 3 6 178 206 176
398 2 2 3 6 176 206 179
399 2 2 3 6 177 193 178
400 2 2 3 6 192 204 178
401 2 2 3 6 204 206 178
402 2 2 3 6 202 205 179
403 2 2 3 6 179 206 202
404 2 2 3 6 183 192 182
405 2 2 3 6 182 192 185
406 2 2 3 6 183 204 192
407 2 2 3 6 188 195 184
408 2 2 3 6 186 198 187
409 4 2 1 1 8 75 88 36
410 4 2 1 1 136 88 75 36
411 4 2 1 1 23 5 80 73
412 4 2 1 1 73 80 23 194
413 4 2 1 1 26 69 150 33
414 4 2 1 1 92 72 26 33
415 4 2 1 1 12 19 151 61
416 4 2 1 1 93 19 12 64
417 4 2 1 1 13 20 63 153
418 4 2 1 1 62 18 11 95
419 4 2 1 1 21 14 63 153
420 4 2 1 1 62 10 17 95
421 4 2 1 1 201 86 142 55
422 4 2 1 1 97 90 200 54
423 4 2 1 1 79 100 144 199
424 4 2 1 1 155 48 83 143
425 4 2 1 1 99 155 83 143
426 4 2 1 1 158 86 142 201
427 4 2 1 1 144 37 79 199
428 4 2 1 1 90 200 157 97
429 4 2 1 1 12 93 64 186
430 4 2 1 1 96 193 24 70
431 4 2 1 1 69 150 33 127
432 4 2 1 1 31 96 24 70
433 4 2 1 1 135 154 71 35
434 4 2 1 1 154 28 71 35
435 4 2 1 1 151 19 128 61
436 4 2 1 1 58 149 87 52
437 4 2 1 1 40 46 91 81
438 4 2 1 1 59 181 89 53
439 4 2 1 1 47 123 41 82
440 4 2 1 1 135 27 72 34
441 4 2 1 1 26 185 72 92
442 4 2 1 1 193 69 25 32
443 4 2 1 1 72 185 27 135
444 4 2 1 1 32 193 69 127
445 4 2 1 1 181 89 53 117
446 4 2 1 1 47 175 123 82
447 4 2 1 1 20 13 64 186
448 4 2 1 1 94 87 149 52
449 4 2 1 1 46 152 91 81
450 4 2 1 1 59 90 97 53
451 4 2 1 1 63 20 126 153
452 4 2 1 1 11 62 95 184
453 4 2 1 1 92 26 150 33
454 4 2 1 1 150 69 193 127
455 4 2 1 1 201 158 86 55
456 4 2 1 1 128 18 11 61
457 4 2 1 1 63 126 21 153
458 4 2 1 1 155 83 47 41
459 4 2 1 1 95 62 10 184
460 4 2 1 1 135 72 185 92
461 4 2 1 1 60 200 90 54
462 4 2 1 1 144 37 100 79
463 4 2 1 1 42 83 48 143
464 4 2 1 1 34 72 135 92
465 4 2 1 1 25 69 193 150
466 4 2 1 1 40 123 175 82
467 4 2 1 1 89 181 58 117
468 4 2 1 1 64 93 20 186
469 4 2 1 1 10 17 131 66
470 4 2 1 1 14 21 67 190
471 4 2 1 1 100 79 156 199
472 4 2 1 1 90 157 59 97
473 4 2 1 1 60 200 157 90
474 4 2 1 1 42 99 83 143
475 4 2 1 1 86 142 98 158
476 4 2 1 1 12 19 93 151
477 4 2 1 1 130 67 190 201
478 4 2 1 1 164 165 108 106
479 4 2 1 1 107 108 165 106
480 4 2 1 1 188 131 144 66
481 4 2 1 1 155 83 41 99
482 4 2 1 1 58 89 117 52
483 4 2 1 1 40 175 46 82
484 4 2 1 1 151 128 11 61
485 4 2 1 1 74 24 31 132
486 4 2 1 1 86 49 142 55
487 4 2 1 1 43 79 37 199
488 4 2 1 1 76 28 189 35
489 4 2 1 1 67 130 142 201
490 4 2 1 1 199 188 144 66
491 4 2 1 1 67 142 22 201
492 4 2 1 1 199 144 9 66
493 4 2 1 1 162 108 148 109
494 4 2 1 1 144 16 9 66
495 4 2 1 1 67 22 15 201
496 4 2 1 1 13 20 153 186
497 4 2 1 1 14 21 190 153
498 4 2 1 1 131 17 10 95
499 4 2 1 1 122 107 168 166
500 4 2 1 1 150 92 33 127
501 4 2 1 1 185 26 150 92
502 4 2 1 1 186 12 93 151
503 4 2 1 1 21 130 190 153
504 4 2 1 1 95 10 131 188
505 4 2 1 1 95 18 11 128
506 4 2 1 1 10 131 188 66
507 4 2 1 1 123 175 91 40
508 4 2 1 1 149 58 181 117
509 4 2 1 1 181 59 97 53
510 4 2 1 1 67 21 130 190
511 4 2 1 1 108 162 164 109
512 4 2 1 1 152 45 39 81
513 4 2 1 1 87 51 94 57
514 4 2 1 1 27 154 71 135
515 4 2 1 1 107 122 104 166
516 4 2 1 1 39 91 152 81
517 4 2 1 1 123 155 47 41
518 4 2 1 1 194 73 80 143
519 4 2 1 1 103 179 91 123
520 4 2 1 1 57 94 87 149
521 4 2 1 1 93 19 128 151
522 4 2 1 1 96 32 193 70
523 4 2 1 1 110 108 180 165
524 4 2 1 1 149 58 117 52
525 4 2 1 1 46 91 175 40
526 4 2 1 1 88 75 200 136
527 4 2 1 1 148 163 162 109
528 4 2 1 1 79 43 156 199
529 4 2 1 1 98 49 142 86
530 4 2 1 1 24 96 31 132
531 4 2 1 1 162 180 108 165
532 4 2 1 1 28 154 189 35
533 4 2 1 1 53 97 181 117
534 4 2 1 1 24 74 177 132
535 4 2 1 1 135 71 27 34
536 4 2 1 1 163 164 162 109
537 4 2 1 1 119 76 189 35
538 4 2 1 1 32 25 193 70
539 4 2 1 1 47 175 155 123
540 4 2 1 1 122 111 129 168
541 4 2 1 1 181 59 157 97
542 4 2 1 1 168 170 122 166
543 4 2 1 1 95 131 141 188
544 4 2 1 1 39 91 101 197
545 4 2 1 1 57 159 139 149
546 4 2 1 1 162 147 161 148
547 4 2 1 1 175 91 179 123
548 4 2 1 1 41 123 155 99
549 4 2 1 1 123 176 155 99
550 4 2 1 1 123 115 176 99
551 4 2 1 1 191 129 111 168
552 4 2 1 1 151 129 128 191
553 4 2 1 1 203 190 130 153
554 4 2 1 1 195 100 116 172
555 4 2 1 1 110 133 169 187
556 4 2 1 1 110 108 112 180
557 4 2 1 1 79 38 156 44
558 4 2 1 1 86 98 50 56
559 4 2 1 1 169 180 110 187
560 4 2 1 1 170 104 122 166
561 4 2 1 1 120 154 185 135
562 4 2 1 1 185 120 92 134
563 4 2 1 1 193 178 127 96
564 4 2 1 1 190 67 15 201
565 4 2 1 1 158 137 98 174
566 4 2 1 1 16 144 131 66
567 4 2 1 1 30 74 132 143
568 4 2 1 1 166 167 202 106
569 4 2 1 1 114 98 137 174
570 4 2 1 1 107 165 169 168
571 4 2 1 1 106 167 202 105
572 4 2 1 1 106 109 164 125
573 4 2 1 1 180 108 112 162
574 4 2 1 1 91 39 152 197
575 4 2 1 1 111 107 169 168
576 4 2 1 1 139 94 57 149
577 4 2 1 1 151 128 129 184
578 4 2 1 1 38 100 79 156
579 4 2 1 1 98 86 158 56
580 4 2 1 1 106 164 167 125
581 4 2 1 1 182 173 196 120
582 4 2 1 1 117 94 149 52
583 4 2 1 1 175 152 91 46
584 4 2 1 1 100 195 156 172
585 4 2 1 1 183 164 109 125
586 4 2 1 1 91 39 40 81
587 4 2 1 1 87 57 149 58
588 4 2 1 1 124 178 176 138
589 4 2 1 1 97 157 181 118
590 4 2 1 1 130 142 22 67
591 4 2 1 1 9 188 199 66
592 4 2 1 1 181 161 149 121
593 4 2 1 1 191 151 129 184
594 4 2 1 1 59 60 157 90
595 4 2 1 1 83 41 99 42
596 4 2 1 1 139 84 159 57
597 4 2 1 1 77 39 101 197
598 4 2 1 1 103 105 206 115
599 4 2 1 1 164 183 167 125
600 4 2 1 1 162 147 160 161
601 4 2 1 1 96 24 177 132
602 4 2 1 1 193 178 150 127
603 4 2 1 1 118 196 173 120
604 4 2 1 1 119 189 154 35
605 4 2 1 1 37 100 79 38
606 4 2 1 1 156 38 101 197
607 4 2 1 1 130 21 126 153
608 4 2 1 1 187 126 93 186
609 4 2 1 1 10 95 184 188
610 4 2 1 1 202 104 166 106
611 4 2 1 1 55 158 86 56
612 4 2 1 1 117 181 149 121
613 4 2 1 1 173 181 157 118
614 4 2 1 1 185 120 135 92
615 4 2 1 1 179 152 91 175
616 4 2 1 1 149 159 94 160
617 4 2 1 1 202 205 104 103
618 4 2 1 1 146 182 192 134
619 4 2 1 1 115 124 176 138
620 4 2 1 1 98 139 56 159
621 4 2 1 1 54 97 90 53
622 4 2 1 1 106 202 104 105
623 4 2 1 1 145 163 161 148
624 4 2 1 1 155 175 176 123
625 4 2 1 1 102 101 91 152
626 4 2 1 1 193 24 177 96
627 4 2 1 1 178 176 206 124
628 4 2 1 1 114 147 94 160
629 4 2 1 1 135 119 154 35
630 4 2 1 1 48 83 47 155
631 4 2 1 1 124 206 204 105
632 4 2 1 1 124 176 206 115
633 4 2 1 1 116 102 122 170
634 4 2 1 1 100 101 116 172
635 4 2 1 1 182 146 120 134
636 4 2 1 1 187 93 133 186
637 4 2 1 1 152 101 91 197
638 4 2 1 1 39 77 45 197
639 4 2 1 1 145 173 182 120
640 4 2 1 1 159 158 114 174
641 4 2 1 1 84 139 51 57
642 4 2 1 1 94 139 159 149
643 4 2 1 1 159 114 94 160
644 4 2 1 1 102 101 152 172
645 4 2 1 1 73 23 30 143
646 4 2 1 1 75 29 200 36
647 4 2 1 1 161 121 145 148
648 4 2 1 1 40 41 123 82
649 4 2 1 1 59 181 58 89
650 4 2 1 1 170 122 116 171
651 4 2 1 1 112 147 162 148
652 4 2 1 1 125 124 204 105
653 4 2 1 1 98 114 158 174
654 4 2 1 1 154 27 185 135
655 4 2 1 1 144 9 16 65
656 4 2 1 1 68 15 22 201
657 4 2 1 1 102 104 205 103
658 4 2 1 1 39 45 152 197
659 4 2 1 1 139 94 51 57
660 4 2 1 1 77 101 38 197
661 4 2 1 1 133 126 93 187
662 4 2 1 1 39 101 38 77
663 4 2 1 1 127 32 193 96
664 4 2 1 1 103 206 179 115
665 4 2 1 1 145 118 173 120
666 4 2 1 1 63 14 13 153
667 4 2 1 1 17 18 62 95
668 4 2 1 1 56 139 84 159
669 4 2 1 1 159 84 56 57
670 4 2 1 1 174 112 160 180
671 4 2 1 1 5 23 80 194
672 4 2 1 1 158 114 98 159
673 4 2 1 1 161 147 149 121
674 4 2 1 1 95 129 128 184
675 4 2 1 1 117 97 181 118
676 4 2 1 1 172 152 102 205
677 4 2 1 1 101 100 156 172
678 4 2 1 1 150 92 127 134
679 4 2 1 1 102 116 172 170
680 4 2 1 1 184 95 141 188
681 4 2 1 1 173 161 121 145
682 4 2 1 1 100 141 131 188
683 4 2 1 1 117 149 94 121
684 4 2 1 1 38 101 100 156
685 4 2 1 1 190 130 158 203
686 4 2 1 1 136 8 88 36
687 4 2 1 1 154 28 27 71
688 4 2 1 1 32 96 31 70
689 4 2 1 1 44 77 38 197
690 4 2 1 1 199 9 144 65
691 4 2 1 1 161 173 163 145
692 4 2 1 1 84 50 139 56
693 4 2 1 1 22 142 68 201
694 4 2 1 1 144 100 131 188
695 4 2 1 1 188 144 100 199
696 4 2 1 1 174 113 112 180
697 4 2 1 1 38 156 44 197
698 4 2 1 1 45 152 46 81
699 4 2 1 1 98 139 50 56
700 4 2 1 1 136 88 8 54
701 4 2 1 1 87 94 51 52
702 4 2 1 1 56 158 98 159
703 4 2 1 1 48 5 80 194
704 4 2 1 1 190 158 130 201
705 4 2 1 1 189 196 157 119
706 4 2 1 1 142 130 158 201
707 4 2 1 1 138 132 177 99
708 4 2 1 1 203 130 126 153
709 4 2 1 1 126 187 153 186
710 4 2 1 1 91 205 179 103
711 4 2 1 1 170 116 172 171
712 4 2 1 1 145 182 163 146
713 4 2 1 1 160 114 112 174
714 4 2 1 1 182 183 163 146
715 4 2 1 1 124 127 178 96
716 4 2 1 1 183 182 192 146
717 4 2 1 1 112 147 160 162
718 4 2 1 1 182 154 185 120
719 4 2 1 1 179 103 115 123
720 4 2 1 1 175 47 46 82
721 4 2 1 1 89 53 117 52
722 4 2 1 1 188 100 141 195
723 4 2 1 1 114 113 112 174
724 4 2 1 1 204 167 125 105
725 4 2 1 1 124 204 134 125
726 4 2 1 1 130 137 158 203
727 4 2 1 1 170 205 104 202
728 4 2 1 1 126 21 20 63
729 4 2 1 1 62 11 10 184
730 4 2 1 1 198 133 93 186
731 4 2 1 1 196 157 97 118
732 4 2 1 1 184 141 129 171
733 4 2 1 1 138 155 176 99
734 4 2 1 1 147 94 149 121
735 4 2 1 1 105 124 206 115
736 4 2 1 1 97 119 196 118
737 4 2 1 1 93 198 186 151
738 4 2 1 1 147 149 160 161
739 4 2 1 1 205 152 91 179
740 4 2 1 1 141 184 195 171
741 4 2 1 1 104 102 205 170
742 4 2 1 1 177 74 194 132
743 4 2 1 1 64 13 12 186
744 4 2 1 1 176 115 138 99
745 4 2 1 1 94 147 149 160
746 4 2 1 1 176 177 155 138
747 4 2 1 1 203 126 113 187
748 4 2 1 1 157 196 173 118
749 4 2 1 1 198 93 140 151
750 4 2 1 1 156 43 79 44
751 4 2 1 1 49 98 50 86
752 4 2 1 1 119 189 76 136
753 4 2 1 1 151 128 140 191
754 4 2 1 1 173 161 181 121
755 4 2 1 1 167 204 206 105
756 4 2 1 1 118 119 196 120
757 4 2 1 1 142 85 201 55
758 4 2 1 1 182 163 173 145
759 4 2 1 1 37 144 78 199
760 4 2 1 1 126 113 137 203
761 4 2 1 1 150 25 69 26
762 4 2 1 1 108 162 165 164
763 4 2 1 1 19 18 128 61
764 4 2 1 1 96 177 178 138
765 4 2 1 1 93 128 140 151
766 4 2 1 1 178 177 176 138
767 4 2 1 1 161 163 162 148
768 4 2 1 1 166 104 107 106
769 4 2 1 1 133 198 187 186
770 4 2 1 1 196 157 119 97
771 4 2 1 1 129 140 128 191
772 4 2 1 1 132 31 74 30
773 4 2 1 1 28 189 29 76
774 4 2 1 1 101 156 197 172
775 4 2 1 1 119 154 196 120
776 4 2 1 1 92 34 72 33
777 4 2 1 1 183 192 204 125
778 4 2 1 1 205 91 102 103
779 4 2 1 1 136 97 200 54
780 4 2 1 1 142 85 68 201
781 4 2 1 1 144 78 199 65
782 4 2 1 1 138 177 155 99
783 4 2 1 1 17 16 131 66
784 4 2 1 1 114 139 98 159
785 4 2 1 1 152 91 102 205
786 4 2 1 1 48 155 194 143
787 4 2 1 1 67 15 14 190
788 4 2 1 1 26 185 27 72
789 4 2 1 1 32 69 33 127
790 4 2 1 1 109 163 183 146
791 4 2 1 1 107 165 168 166
792 4 2 1 1 108 110 107 165
793 4 2 1 1 178 124 96 138
794 4 2 1 1 109 164 108 106
795 4 2 1 1 183 146 134 125
796 4 2 1 1 80 48 194 143
797 4 2 1 1 43 78 1 199
798 4 2 1 1 142 49 4 85
799 4 2 1 1 151 140 198 191
800 4 2 1 1 176 179 206 115
801 4 2 1 1 85 3 201 55
802 4 2 1 1 133 93 140 198
803 4 2 1 1 200 88 136 54
804 4 2 1 1 37 144 2 78
805 4 2 1 1 154 182 196 120
806 4 2 1 1 156 188 100 199
807 4 2 1 1 42 80 6 143
808 4 2 1 1 200 60 7 88
809 4 2 1 1 173 121 118 145
810 4 2 1 1 178 206 204 124
811 4 2 1 1 98 142 130 158
812 4 2 1 1 178 193 177 96
813 4 2 1 1 202 104 105 103
814 4 2 1 1 107 111 122 168
815 4 2 1 1 200 60 88 54
816 4 2 1 1 120 119 154 135
817 4 2 1 1 114 94 139 159
818 4 2 1 1 20 19 93 64
819 4 2 1 1 151 11 12 61
820 4 2 1 1 48 80 42 143
821 4 2 1 1 197 152 101 172
822 4 2 1 1 192 183 146 134
823 4 2 1 1 134 204 192 125
824 4 2 1 1 74 194 132 143
825 4 2 1 1 85 142 49 55
826 4 2 1 1 165 180 110 169
827 4 2 1 1 43 37 78 199
828 4 2 1 1 188 141 184 195
829 4 2 1 1 136 29 76 36
830 4 2 1 1 199 78 1 65
831 4 2 1 1 85 4 142 68
832 4 2 1 1 164 167 166 106
833 4 2 1 1 116 141 100 195
834 4 2 1 1 167 106 125 105
835 4 2 1 1 137 130 126 203
836 4 2 1 1 183 164 163 109
837 4 2 1 1 205 202 179 103
838 4 2 1 1 141 116 129 171
839 4 2 1 1 129 95 141 184
840 4 2 1 1 116 122 129 171
841 4 2 1 1 177 74 24 194
842 4 2 1 1 191 111 169 168
843 4 2 1 1 102 104 122 170
844 4 2 1 1 112 160 180 162
845 4 2 1 1 110 133 111 169
846 4 2 1 1 22 21 130 67
847 4 2 1 1 146 145 182 120
848 4 2 1 1 188 9 10 66
849 4 2 1 1 180 174 113 187
850 4 2 1 1 158 137 174 203
851 4 2 1 1 136 76 119 35
852 4 2 1 1 75 200 7 88
853 4 2 1 1 73 6 80 143
854 4 2 1 1 109 145 163 146
855 4 2 1 1 203 113 174 187
856 4 2 1 1 78 144 2 65
857 4 2 1 1 68 85 3 201
858 4 2 1 1 121 161 147 148
859 4 2 1 1 99 194 155 143
860 4 2 1 1 195 188 100 156
861 4 2 1 1 1 9 199 65
862 4 2 1 1 4 22 142 68
863 4 2 1 1 97 200 157 136
864 4 2 1 1 111 169 198 191
865 4 2 1 1 187 203 126 153
866 4 2 1 1 98 130 137 158
867 4 2 1 1 140 129 111 191
868 4 2 1 1 171 170 122 168
869 4 2 1 1 129 191 184 171
870 4 2 1 1 133 140 111 169
871 4 2 1 1 119 157 189 136
872 4 2 1 1 162 108 112 148
873 4 2 1 1 136 75 200 36
874 4 2 1 1 169 133 140 198
875 4 2 1 1 198 140 111 191
876 4 2 1 1 23 73 194 143
877 4 2 1 1 198 169 133 187
878 4 2 1 1 29 200 7 75
879 4 2 1 1 6 73 30 143
880 4 2 1 1 132 194 177 99
881 4 2 1 1 110 112 113 180
882 4 2 1 1 44 45 77 197
883 4 2 1 1 51 50 139 84
884 4 2 1 1 126 133 113 187
885 4 2 1 1 116 141 195 171
886 4 2 1 1 144 16 2 65
887 4 2 1 1 68 3 15 201
888 4 2 1 1 76 136 36 35
889 4 2 1 1 192 183 134 125
890 4 2 1 1 147 114 112 160
891 4 2 1 1 23 24 74 194
892 4 2 1 1 183 109 146 125
893 4 2 1 1 174 137 113 203
894 4 2 1 1 166 170 104 202
895 4 2 1 1 102 116 101 172
896 4 2 1 1 169 140 111 198
897 4 2 1 1 160 159 114 174
898 4 2 1 1 102 172 205 170
899 4 2 1 1 183 204 167 125
900 4 2 1 1 25 24 193 70
901 4 2 1 1 148 145 163 109
902 4 2 1 1 71 135 35 34
903 4 2 1 1 196 189 154 119
904 4 2 1 1 132 177 96 138
905 4 2 1 1 116 195 172 171
906 4 2 1 1 113 114 137 174
907 4 2 1 1 157 119 97 136
908 4 2 1 1 194 155 177 99
909 4 2 1 1 136 200 29 36
910 4 2 1 1 167 206 202 105
911 4 2 1 1 200 189 157 136
912 4 2 1 1 99 132 194 143
913 4 2 1 1 78 2 1 65
914 4 2 1 1 3 4 85 68
915 4 2 1 1 7 8 75 88
916 4 2 1 1 80 5 6 73
917 4 2 1 1 106 165 166 164
918 4 2 1 1 106 166 165 107
919 4 2 1 1 186 126 20 153
920 4 2 1 1 186 20 126 93
921 4 2 1 1 184 128 11 151
922 4 2 1 1 184 11 128 95
923 4 2 1 1 168 129 171 191
924 4 2 1 1 168 171 129 122
925 4 2 1 1 110 187 113 133
926 4 2 1 1 113 187 110 180
927 4 2 1 1 107 169 110 111
928 4 2 1 1 110 169 107 165
929 4 2 1 1 134 182 185 120
930 4 2 1 1 134 185 182 192
931 4 2 1 1 206 103 202 105
932 4 2 1 1 202 103 206 179
933 4 2 1 1 176 123 179 115
934 4 2 1 1 179 123 176 175
935 4 2 1 1 136 29 189 76
936 4 2 1 1 136 189 29 200
937 4 2 1 1 134 185 150 92
938 4 2 1 1 134 150 185 192
939 4 2 1 1 74 143 23 194
940 4 2 1 1 23 143 74 30
941 4 2 1 1 118 181 121 173
942 4 2 1 1 118 121 181 117
943 4 2 1 1 124 134 178 127
944 4 2 1 1 150 178 134 127
945 4 2 1 1 150 134 178 192
946 4 2 1 1 134 178 204 124
947 4 2 1 1 134 204 178 192
$EndElements
