$MeshFormat
2.2 0 8
$EndMeshFormat
$PhysicalNames
2
2 2 "Sphere_Boundary"
3 1 "Fluid"
$EndPhysicalNames
$Nodes
200
1 3.061616997868383e-17 -7.498798913309288e-33 0.5
2 3.061616997868383e-17 -7.498798913309288e-33 -0.5
3 0.154508497187474 -3.784366730434158e-17 -0.4755282581475767
4 0.2938926261462368 -7.198293278059974e-17 -0.4045084971874735
5 0.4045084971874742 -9.907600726170927e-17 -0.293892626146236
6 0.475528258147577 -1.164708318489093e-16 -0.154508497187473
7 0.5 -1.224646799147353e-16 7.657137397853899e-16
8 0.4755282581475767 -1.164708318489092e-16 0.154508497187474
9 0.4045084971874738 -9.907600726170918e-17 0.2938926261462365
10 0.293892626146237 -7.198293278059977e-17 0.4045084971874734
11 0.1545084971874747 -3.784366730434174e-17 0.4755282581475765
12 0.4691171175989617 -0.1442989718626743 0.09543027137662895
13 0.2185763491207971 -0.1349086139510939 -0.428980239040003
14 0.2185763491474381 -0.1349086139656465 0.4289802390218521
15 0.4289802390398976 -0.1349086139510624 -0.2185763491210234
16 0.4766607763040919 -0.1312931054588749 -0.07454277156200488
17 0.4076225471962073 -0.2595209948849996 -0.1284239550519131
18 0.3483456479836188 -0.253997261016034 -0.2532601447666518
19 0.346081762102379 -0.1239418588298961 -0.3389186179157209
20 0.07531627702520503 -0.1349086139510468 0.4755282581475784
21 0.0698331513994324 -0.1315243462511946 -0.4773098336602964
22 0.1330027011838447 -0.2633153769033511 -0.4037019863266059
23 0.2985132750176483 -0.3645766738922595 -0.1672533213179784
24 0.1317580645062373 -0.2611546584734535 0.4055096260203745
25 0.3559435901796082 -0.3500921343082191 -0.02719665614679536
26 0.2247485648811413 -0.4433621561615854 -0.05401926570786925
27 0.2717315829081471 -0.2496002987189185 0.3374339012749896
28 0.173758504779318 -0.3639947715233671 0.2954924505304788
29 0.159962411989426 -0.431319632735101 -0.1958964041726718
30 0.07644736378364896 -0.488358994444373 -0.07524156508082046
31 0.02585776689526826 -0.359815452754555 0.3462141185021555
32 -0.0332186062140784 -0.2747267498828856 -0.4164393558490604
33 0.4289802390399462 0.1349086139507819 0.2185763491211013
34 0.4289802390399401 0.1349086139508837 -0.2185763491210503
35 0.2185763491210323 0.1349086139510531 0.428980239039896
36 0.2226645853075735 0.1438923421850886 -0.4239286217163164
37 0.005827060310227179 -0.4530567815472154 -0.2114369836670484
38 -0.07970614778072525 -0.486449011506387 -0.08375135348408509
39 -0.1485227141871298 -0.4276187478348564 -0.2123280713203923
40 -0.2283880537236262 -0.4380293272250601 -0.07726063297110163
41 -0.2876961321588343 -0.3575419358888182 -0.1984809805037318
42 -0.354559703056439 -0.347956330189526 -0.05669046877180783
43 -0.3978157570963935 -0.2498139259606278 -0.1712764601513041
44 -0.4458718207173609 -0.2249442489820203 -0.02446230447240113
45 -0.382378227001812 -0.3088797645387567 0.09154333713292856
46 -0.4528509347368719 -0.1727607609069824 0.1227996351736513
47 -0.3685187742851938 -0.2443844854537547 0.2333883807494323
48 -0.4205763600528391 -0.09778463595880134 0.2520985726558351
49 -0.3143147187397626 -0.1608409126061569 0.3540288948879208
50 -0.3530787021761802 -0.00907413149401989 0.3539111332060825
51 -0.151188087944464 -0.4740030981835097 0.04963088731960266
52 -0.3138042849328484 -0.2442242399279635 -0.3031194341994459
53 -0.4060724721523197 -0.1241029708903867 -0.2640143935021032
54 -0.4921521930442175 -0.08746619494208577 0.01165691314715519
55 -0.4307045774495014 0.05791872635651336 0.2472629937966573
56 -0.3502106484576156 0.1491903233391618 0.3241832030331812
57 -0.4058441999236475 0.2079531277198544 0.2050511693696584
58 -0.301970920423709 0.2925630932387553 0.2705926822606801
59 -0.3432791640235714 0.3363148150373808 0.1380281157360714
60 -0.2207863880449489 0.403446359689407 0.1961744267416905
61 -0.250006887627542 0.4293555291715803 0.05612829686158142
62 -0.110866301259261 0.472782886303586 0.1191008214226136
63 -0.1355925654718408 0.4800057972339096 -0.03477198312727406
64 0.00882382131270262 0.4994845446835992 0.02091243170124187
65 -0.2648411061891441 0.4136607731062062 -0.09350910792904771
66 -0.1413633930997062 0.441741629004974 -0.1867638195565991
67 -0.2603385438889366 0.3563834941893907 -0.2349779726594576
68 0.03617050959336776 0.4679834555335215 0.1722880715042706
69 0.1544157848071455 0.4703936787947132 0.06989672633514028
70 0.1226579918351036 0.4775428708562907 -0.08311331742453636
71 -0.3084475505716001 -0.1138108854146158 -0.3767057086208297
72 -0.218447263331448 0.2222830661967438 0.3909872525098165
73 -0.126510643483131 0.3621934595130564 -0.3206414741911098
74 -0.3633234388496648 0.3074165382187 -0.1532682315813829
75 0.2616079341027067 0.4248853062989529 -0.03215222085267037
76 -0.2352524765222792 0.256476389136857 -0.3589932229241298
77 0.216942586518133 0.4156330441870028 -0.1737385585719744
78 0.1773057663569727 0.4153752603464307 0.2145368460397922
79 0.05461231536356228 0.3927390010716617 0.3045875441443136
80 -0.09289209257470657 0.2491596404199877 -0.4234271279959216
81 0.02571351787191058 0.3708067348262691 -0.3344266442826168
82 -0.2251709220916506 -0.06657944589647735 0.4414354236222031
83 0.05397997714866068 -0.4580573937986576 0.1930533243780371
84 -0.3784579474399248 0.01670210228620075 -0.326329008515609
85 -0.2601540927398655 -0.2921115101858874 0.3114333213508433
86 -0.193402212049935 0.1307583712128876 -0.4421513685740944
87 -0.09883963340049361 -0.1440752766327307 -0.4684794995861165
88 0.2976852889335752 -0.3425045629796536 0.2099383078207748
89 0.3451738891267851 0.3391662056826594 -0.1257826346834803
90 0.3793229844195128 0.3246282261728389 0.02702939627424599
91 0.2830919267916435 0.3104767581194123 -0.2710408523692595
92 -0.4608475416824384 0.004566914323047288 -0.1939038076439426
93 -0.4326527699845271 0.2423070282795173 0.06402253252617483
94 0.07396384093555379 0.4473323667628303 -0.2107678910091023
95 -0.08724277706936402 -0.4201869428408209 0.2565767544328791
96 0.1890455023796864 0.3179736799914183 0.3363845074653812
97 0.05935548295327187 0.2756236749206606 0.4129267688908214
98 0.2805909641415512 0.3372481389832407 0.2398591328143572
99 0.3886354716267868 -0.2176999735542294 0.22708851073516
100 -0.419526083210463 0.1576895471118643 -0.2216571050919479
101 -0.4732132024054626 0.1223790465211648 -0.1053215744362819
102 -0.07882091653248356 0.331737626802507 0.3657012579694249
103 0.4315716505508419 0.2368421293162485 -0.08747408885931578
104 0.06347804213296689 0.2436456790738879 -0.4319806954431984
105 0.1537164626705815 0.2883126412628015 -0.3784799466181938
106 0.158144104029711 0.3861216137762521 -0.2755005294649407
107 -0.1962361787049919 -0.2205271179431202 -0.4035581152931553
108 0.1388198398853271 -0.4762639630243083 0.06246350597422811
109 -0.06041648066245077 -0.3947764065916523 -0.3008345685970051
110 0.2710573508747218 -0.2294295465181239 -0.3519801069964977
111 0.4521901807551496 0.2027385741140609 0.06649143549978909
112 0.3936720444946435 -0.2903200807608111 0.1036174314024605
113 -0.07857685624841508 0.2272200341217902 0.4384024791852897
114 -0.170162706654211 0.08149032202058011 0.4630377745725451
115 0.06582827951837951 0.1332414531873862 0.4774027155014555
116 0.07531627702520576 0.134908613951052 -0.4755282581475768
117 0.3438866387913099 0.1437581401101839 -0.3332800276237324
118 0.3442052215379941 0.1142170343335933 0.3442052215379935
119 0.3525745830757649 -0.1259540316326766 0.3314011847963511
120 -0.3333509396240029 0.1493490034775 -0.3414264579848375
121 -0.02149679768501391 -0.2496002986904949 0.4327095776417542
122 -0.1790243308191952 -0.2022236366441034 0.4207800966742283
123 -0.09687126438870208 -0.1223646871440188 0.4750187801296709
124 0.226621776037179 -0.3431511892862691 -0.2844113779671513
125 0.07242317321829657 -0.3781296653267158 -0.3190185577374748
126 0.2792688518893907 -0.407027421409525 0.07960896045731565
127 -0.005297910338769455 -0.497493193513992 0.04972378257224782
128 -0.2787957670160699 -0.4103613362459117 0.06226149699767122
129 -0.1885956425145457 -0.336856565673156 -0.3177409916699646
130 -0.4704795456494142 -0.1179623856466222 -0.1213831648050026
131 -0.06855742348410726 0.4211807499277225 0.2605890549803312
132 -0.2922165196446828 -0.3565726113983094 0.1935600125215405
133 0.2886011025462851 0.3905850612732835 0.1189651777589308
134 -0.3639762281963297 0.3426919315671453 -0.009140314368352009
135 -0.02076024048841452 0.4827457695603596 -0.1285516798273727
136 -0.4707599527321978 0.1185144062311658 0.119747243890008
137 -0.4786420120187591 -0.02413378991741661 0.1425460785670937
138 -0.06224719008183797 0.1362244673632876 -0.4770410693205608
139 -0.128417332186317 -0.336239323345902 0.34706210716533
140 -0.2703372630276857 -0.002390652359608792 -0.4206091404142275
141 -0.1274197731120937 -0.004596133265738308 -0.4834698304745252
142 -0.333989492247547 0.2521716008912932 -0.2736064742877041
143 0.1969881888304064 -0.4268861570890627 0.1701877267814817
144 0.297108937522812 0.2265264300310942 0.3322830957804407
145 0.4394510316367488 -0.2384297946809609 -0.005832992524606087
146 0.4832331312318336 0.1166437257560868 -0.05366546488773122
147 0.4361494024033819 -0.1025128188992607 0.2219567992752198
148 -0.07931461723109819 -0.4719091298459995 0.1449515942012227
149 -0.1896857947008035 -0.4314856302278605 0.1668515813397963
150 -0.1985466093765679 -0.3769890334086669 0.261645776947895
151 0.3831306575087816 0.2443395173925775 -0.2085883494283683
152 0.4850845592353151 0.09375577363479304 0.07682984642456028
153 0.379091103190403 0.2748260956971348 0.1753868655451501
154 -0.206356394455728 -0.1089785091483069 -0.4421998677193881
155 -0.493785696128998 0.008756065942995545 -0.07809620738296325
156 -0.1885510186105584 0.3512283338048309 0.3018065123777205
157 -0.04346640720593257 0.4274726720444265 -0.2556908017504859
158 -0.4365032703857941 0.2343727050133603 -0.06733743451622375
159 0.2554350995077282 0.2290811423751765 -0.3636959446399713
160 -0.4971235646066958 0.03397477013216123 0.04139899162055999
161 -0.2811377442046272 0.08261384352920702 0.4051376576435043
162 0.1747233896233411 0.235897169915508 0.4047520998640823
163 -0.4784690577749883 0.1449855763668545 0.006822272164453714
164 -5.551115123125783e-17 0 -1.665334536937735e-16
165 -0.1179333586179917 -0.1980802882106528 0.1028514025262552
166 -0.2450695218553182 0.02279083877491049 0.0578722359299963
167 -0.0006993164688336162 0.2320718268297583 -0.10076717319536
168 -0.1778634896527697 -0.08396360522413773 -0.1617522149958161
169 0.2255282581475767 -0.01102690723753687 0.1149123871063396
170 0.04244793978512951 -0.2406599237979274 -0.08438987430328826
171 0.1480795651546502 -0.04564912099082104 -0.204086081821781
172 0.07271861833793153 0.1935857693355325 0.147740730299461
173 0.01316907924080013 -0.03903321543556404 0.2497059532273205
174 -0.2027623244959839 0.1376274931778902 -0.1310414069257131
175 0.2157977980472727 0.1534527490964052 -0.07681147355096601
176 -0.149364850895093 0.2273191842292475 0.06953622690399687
177 0.134403379706829 -0.2167324381257144 0.1196007182643293
178 -0.03008398868706721 0.07846011066383679 -0.2622097025342306
179 0.2526899068697979 -0.1496763060213452 -0.03985517147645976
180 -0.1688756724807831 0.0880573321545844 0.2638296397283855
181 -0.1455975516792533 -0.2680642147378701 -0.1067533512589421
182 -0.2679713582194107 -0.1555152439565834 -0.008505644712575894
183 -0.0211861852446156 -0.1222015737842659 -0.2833263751530168
184 0.1317150693314648 0.165973094959989 -0.2412771669716372
185 -0.2460224099722933 -0.1017355193796732 0.1935408580742962
186 0.1874790856010215 0.1003492892989375 0.2533340770617113
187 0.1337289352202044 0.2976160311124055 0.007747956313868223
188 0.0009519186348623809 -0.3264045427373325 0.08843227982919938
189 0.3277033872097691 0.01404659388888577 -0.0519031175756736
190 -0.31352104766469 0.006739443692413618 -0.10131235533137
191 0.1934038079137071 -0.1140046084453472 0.2551255004507133
192 -0.03158222128042601 -0.2159395094708761 0.2578660682249193
193 -0.01555237586359341 0.3409497805774037 0.07376084700921792
194 0.2554043533424025 0.1667993757236815 0.09929074665536478
195 -0.2930525264783192 0.1732751602900006 0.004505149407679661
196 -0.1530436555856349 0.2940541544974111 -0.1140981304856927
197 0.1202238588540048 -0.213936237738598 -0.2375293425768675
198 -0.1406247730739636 -0.02161576564838252 -0.3236433606160785
199 -0.1221154993344949 0.2120225663908081 -0.2510220502347779
200 -0.06700499682124855 0.2607264842936948 0.2117742973666015
$EndNodes
$Elements
952
1 2 2 2 1 1 20 11
2 2 2 2 1 11 115 1
3 2 2 2 1 1 123 20
4 2 2 2 1 1 115 114
5 2 2 2 1 114 123 1
6 2 2 2 1 3 21 2
7 2 2 2 1 2 116 3
8 2 2 2 1 21 87 2
9 2 2 2 1 87 141 2
10 2 2 2 1 2 138 116
11 2 2 2 1 2 141 138
12 2 2 2 1 4 13 3
13 2 2 2 1 3 36 4
14 2 2 2 1 13 21 3
15 2 2 2 1 3 116 36
16 2 2 2 1 5 19 4
17 2 2 2 1 4 117 5
18 2 2 2 1 4 19 13
19 2 2 2 1 36 117 4
20 2 2 2 1 6 15 5
21 2 2 2 1 5 34 6
22 2 2 2 1 15 19 5
23 2 2 2 1 5 117 34
24 2 2 2 1 7 16 6
25 2 2 2 1 6 146 7
26 2 2 2 1 6 16 15
27 2 2 2 1 34 146 6
28 2 2 2 1 8 12 7
29 2 2 2 1 7 152 8
30 2 2 2 1 12 16 7
31 2 2 2 1 146 152 7
32 2 2 2 1 8 33 9
33 2 2 2 1 9 147 8
34 2 2 2 1 8 147 12
35 2 2 2 1 8 152 33
36 2 2 2 1 9 118 10
37 2 2 2 1 10 119 9
38 2 2 2 1 33 118 9
39 2 2 2 1 119 147 9
40 2 2 2 1 11 14 10
41 2 2 2 1 10 35 11
42 2 2 2 1 14 119 10
43 2 2 2 1 10 118 35
44 2 2 2 1 11 20 14
45 2 2 2 1 35 115 11
46 2 2 2 1 12 145 16
47 2 2 2 1 99 112 12
48 2 2 2 1 12 147 99
49 2 2 2 1 112 145 12
50 2 2 2 1 19 110 13
51 2 2 2 1 13 22 21
52 2 2 2 1 13 110 22
53 2 2 2 1 20 24 14
54 2 2 2 1 24 27 14
55 2 2 2 1 27 119 14
56 2 2 2 1 16 17 15
57 2 2 2 1 17 18 15
58 2 2 2 1 18 19 15
59 2 2 2 1 16 145 17
60 2 2 2 1 17 23 18
61 2 2 2 1 17 25 23
62 2 2 2 1 17 145 25
63 2 2 2 1 18 110 19
64 2 2 2 1 23 124 18
65 2 2 2 1 18 124 110
66 2 2 2 1 20 121 24
67 2 2 2 1 20 123 121
68 2 2 2 1 22 32 21
69 2 2 2 1 32 87 21
70 2 2 2 1 22 125 32
71 2 2 2 1 110 124 22
72 2 2 2 1 124 125 22
73 2 2 2 1 25 26 23
74 2 2 2 1 26 29 23
75 2 2 2 1 29 124 23
76 2 2 2 1 24 28 27
77 2 2 2 1 24 31 28
78 2 2 2 1 24 121 31
79 2 2 2 1 25 126 26
80 2 2 2 1 112 126 25
81 2 2 2 1 25 145 112
82 2 2 2 1 26 30 29
83 2 2 2 1 26 108 30
84 2 2 2 1 26 126 108
85 2 2 2 1 28 88 27
86 2 2 2 1 88 99 27
87 2 2 2 1 99 119 27
88 2 2 2 1 31 83 28
89 2 2 2 1 83 143 28
90 2 2 2 1 28 143 88
91 2 2 2 1 30 37 29
92 2 2 2 1 37 125 29
93 2 2 2 1 29 125 124
94 2 2 2 1 30 38 37
95 2 2 2 1 30 127 38
96 2 2 2 1 108 127 30
97 2 2 2 1 31 95 83
98 2 2 2 1 31 139 95
99 2 2 2 1 121 139 31
100 2 2 2 1 32 107 87
101 2 2 2 1 32 129 107
102 2 2 2 1 32 125 109
103 2 2 2 1 109 129 32
104 2 2 2 1 33 152 111
105 2 2 2 1 111 153 33
106 2 2 2 1 33 144 118
107 2 2 2 1 33 153 144
108 2 2 2 1 103 146 34
109 2 2 2 1 34 151 103
110 2 2 2 1 117 151 34
111 2 2 2 1 35 162 115
112 2 2 2 1 118 144 35
113 2 2 2 1 144 162 35
114 2 2 2 1 104 105 36
115 2 2 2 1 36 116 104
116 2 2 2 1 105 159 36
117 2 2 2 1 36 159 117
118 2 2 2 1 38 39 37
119 2 2 2 1 39 109 37
120 2 2 2 1 109 125 37
121 2 2 2 1 38 40 39
122 2 2 2 1 38 51 40
123 2 2 2 1 38 127 51
124 2 2 2 1 40 41 39
125 2 2 2 1 41 129 39
126 2 2 2 1 39 129 109
127 2 2 2 1 40 42 41
128 2 2 2 1 40 128 42
129 2 2 2 1 51 128 40
130 2 2 2 1 42 43 41
131 2 2 2 1 43 52 41
132 2 2 2 1 52 129 41
133 2 2 2 1 42 44 43
134 2 2 2 1 42 45 44
135 2 2 2 1 42 128 45
136 2 2 2 1 44 130 43
137 2 2 2 1 43 53 52
138 2 2 2 1 43 130 53
139 2 2 2 1 45 46 44
140 2 2 2 1 46 54 44
141 2 2 2 1 54 130 44
142 2 2 2 1 45 47 46
143 2 2 2 1 45 132 47
144 2 2 2 1 128 132 45
145 2 2 2 1 47 48 46
146 2 2 2 1 48 137 46
147 2 2 2 1 46 137 54
148 2 2 2 1 47 49 48
149 2 2 2 1 47 85 49
150 2 2 2 1 47 132 85
151 2 2 2 1 49 50 48
152 2 2 2 1 50 55 48
153 2 2 2 1 55 137 48
154 2 2 2 1 49 82 50
155 2 2 2 1 49 122 82
156 2 2 2 1 85 122 49
157 2 2 2 1 50 56 55
158 2 2 2 1 50 161 56
159 2 2 2 1 82 161 50
160 2 2 2 1 127 148 51
161 2 2 2 1 51 149 128
162 2 2 2 1 148 149 51
163 2 2 2 1 53 71 52
164 2 2 2 1 71 107 52
165 2 2 2 1 107 129 52
166 2 2 2 1 53 84 71
167 2 2 2 1 53 92 84
168 2 2 2 1 53 130 92
169 2 2 2 1 54 155 130
170 2 2 2 1 137 160 54
171 2 2 2 1 54 160 155
172 2 2 2 1 56 57 55
173 2 2 2 1 57 136 55
174 2 2 2 1 136 137 55
175 2 2 2 1 56 58 57
176 2 2 2 1 56 72 58
177 2 2 2 1 56 161 72
178 2 2 2 1 58 59 57
179 2 2 2 1 59 93 57
180 2 2 2 1 93 136 57
181 2 2 2 1 58 60 59
182 2 2 2 1 58 156 60
183 2 2 2 1 72 156 58
184 2 2 2 1 60 61 59
185 2 2 2 1 61 134 59
186 2 2 2 1 59 134 93
187 2 2 2 1 60 62 61
188 2 2 2 1 60 131 62
189 2 2 2 1 60 156 131
190 2 2 2 1 62 63 61
191 2 2 2 1 63 65 61
192 2 2 2 1 65 134 61
193 2 2 2 1 62 64 63
194 2 2 2 1 62 68 64
195 2 2 2 1 62 131 68
196 2 2 2 1 64 135 63
197 2 2 2 1 63 66 65
198 2 2 2 1 63 135 66
199 2 2 2 1 68 69 64
200 2 2 2 1 69 70 64
201 2 2 2 1 70 135 64
202 2 2 2 1 66 67 65
203 2 2 2 1 67 74 65
204 2 2 2 1 74 134 65
205 2 2 2 1 66 73 67
206 2 2 2 1 66 157 73
207 2 2 2 1 135 157 66
208 2 2 2 1 73 76 67
209 2 2 2 1 67 142 74
210 2 2 2 1 76 142 67
211 2 2 2 1 68 78 69
212 2 2 2 1 68 79 78
213 2 2 2 1 68 131 79
214 2 2 2 1 69 75 70
215 2 2 2 1 69 133 75
216 2 2 2 1 78 133 69
217 2 2 2 1 75 77 70
218 2 2 2 1 77 94 70
219 2 2 2 1 94 135 70
220 2 2 2 1 84 140 71
221 2 2 2 1 71 154 107
222 2 2 2 1 140 154 71
223 2 2 2 1 72 113 102
224 2 2 2 1 102 156 72
225 2 2 2 1 72 114 113
226 2 2 2 1 72 161 114
227 2 2 2 1 73 80 76
228 2 2 2 1 73 81 80
229 2 2 2 1 73 157 81
230 2 2 2 1 74 142 100
231 2 2 2 1 100 158 74
232 2 2 2 1 74 158 134
233 2 2 2 1 75 89 77
234 2 2 2 1 75 90 89
235 2 2 2 1 75 133 90
236 2 2 2 1 80 86 76
237 2 2 2 1 86 120 76
238 2 2 2 1 120 142 76
239 2 2 2 1 89 91 77
240 2 2 2 1 91 106 77
241 2 2 2 1 77 106 94
242 2 2 2 1 79 96 78
243 2 2 2 1 96 98 78
244 2 2 2 1 98 133 78
245 2 2 2 1 79 97 96
246 2 2 2 1 79 102 97
247 2 2 2 1 79 131 102
248 2 2 2 1 81 104 80
249 2 2 2 1 80 138 86
250 2 2 2 1 104 138 80
251 2 2 2 1 94 106 81
252 2 2 2 1 81 157 94
253 2 2 2 1 81 105 104
254 2 2 2 1 81 106 105
255 2 2 2 1 82 123 114
256 2 2 2 1 114 161 82
257 2 2 2 1 122 123 82
258 2 2 2 1 95 148 83
259 2 2 2 1 83 127 108
260 2 2 2 1 108 143 83
261 2 2 2 1 83 148 127
262 2 2 2 1 92 100 84
263 2 2 2 1 100 120 84
264 2 2 2 1 120 140 84
265 2 2 2 1 85 139 122
266 2 2 2 1 132 150 85
267 2 2 2 1 85 150 139
268 2 2 2 1 86 140 120
269 2 2 2 1 138 141 86
270 2 2 2 1 86 141 140
271 2 2 2 1 107 154 87
272 2 2 2 1 87 154 141
273 2 2 2 1 88 112 99
274 2 2 2 1 88 126 112
275 2 2 2 1 88 143 126
276 2 2 2 1 90 103 89
277 2 2 2 1 89 151 91
278 2 2 2 1 103 151 89
279 2 2 2 1 90 111 103
280 2 2 2 1 90 153 111
281 2 2 2 1 133 153 90
282 2 2 2 1 105 106 91
283 2 2 2 1 91 159 105
284 2 2 2 1 91 151 117
285 2 2 2 1 117 159 91
286 2 2 2 1 92 101 100
287 2 2 2 1 92 155 101
288 2 2 2 1 130 155 92
289 2 2 2 1 134 158 93
290 2 2 2 1 93 163 136
291 2 2 2 1 158 163 93
292 2 2 2 1 94 157 135
293 2 2 2 1 139 150 95
294 2 2 2 1 95 149 148
295 2 2 2 1 95 150 149
296 2 2 2 1 97 162 96
297 2 2 2 1 96 144 98
298 2 2 2 1 96 162 144
299 2 2 2 1 102 113 97
300 2 2 2 1 113 115 97
301 2 2 2 1 115 162 97
302 2 2 2 1 98 153 133
303 2 2 2 1 144 153 98
304 2 2 2 1 99 147 119
305 2 2 2 1 101 158 100
306 2 2 2 1 100 142 120
307 2 2 2 1 155 163 101
308 2 2 2 1 101 163 158
309 2 2 2 1 131 156 102
310 2 2 2 1 111 146 103
311 2 2 2 1 116 138 104
312 2 2 2 1 126 143 108
313 2 2 2 1 111 152 146
314 2 2 2 1 114 115 113
315 2 2 2 1 121 123 122
316 2 2 2 1 122 139 121
317 2 2 2 1 128 149 132
318 2 2 2 1 149 150 132
319 2 2 2 1 136 160 137
320 2 2 2 1 136 163 160
321 2 2 2 1 141 154 140
322 2 2 2 1 160 163 155
323 4 2 1 1 165 173 166 185
324 4 2 1 1 173 180 166 185
325 4 2 1 1 169 179 164 189
326 4 2 1 1 117 171 5 189
327 4 2 1 1 106 77 167 184
328 4 2 1 1 164 166 165 173
329 4 2 1 1 169 164 175 189
330 4 2 1 1 23 170 26 179
331 4 2 1 1 164 179 171 189
332 4 2 1 1 26 170 177 179
333 4 2 1 1 34 117 5 189
334 4 2 1 1 171 175 164 189
335 4 2 1 1 117 175 171 189
336 4 2 1 1 122 185 173 192
337 4 2 1 1 26 108 177 188
338 4 2 1 1 128 165 51 181
339 4 2 1 1 19 18 15 171
340 4 2 1 1 165 168 164 181
341 4 2 1 1 165 164 170 181
342 4 2 1 1 46 54 137 182
343 4 2 1 1 77 94 106 167
344 4 2 1 1 34 175 117 189
345 4 2 1 1 132 165 45 185
346 4 2 1 1 26 177 126 179
347 4 2 1 1 51 128 149 165
348 4 2 1 1 15 171 18 179
349 4 2 1 1 171 175 117 184
350 4 2 1 1 57 176 180 195
351 4 2 1 1 150 95 149 165
352 4 2 1 1 97 172 115 200
353 4 2 1 1 57 180 166 195
354 4 2 1 1 26 126 25 179
355 4 2 1 1 115 172 97 186
356 4 2 1 1 99 177 169 179
357 4 2 1 1 132 128 45 165
358 4 2 1 1 77 167 184 187
359 4 2 1 1 164 178 167 184
360 4 2 1 1 167 175 164 184
361 4 2 1 1 57 55 166 180
362 4 2 1 1 116 178 3 184
363 4 2 1 1 3 178 171 184
364 4 2 1 1 164 166 173 180
365 4 2 1 1 26 177 170 188
366 4 2 1 1 54 166 137 182
367 4 2 1 1 5 171 15 189
368 4 2 1 1 168 170 164 181
369 4 2 1 1 164 175 171 184
370 4 2 1 1 99 112 177 179
371 4 2 1 1 54 160 137 166
372 4 2 1 1 164 171 178 184
373 4 2 1 1 115 173 172 186
374 4 2 1 1 169 175 172 194
375 4 2 1 1 99 169 12 179
376 4 2 1 1 77 184 175 187
377 4 2 1 1 149 132 150 165
378 4 2 1 1 172 173 115 200
379 4 2 1 1 57 176 58 180
380 4 2 1 1 132 45 47 185
381 4 2 1 1 51 181 165 188
382 4 2 1 1 55 136 57 166
383 4 2 1 1 85 150 132 165
384 4 2 1 1 57 56 55 180
385 4 2 1 1 19 15 5 171
386 4 2 1 1 170 179 23 197
387 4 2 1 1 165 164 168 182
388 4 2 1 1 173 180 115 200
389 4 2 1 1 99 147 12 169
390 4 2 1 1 23 29 26 170
391 4 2 1 1 113 97 115 200
392 4 2 1 1 165 166 164 182
393 4 2 1 1 112 99 12 179
394 4 2 1 1 113 115 180 200
395 4 2 1 1 171 179 15 189
396 4 2 1 1 165 182 45 185
397 4 2 1 1 45 165 128 182
398 4 2 1 1 165 181 128 182
399 4 2 1 1 109 181 170 183
400 4 2 1 1 164 172 169 175
401 4 2 1 1 23 26 25 179
402 4 2 1 1 166 164 174 176
403 4 2 1 1 171 178 3 183
404 4 2 1 1 51 165 149 188
405 4 2 1 1 160 166 54 190
406 4 2 1 1 99 169 177 191
407 4 2 1 1 167 174 164 176
408 4 2 1 1 132 149 128 165
409 4 2 1 1 110 18 19 197
410 4 2 1 1 126 26 108 177
411 4 2 1 1 59 176 57 195
412 4 2 1 1 136 57 166 195
413 4 2 1 1 164 167 172 175
414 4 2 1 1 164 170 168 183
415 4 2 1 1 164 168 174 178
416 4 2 1 1 168 181 165 182
417 4 2 1 1 166 168 164 182
418 4 2 1 1 59 58 57 176
419 4 2 1 1 94 167 77 187
420 4 2 1 1 172 175 167 187
421 4 2 1 1 166 180 55 185
422 4 2 1 1 164 174 167 178
423 4 2 1 1 98 78 133 187
424 4 2 1 1 98 172 78 187
425 4 2 1 1 18 179 171 197
426 4 2 1 1 109 183 170 197
427 4 2 1 1 164 177 170 179
428 4 2 1 1 164 165 170 177
429 4 2 1 1 166 164 168 174
430 4 2 1 1 164 176 166 180
431 4 2 1 1 170 171 164 179
432 4 2 1 1 164 168 178 183
433 4 2 1 1 160 136 166 195
434 4 2 1 1 164 171 170 183
435 4 2 1 1 43 168 53 190
436 4 2 1 1 29 170 23 197
437 4 2 1 1 43 52 168 181
438 4 2 1 1 136 137 160 166
439 4 2 1 1 85 150 165 192
440 4 2 1 1 164 172 167 176
441 4 2 1 1 2 3 178 183
442 4 2 1 1 164 173 165 177
443 4 2 1 1 164 169 177 179
444 4 2 1 1 43 182 168 190
445 4 2 1 1 164 178 171 183
446 4 2 1 1 38 181 51 188
447 4 2 1 1 168 190 174 198
448 4 2 1 1 160 163 136 195
449 4 2 1 1 130 43 53 190
450 4 2 1 1 23 179 18 197
451 4 2 1 1 18 171 19 197
452 4 2 1 1 95 165 150 192
453 4 2 1 1 166 190 160 195
454 4 2 1 1 50 55 180 185
455 4 2 1 1 98 187 133 194
456 4 2 1 1 163 160 190 195
457 4 2 1 1 130 182 43 190
458 4 2 1 1 43 41 52 181
459 4 2 1 1 98 172 187 194
460 4 2 1 1 70 135 187 193
461 4 2 1 1 137 166 55 185
462 4 2 1 1 85 165 132 185
463 4 2 1 1 70 94 77 187
464 4 2 1 1 38 30 170 188
465 4 2 1 1 42 128 181 182
466 4 2 1 1 170 181 38 188
467 4 2 1 1 94 70 135 167
468 4 2 1 1 70 135 167 187
469 4 2 1 1 43 181 168 182
470 4 2 1 1 147 169 99 191
471 4 2 1 1 40 128 51 181
472 4 2 1 1 55 137 136 166
473 4 2 1 1 126 112 25 179
474 4 2 1 1 149 165 95 188
475 4 2 1 1 169 172 164 173
476 4 2 1 1 5 117 4 171
477 4 2 1 1 4 171 117 184
478 4 2 1 1 167 187 135 193
479 4 2 1 1 152 169 8 194
480 4 2 1 1 96 172 98 186
481 4 2 1 1 13 3 21 171
482 4 2 1 1 147 8 12 169
483 4 2 1 1 81 106 94 167
484 4 2 1 1 162 97 172 186
485 4 2 1 1 126 177 112 179
486 4 2 1 1 37 170 109 181
487 4 2 1 1 2 3 116 178
488 4 2 1 1 81 106 167 184
489 4 2 1 1 43 52 53 168
490 4 2 1 1 37 38 170 181
491 4 2 1 1 166 182 54 190
492 4 2 1 1 162 97 96 172
493 4 2 1 1 175 184 167 187
494 4 2 1 1 116 3 36 184
495 4 2 1 1 97 79 96 172
496 4 2 1 1 164 169 173 177
497 4 2 1 1 70 167 94 187
498 4 2 1 1 174 198 120 199
499 4 2 1 1 8 12 169 189
500 4 2 1 1 168 181 129 183
501 4 2 1 1 135 193 63 196
502 4 2 1 1 172 173 169 186
503 4 2 1 1 37 38 30 170
504 4 2 1 1 166 180 176 195
505 4 2 1 1 135 167 193 196
506 4 2 1 1 8 169 152 189
507 4 2 1 1 98 96 78 172
508 4 2 1 1 70 64 135 193
509 4 2 1 1 91 175 77 184
510 4 2 1 1 129 168 52 181
511 4 2 1 1 46 47 45 185
512 4 2 1 1 129 107 52 168
513 4 2 1 1 157 94 135 167
514 4 2 1 1 12 179 169 189
515 4 2 1 1 46 45 182 185
516 4 2 1 1 50 180 82 185
517 4 2 1 1 78 79 68 193
518 4 2 1 1 20 191 24 192
519 4 2 1 1 168 84 190 198
520 4 2 1 1 77 175 89 187
521 4 2 1 1 129 181 109 183
522 4 2 1 1 52 107 71 168
523 4 2 1 1 85 185 122 192
524 4 2 1 1 147 9 8 169
525 4 2 1 1 129 107 168 183
526 4 2 1 1 85 165 185 192
527 4 2 1 1 57 58 56 180
528 4 2 1 1 173 186 11 191
529 4 2 1 1 9 169 147 191
530 4 2 1 1 122 173 123 192
531 4 2 1 1 157 167 135 196
532 4 2 1 1 78 172 79 193
533 4 2 1 1 26 29 30 170
534 4 2 1 1 21 171 3 183
535 4 2 1 1 56 50 55 180
536 4 2 1 1 170 177 165 188
537 4 2 1 1 152 189 169 194
538 4 2 1 1 98 186 172 194
539 4 2 1 1 81 184 167 199
540 4 2 1 1 13 171 21 183
541 4 2 1 1 28 24 191 192
542 4 2 1 1 63 176 61 196
543 4 2 1 1 13 171 183 197
544 4 2 1 1 166 174 168 190
545 4 2 1 1 165 177 173 192
546 4 2 1 1 162 172 96 186
547 4 2 1 1 71 84 53 168
548 4 2 1 1 61 176 134 196
549 4 2 1 1 99 112 88 177
550 4 2 1 1 81 94 157 167
551 4 2 1 1 48 137 55 185
552 4 2 1 1 97 79 172 200
553 4 2 1 1 63 61 176 193
554 4 2 1 1 63 193 176 196
555 4 2 1 1 106 91 77 184
556 4 2 1 1 4 19 5 171
557 4 2 1 1 18 23 17 179
558 4 2 1 1 126 108 143 177
559 4 2 1 1 176 195 134 196
560 4 2 1 1 1 115 173 180
561 4 2 1 1 85 132 47 185
562 4 2 1 1 11 186 10 191
563 4 2 1 1 52 71 53 168
564 4 2 1 1 5 15 6 189
565 4 2 1 1 117 175 151 184
566 4 2 1 1 167 176 172 193
567 4 2 1 1 79 78 96 172
568 4 2 1 1 38 127 30 188
569 4 2 1 1 50 161 82 180
570 4 2 1 1 170 181 168 183
571 4 2 1 1 53 168 84 190
572 4 2 1 1 91 89 77 175
573 4 2 1 1 43 42 181 182
574 4 2 1 1 65 61 134 196
575 4 2 1 1 15 18 17 179
576 4 2 1 1 45 128 42 182
577 4 2 1 1 13 4 3 171
578 4 2 1 1 81 167 157 199
579 4 2 1 1 178 184 104 199
580 4 2 1 1 37 170 29 197
581 4 2 1 1 157 167 196 199
582 4 2 1 1 89 175 90 187
583 4 2 1 1 37 39 38 181
584 4 2 1 1 119 9 147 191
585 4 2 1 1 33 152 8 194
586 4 2 1 1 12 145 112 179
587 4 2 1 1 122 49 82 185
588 4 2 1 1 43 42 41 181
589 4 2 1 1 58 180 176 200
590 4 2 1 1 40 51 38 181
591 4 2 1 1 11 20 173 191
592 4 2 1 1 9 186 169 191
593 4 2 1 1 10 186 9 191
594 4 2 1 1 85 139 150 192
595 4 2 1 1 37 109 39 181
596 4 2 1 1 40 42 128 181
597 4 2 1 1 173 185 165 192
598 4 2 1 1 120 174 100 190
599 4 2 1 1 30 29 37 170
600 4 2 1 1 78 187 172 193
601 4 2 1 1 71 168 107 198
602 4 2 1 1 20 173 191 192
603 4 2 1 1 155 160 54 190
604 4 2 1 1 28 191 177 192
605 4 2 1 1 2 21 3 183
606 4 2 1 1 166 176 174 195
607 4 2 1 1 146 111 103 189
608 4 2 1 1 157 135 66 196
609 4 2 1 1 151 117 34 175
610 4 2 1 1 95 188 165 192
611 4 2 1 1 11 14 20 191
612 4 2 1 1 177 188 28 192
613 4 2 1 1 33 8 169 194
614 4 2 1 1 37 29 125 197
615 4 2 1 1 100 101 190 195
616 4 2 1 1 46 137 48 185
617 4 2 1 1 84 168 71 198
618 4 2 1 1 143 177 108 188
619 4 2 1 1 126 88 112 177
620 4 2 1 1 81 104 184 199
621 4 2 1 1 86 120 198 199
622 4 2 1 1 19 4 13 171
623 4 2 1 1 36 4 117 184
624 4 2 1 1 33 169 9 186
625 4 2 1 1 51 149 148 188
626 4 2 1 1 9 33 8 169
627 4 2 1 1 13 183 21 197
628 4 2 1 1 99 177 88 191
629 4 2 1 1 173 177 169 191
630 4 2 1 1 100 190 174 195
631 4 2 1 1 75 89 90 187
632 4 2 1 1 49 122 85 185
633 4 2 1 1 107 168 183 198
634 4 2 1 1 130 54 182 190
635 4 2 1 1 31 28 188 192
636 4 2 1 1 8 7 12 189
637 4 2 1 1 61 59 134 176
638 4 2 1 1 67 174 142 199
639 4 2 1 1 59 134 176 195
640 4 2 1 1 79 193 172 200
641 4 2 1 1 90 187 175 194
642 4 2 1 1 155 163 160 190
643 4 2 1 1 103 90 175 194
644 4 2 1 1 75 77 89 187
645 4 2 1 1 115 11 173 186
646 4 2 1 1 149 95 148 188
647 4 2 1 1 120 142 174 199
648 4 2 1 1 165 181 170 188
649 4 2 1 1 58 59 60 176
650 4 2 1 1 74 142 67 174
651 4 2 1 1 63 62 61 193
652 4 2 1 1 58 176 60 200
653 4 2 1 1 15 179 16 189
654 4 2 1 1 174 176 167 196
655 4 2 1 1 158 174 74 195
656 4 2 1 1 16 179 12 189
657 4 2 1 1 16 145 12 179
658 4 2 1 1 78 69 187 193
659 4 2 1 1 111 189 152 194
660 4 2 1 1 174 178 168 198
661 4 2 1 1 178 198 174 199
662 4 2 1 1 78 68 69 193
663 4 2 1 1 135 64 63 193
664 4 2 1 1 109 32 183 197
665 4 2 1 1 127 38 51 188
666 4 2 1 1 120 100 84 190
667 4 2 1 1 158 100 174 195
668 4 2 1 1 103 175 34 189
669 4 2 1 1 171 179 170 197
670 4 2 1 1 166 182 165 185
671 4 2 1 1 62 176 61 193
672 4 2 1 1 156 72 58 200
673 4 2 1 1 162 115 97 186
674 4 2 1 1 167 178 174 199
675 4 2 1 1 17 23 25 179
676 4 2 1 1 31 28 83 188
677 4 2 1 1 158 101 100 195
678 4 2 1 1 118 33 9 186
679 4 2 1 1 170 183 171 197
680 4 2 1 1 113 115 114 180
681 4 2 1 1 103 90 89 175
682 4 2 1 1 34 5 6 189
683 4 2 1 1 109 125 32 197
684 4 2 1 1 91 151 175 184
685 4 2 1 1 175 187 172 194
686 4 2 1 1 103 111 90 194
687 4 2 1 1 167 184 178 199
688 4 2 1 1 62 60 61 176
689 4 2 1 1 136 93 57 195
690 4 2 1 1 124 23 18 197
691 4 2 1 1 29 23 124 197
692 4 2 1 1 144 96 98 186
693 4 2 1 1 74 134 195 196
694 4 2 1 1 58 60 156 200
695 4 2 1 1 104 178 116 184
696 4 2 1 1 169 186 33 194
697 4 2 1 1 10 118 9 186
698 4 2 1 1 159 117 91 184
699 4 2 1 1 93 59 57 195
700 4 2 1 1 24 121 20 192
701 4 2 1 1 167 172 187 193
702 4 2 1 1 145 25 112 179
703 4 2 1 1 130 54 44 182
704 4 2 1 1 62 60 176 193
705 4 2 1 1 1 114 115 180
706 4 2 1 1 88 177 27 191
707 4 2 1 1 74 195 174 196
708 4 2 1 1 163 190 101 195
709 4 2 1 1 99 88 27 191
710 4 2 1 1 41 129 52 181
711 4 2 1 1 17 16 15 179
712 4 2 1 1 72 180 58 200
713 4 2 1 1 2 183 178 198
714 4 2 1 1 50 82 49 185
715 4 2 1 1 1 11 20 173
716 4 2 1 1 14 11 10 191
717 4 2 1 1 157 196 73 199
718 4 2 1 1 46 44 54 182
719 4 2 1 1 67 196 174 199
720 4 2 1 1 100 74 158 174
721 4 2 1 1 50 48 55 185
722 4 2 1 1 74 100 142 174
723 4 2 1 1 151 34 103 175
724 4 2 1 1 13 21 22 197
725 4 2 1 1 32 129 109 183
726 4 2 1 1 8 152 7 189
727 4 2 1 1 147 99 119 191
728 4 2 1 1 2 116 138 178
729 4 2 1 1 74 174 67 196
730 4 2 1 1 130 44 43 182
731 4 2 1 1 95 150 139 192
732 4 2 1 1 90 133 187 194
733 4 2 1 1 20 14 24 191
734 4 2 1 1 161 50 56 180
735 4 2 1 1 142 100 120 174
736 4 2 1 1 85 122 139 192
737 4 2 1 1 168 182 166 190
738 4 2 1 1 11 35 10 186
739 4 2 1 1 28 24 27 191
740 4 2 1 1 88 28 27 177
741 4 2 1 1 10 9 119 191
742 4 2 1 1 121 123 20 192
743 4 2 1 1 111 146 152 189
744 4 2 1 1 101 163 155 190
745 4 2 1 1 91 151 89 175
746 4 2 1 1 95 31 188 192
747 4 2 1 1 30 127 108 188
748 4 2 1 1 91 117 151 184
749 4 2 1 1 98 144 186 194
750 4 2 1 1 176 193 60 200
751 4 2 1 1 68 193 79 200
752 4 2 1 1 63 61 65 196
753 4 2 1 1 74 65 134 196
754 4 2 1 1 165 188 177 192
755 4 2 1 1 120 76 142 199
756 4 2 1 1 71 107 154 198
757 4 2 1 1 126 143 88 177
758 4 2 1 1 60 59 61 176
759 4 2 1 1 28 27 177 191
760 4 2 1 1 86 178 138 199
761 4 2 1 1 86 198 178 199
762 4 2 1 1 103 34 146 189
763 4 2 1 1 123 173 20 192
764 4 2 1 1 138 116 104 178
765 4 2 1 1 157 66 73 196
766 4 2 1 1 62 60 193 200
767 4 2 1 1 169 172 186 194
768 4 2 1 1 86 76 120 199
769 4 2 1 1 6 15 16 189
770 4 2 1 1 169 186 173 191
771 4 2 1 1 81 105 106 184
772 4 2 1 1 1 115 11 173
773 4 2 1 1 31 83 95 188
774 4 2 1 1 176 193 167 196
775 4 2 1 1 28 31 24 192
776 4 2 1 1 66 135 63 196
777 4 2 1 1 113 180 72 200
778 4 2 1 1 73 81 157 199
779 4 2 1 1 7 16 12 189
780 4 2 1 1 45 44 46 182
781 4 2 1 1 43 44 42 182
782 4 2 1 1 2 178 138 198
783 4 2 1 1 169 189 175 194
784 4 2 1 1 115 35 11 186
785 4 2 1 1 141 2 138 198
786 4 2 1 1 72 56 58 180
787 4 2 1 1 133 75 90 187
788 4 2 1 1 133 78 69 187
789 4 2 1 1 92 53 84 190
790 4 2 1 1 177 191 173 192
791 4 2 1 1 140 120 84 198
792 4 2 1 1 151 103 89 175
793 4 2 1 1 39 109 129 181
794 4 2 1 1 17 25 145 179
795 4 2 1 1 129 32 107 183
796 4 2 1 1 102 97 113 200
797 4 2 1 1 21 183 22 197
798 4 2 1 1 17 145 16 179
799 4 2 1 1 130 155 54 190
800 4 2 1 1 131 68 79 200
801 4 2 1 1 45 42 44 182
802 4 2 1 1 174 195 176 196
803 4 2 1 1 88 143 28 177
804 4 2 1 1 80 104 81 199
805 4 2 1 1 178 183 168 198
806 4 2 1 1 42 40 41 181
807 4 2 1 1 138 178 86 198
808 4 2 1 1 39 40 38 181
809 4 2 1 1 46 48 47 185
810 4 2 1 1 92 84 100 190
811 4 2 1 1 80 86 138 199
812 4 2 1 1 130 53 92 190
813 4 2 1 1 140 86 120 198
814 4 2 1 1 36 117 159 184
815 4 2 1 1 114 82 161 180
816 4 2 1 1 81 104 105 184
817 4 2 1 1 140 84 71 198
818 4 2 1 1 62 131 60 200
819 4 2 1 1 20 123 1 173
820 4 2 1 1 87 183 2 198
821 4 2 1 1 70 77 75 187
822 4 2 1 1 83 143 108 188
823 4 2 1 1 131 193 68 200
824 4 2 1 1 97 102 79 200
825 4 2 1 1 144 33 118 186
826 4 2 1 1 141 87 2 198
827 4 2 1 1 174 190 166 195
828 4 2 1 1 124 18 110 197
829 4 2 1 1 33 186 144 194
830 4 2 1 1 162 35 115 186
831 4 2 1 1 136 163 93 195
832 4 2 1 1 62 193 131 200
833 4 2 1 1 76 67 142 199
834 4 2 1 1 172 193 176 200
835 4 2 1 1 167 174 196 199
836 4 2 1 1 107 87 154 198
837 4 2 1 1 111 152 33 194
838 4 2 1 1 98 153 144 194
839 4 2 1 1 98 133 153 194
840 4 2 1 1 59 93 134 195
841 4 2 1 1 36 104 116 184
842 4 2 1 1 49 85 47 185
843 4 2 1 1 13 22 110 197
844 4 2 1 1 113 72 102 200
845 4 2 1 1 127 51 148 188
846 4 2 1 1 87 21 2 183
847 4 2 1 1 106 105 91 184
848 4 2 1 1 32 22 183 197
849 4 2 1 1 73 196 67 199
850 4 2 1 1 141 138 86 198
851 4 2 1 1 67 73 66 196
852 4 2 1 1 107 183 87 198
853 4 2 1 1 146 34 6 189
854 4 2 1 1 56 72 161 180
855 4 2 1 1 72 156 102 200
856 4 2 1 1 105 159 91 184
857 4 2 1 1 32 125 22 197
858 4 2 1 1 122 123 121 192
859 4 2 1 1 92 100 101 190
860 4 2 1 1 50 49 48 185
861 4 2 1 1 90 153 133 194
862 4 2 1 1 118 10 35 186
863 4 2 1 1 41 39 129 181
864 4 2 1 1 41 40 39 181
865 4 2 1 1 153 33 144 194
866 4 2 1 1 62 63 64 193
867 4 2 1 1 32 22 21 183
868 4 2 1 1 158 163 101 195
869 4 2 1 1 80 81 73 199
870 4 2 1 1 162 96 144 186
871 4 2 1 1 14 27 24 191
872 4 2 1 1 122 121 139 192
873 4 2 1 1 36 159 105 184
874 4 2 1 1 68 64 69 193
875 4 2 1 1 113 114 72 180
876 4 2 1 1 69 75 133 187
877 4 2 1 1 105 104 36 184
878 4 2 1 1 125 29 124 197
879 4 2 1 1 99 27 119 191
880 4 2 1 1 48 49 47 185
881 4 2 1 1 134 158 74 195
882 4 2 1 1 24 31 121 192
883 4 2 1 1 119 14 10 191
884 4 2 1 1 95 83 148 188
885 4 2 1 1 32 87 107 183
886 4 2 1 1 66 63 65 196
887 4 2 1 1 69 70 75 187
888 4 2 1 1 62 68 131 193
889 4 2 1 1 74 67 65 196
890 4 2 1 1 73 67 76 199
891 4 2 1 1 153 90 111 194
892 4 2 1 1 7 6 16 189
893 4 2 1 1 152 146 7 189
894 4 2 1 1 131 156 60 200
895 4 2 1 1 92 101 155 190
896 4 2 1 1 130 92 155 190
897 4 2 1 1 86 80 76 199
898 4 2 1 1 83 108 127 188
899 4 2 1 1 32 21 87 183
900 4 2 1 1 95 139 31 192
901 4 2 1 1 111 33 153 194
902 4 2 1 1 68 62 64 193
903 4 2 1 1 114 161 72 180
904 4 2 1 1 67 66 65 196
905 4 2 1 1 110 22 124 197
906 4 2 1 1 134 93 158 195
907 4 2 1 1 14 119 27 191
908 4 2 1 1 131 79 102 200
909 4 2 1 1 148 83 127 188
910 4 2 1 1 162 144 35 186
911 4 2 1 1 154 87 141 198
912 4 2 1 1 7 146 6 189
913 4 2 1 1 71 154 140 198
914 4 2 1 1 125 124 22 197
915 4 2 1 1 144 118 35 186
916 4 2 1 1 158 93 163 195
917 4 2 1 1 121 31 139 192
918 4 2 1 1 141 86 140 198
919 4 2 1 1 80 73 76 199
920 4 2 1 1 154 141 140 198
921 4 2 1 1 102 156 131 200
922 4 2 1 1 176 200 164 172
923 4 2 1 1 176 164 200 180
924 4 2 1 1 173 164 200 172
925 4 2 1 1 173 200 164 180
926 4 2 1 1 188 26 30 170
927 4 2 1 1 188 30 26 108
928 4 2 1 1 137 182 185 46
929 4 2 1 1 185 182 137 166
930 4 2 1 1 19 197 13 110
931 4 2 1 1 13 197 19 171
932 4 2 1 1 184 4 3 36
933 4 2 1 1 184 3 4 171
934 4 2 1 1 194 103 189 175
935 4 2 1 1 194 189 103 111
936 4 2 1 1 190 120 198 84
937 4 2 1 1 190 198 120 174
938 4 2 1 1 82 123 180 114
939 4 2 1 1 1 123 180 173
940 4 2 1 1 1 180 123 114
941 4 2 1 1 197 37 109 125
942 4 2 1 1 197 109 37 170
943 4 2 1 1 193 70 69 187
944 4 2 1 1 193 69 70 64
945 4 2 1 1 188 28 143 177
946 4 2 1 1 188 143 28 83
947 4 2 1 1 138 199 104 80
948 4 2 1 1 104 199 138 178
949 4 2 1 1 123 180 122 82
950 4 2 1 1 123 122 180 173
951 4 2 1 1 185 122 180 82
952 4 2 1 1 185 180 122 173
$EndElements
